<?xml version="1.0" encoding="UTF-8"?>
<!DOCTYPE svg PUBLIC "-//W3C//DTD SVG 1.1//EN" "http://www.w3.org/Graphics/SVG/1.1/DTD/svg11.dtd">
<svg xmlns="http://www.w3.org/2000/svg" version="1.1" width="191px" height="33px" style="shape-rendering:geometricPrecision; text-rendering:geometricPrecision; image-rendering:optimizeQuality; fill-rule:evenodd; clip-rule:evenodd" xmlns:xlink="http://www.w3.org/1999/xlink">
<g><path style="opacity:0.466" fill="#1e56d8" d="M 49.5,-0.5 C 50.8333,-0.5 52.1667,-0.5 53.5,-0.5C 51.6982,4.77126 48.0316,8.27126 42.5,10C 36.787,18.7134 29.4536,25.7134 20.5,31C 17.5184,31.498 14.5184,31.6646 11.5,31.5C 11.2475,28.6802 11.7475,26.0135 13,23.5C 15.3333,21.1667 17.6667,18.8333 20,16.5C 18.2089,7.79166 21.7089,2.79166 30.5,1.5C 30.6126,4.04877 29.9459,6.3821 28.5,8.5C 28.8333,8.83333 29.1667,9.16667 29.5,9.5C 33.417,6.81057 37.5837,5.81057 42,6.5C 44.3959,3.93337 46.8959,1.60004 49.5,-0.5 Z M 51.5,1.5 C 50.4154,3.58689 48.7488,4.92022 46.5,5.5C 47.5846,3.41311 49.2512,2.07978 51.5,1.5 Z M 26.5,3.5 C 27.3764,3.36912 28.0431,3.70245 28.5,4.5C 26.144,7.0217 23.9773,9.68837 22,12.5C 21.887,8.72596 23.387,5.72596 26.5,3.5 Z M 36.5,7.5 C 40.2896,7.0077 40.9563,7.84103 38.5,10C 35.8738,10.995 33.2071,11.3283 30.5,11C 32.4319,9.5415 34.4319,8.37483 36.5,7.5 Z M 36.5,12.5 C 33.345,16.9091 29.0117,18.9091 23.5,18.5C 23.2965,16.6096 23.9632,15.1096 25.5,14C 29.1704,13.4518 32.8371,12.9518 36.5,12.5 Z M 19.5,18.5 C 20.2674,19.172 20.9341,20.0053 21.5,21C 23.8333,21.3333 26.1667,21.6667 28.5,22C 24.5917,26.9503 19.5917,29.6169 13.5,30C 12.3281,28.1316 12.4947,26.2983 14,24.5C 16.0396,22.6298 17.8729,20.6298 19.5,18.5 Z"/></g>
<g><path style="opacity:0.475" fill="#1e56d8" d="M 175.5,-0.5 C 177.833,-0.5 180.167,-0.5 182.5,-0.5C 181.909,2.6136 180.242,5.1136 177.5,7C 173.779,9.52723 169.779,11.5272 165.5,13C 158.239,21.7709 149.239,27.9376 138.5,31.5C 137.833,31.3333 137.167,31.1667 136.5,31C 142.214,29.6275 145.38,26.1275 146,20.5C 139.506,26.3327 132.006,29.8327 123.5,31C 130.808,27.6921 136.141,22.3588 139.5,15C 134.909,14.0731 131.909,11.4064 130.5,7C 132.745,1.14153 136.579,-0.0251396 142,3.5C 143.687,6.62409 143.854,9.79076 142.5,13C 146.714,12.6293 150.881,12.7959 155,13.5C 157.3,13.5056 159.466,13.0056 161.5,12C 165.766,7.22586 170.432,3.0592 175.5,-0.5 Z M 178.5,0.5 C 179.376,0.369118 180.043,0.702451 180.5,1.5C 177.037,5.8839 172.703,8.71723 167.5,10C 170.769,6.22052 174.436,3.05385 178.5,0.5 Z M 134.5,3.5 C 136.722,3.17798 138.556,3.84464 140,5.5C 141.558,14.2975 139.224,15.6308 133,9.5C 132.252,7.15994 132.752,5.15994 134.5,3.5 Z M 156.5,14.5 C 158.028,14.5173 158.528,15.184 158,16.5C 154.703,18.7954 151.703,21.462 149,24.5C 149.152,21.553 149.319,18.553 149.5,15.5C 152.059,15.8016 154.393,15.4682 156.5,14.5 Z M 138.5,22.5 C 139.608,20.2185 140.942,18.0519 142.5,16C 144.167,15.3333 145.833,15.3333 147.5,16C 144.794,18.6756 141.794,20.8423 138.5,22.5 Z"/></g>
<g><path style="opacity:0.412" fill="#1e56d8" d="M 87.5,27.5 C 84.8639,30.6511 81.5305,31.8178 77.5,31C 76.5871,28.6674 75.0871,26.8341 73,25.5C 71.6246,27.3761 70.458,29.3761 69.5,31.5C 68.4015,28.641 68.9015,25.9743 71,23.5C 75.7007,19.1342 80.034,14.4675 84,9.5C 84.5908,8.51654 84.2575,7.84987 83,7.5C 80.9809,9.24303 78.8143,10.4097 76.5,11C 78.5201,7.28511 81.5201,5.95177 85.5,7C 85.8655,11.6316 84.1988,15.6316 80.5,19C 82.2576,18.6557 84.0909,18.1557 86,17.5C 88.7828,18.3025 88.9495,19.8025 86.5,22C 84.765,22.6514 83.0983,22.4847 81.5,21.5C 79.6641,22.919 77.6641,24.0857 75.5,25C 76.4291,27.3914 77.9291,29.2247 80,30.5C 82.2339,29.2985 84.4006,27.9652 86.5,26.5C 87.1067,26.6236 87.44,26.9569 87.5,27.5 Z"/></g>
<g><path style="opacity:0.588" fill="#1e56d8" d="M 41.5,17.5 C 43.5,17.5 45.5,17.5 47.5,17.5C 47.0206,26.9787 42.0206,31.6453 32.5,31.5C 32.9966,25.1625 35.9966,20.4958 41.5,17.5 Z M 44.5,18.5 C 45.6211,20.0894 45.4544,21.7561 44,23.5C 41.6032,26.4 38.7698,28.7333 35.5,30.5C 34.5923,29.21 34.759,27.8767 36,26.5C 38.7291,23.6007 41.5624,20.934 44.5,18.5 Z"/></g>
<g><path style="opacity:0.52" fill="#1e56d8" d="M 54.5,17.5 C 55.8333,17.5 57.1667,17.5 58.5,17.5C 58.6602,19.1992 58.4935,20.8659 58,22.5C 55.5,25 53,27.5 50.5,30C 57.4495,28.7059 62.2829,24.8726 65,18.5C 62.8266,21.277 62.3266,21.1103 63.5,18C 64.7932,17.51 66.1266,17.3433 67.5,17.5C 67.628,19.6547 67.128,21.6547 66,23.5C 63.2651,25.7319 61.0984,28.3986 59.5,31.5C 58.8333,30.8333 58.1667,30.1667 57.5,29.5C 55.057,31.0553 52.3903,31.722 49.5,31.5C 49.3398,29.8008 49.5065,28.1341 50,26.5C 52.9349,24.273 54.9349,21.6064 56,18.5C 53.6453,21.1304 53.1453,20.797 54.5,17.5 Z"/></g>
<g><path style="opacity:0.51" fill="#1e56d8" d="M 87.5,27.5 C 89.433,25.0626 91.5997,22.7293 94,20.5C 94.2812,18.0953 93.6146,18.0953 92,20.5C 91.4622,18.5269 92.2956,17.5269 94.5,17.5C 95.6473,17.8178 96.4806,18.4844 97,19.5C 99.5645,17.8207 102.398,17.154 105.5,17.5C 105.628,19.6547 105.128,21.6547 104,23.5C 101.265,25.7319 99.0984,28.3986 97.5,31.5C 96.3861,30.277 96.2195,28.9437 97,27.5C 98.6255,24.8723 100.626,22.539 103,20.5C 103.667,19.8333 103.667,19.1667 103,18.5C 96.7722,21.2253 91.9388,25.5586 88.5,31.5C 87.5713,30.3112 87.238,28.9778 87.5,27.5 Z"/></g>
<g><path style="opacity:0.588" fill="#1e56d8" d="M 115.5,17.5 C 117.5,17.5 119.5,17.5 121.5,17.5C 121.021,26.9787 116.021,31.6453 106.5,31.5C 106.997,25.1625 109.997,20.4958 115.5,17.5 Z M 118.5,18.5 C 119.621,20.0894 119.454,21.7561 118,23.5C 115.603,26.4 112.77,28.7333 109.5,30.5C 108.592,29.21 108.759,27.8767 110,26.5C 112.729,23.6007 115.562,20.934 118.5,18.5 Z"/></g>
</svg>
