<?xml version="1.0" encoding="UTF-8"?>
<!DOCTYPE svg PUBLIC "-//W3C//DTD SVG 1.1//EN" "http://www.w3.org/Graphics/SVG/1.1/DTD/svg11.dtd">
<svg xmlns="http://www.w3.org/2000/svg" version="1.1" width="256px" height="256px" style="shape-rendering:geometricPrecision; text-rendering:geometricPrecision; image-rendering:optimizeQuality; fill-rule:evenodd; clip-rule:evenodd" xmlns:xlink="http://www.w3.org/1999/xlink">
<g><path style="opacity:0.983" fill="#63a1ff" d="M 114.5,16.5 C 124.185,17.2545 133.851,17.2545 143.5,16.5C 148.142,16.4833 152.642,17.15 157,18.5C 169.101,18.6073 181.268,18.4406 193.5,18C 219.554,23.0544 235.388,38.5544 241,64.5C 243.054,95.771 229.22,116.271 199.5,126C 195.211,126.878 190.878,127.378 186.5,127.5C 179.167,126.167 171.833,126.167 164.5,127.5C 159.858,127.517 155.358,126.85 151,125.5C 138.531,125.534 126.031,125.534 113.5,125.5C 109.122,126.893 104.622,127.56 100,127.5C 90.1878,127.019 80.3545,126.853 70.5,127C 45.1949,122.361 29.6949,107.527 24,82.5C 20.5282,51.9254 33.0282,31.0921 61.5,20C 66.8837,18.3899 72.3837,17.5565 78,17.5C 88.051,17.7806 98.051,18.1139 108,18.5C 110.277,17.8828 112.444,17.2161 114.5,16.5 Z"/></g>
<g><path style="opacity:1" fill="#e0ecff" d="M 67.5,43.5 C 96.5019,43.3334 125.502,43.5 154.5,44C 161.539,50.745 160.872,56.745 152.5,62C 123.5,62.6667 94.5,62.6667 65.5,62C 58.3439,54.9332 59.0105,48.7665 67.5,43.5 Z"/></g>
<g><path style="opacity:1" fill="#e1edff" d="M 118.5,83.5 C 142.836,83.3334 167.169,83.5 191.5,84C 198.089,89.5888 198.089,95.2555 191.5,101C 167.167,101.667 142.833,101.667 118.5,101C 111.864,95.0914 111.864,89.2581 118.5,83.5 Z"/></g>
<g><path style="opacity:1" fill="#e1edff" d="M 54.5,85.5 C 64.1724,85.3335 73.8391,85.5002 83.5,86C 90.0893,91.5888 90.0893,97.2555 83.5,103C 73.8333,103.667 64.1667,103.667 54.5,103C 47.8636,97.0914 47.8636,91.2581 54.5,85.5 Z"/></g>
<g><path style="opacity:0.976" fill="#62a1ff" d="M 115.5,136.5 C 142.909,135.441 160.076,148.108 167,174.5C 169.244,194.79 161.744,210.29 144.5,221C 119.118,231.981 98.6181,226.147 83,203.5C 72.0194,178.118 77.8528,157.618 100.5,142C 105.447,139.692 110.447,137.859 115.5,136.5 Z"/></g>
<g><path style="opacity:0.963" fill="#62a1ff" d="M 45.5,193.5 C 68.4897,192.655 78.9897,203.655 77,226.5C 72.0382,240.396 62.2049,246.896 47.5,246C 26.5495,239.265 20.3829,225.765 29,205.5C 33.2785,199.707 38.7785,195.707 45.5,193.5 Z"/></g>
</svg>
