<?xml version="1.0" encoding="UTF-8"?>
<!DOCTYPE svg PUBLIC "-//W3C//DTD SVG 1.1//EN" "http://www.w3.org/Graphics/SVG/1.1/DTD/svg11.dtd">
<svg xmlns="http://www.w3.org/2000/svg" viewBox="0 0 518 100" version="1.1" fill-rule="evenodd" stroke-linejoin="round" width="440px" height="94px" style="shape-rendering:geometricPrecision; text-rendering:geometricPrecision; image-rendering:optimizeQuality; fill-rule:evenodd; clip-rule:evenodd" xmlns:xlink="http://www.w3.org/1999/xlink">
<g><path  fill="currentColor" d="M 128.5,2.5 C 130.833,2.5 133.167,2.5 135.5,2.5C 135.54,5.42455 134.707,8.09121 133,10.5C 124.477,20.1721 114.31,27.5054 102.5,32.5C 91.5196,48.6569 78.8529,63.4902 64.5,77C 57.3732,82.787 49.7066,87.787 41.5,92C 33.4407,95.2044 25.1073,96.2044 16.5,95C 12.6326,91.3398 11.466,86.8398 13,81.5C 19.4839,69.6776 28.1505,59.6776 39,51.5C 39.4791,48.3763 40.6457,45.5429 42.5,43C 38.4893,40.6489 36.9893,37.1489 38,32.5C 42.0235,20.4764 50.0235,12.4764 62,8.5C 65.7375,8.73802 67.5708,10.738 67.5,14.5C 64.6279,24.216 59.4613,32.5493 52,39.5C 51.3333,40.1667 51.3333,40.8333 52,41.5C 64.9229,31.456 79.4229,24.7893 95.5,21.5C 97.9211,22.0721 100.254,22.5721 102.5,23C 110.205,14.7783 118.871,7.94495 128.5,2.5 Z M 105.5,28.5 C 112.332,19.5015 120.332,11.6682 129.5,5C 130.944,4.21948 132.277,4.38615 133.5,5.5C 126.431,16.02 117.097,23.6867 105.5,28.5 Z M 58.5,11.5 C 60.5,11.5 62.5,11.5 64.5,11.5C 64.5402,14.4245 63.7068,17.0912 62,19.5C 55.6438,26.5207 49.3104,33.5207 43,40.5C 40.7226,39.4597 39.5559,37.6264 39.5,35C 42.6418,24.5306 48.9751,16.6972 58.5,11.5 Z M 93.5,23.5 C 96.0974,23.6432 98.4308,24.4766 100.5,26C 97.7792,28.7208 95.1126,31.3874 92.5,34C 81.3941,37.5173 70.0607,39.5173 58.5,40C 69.224,32.3025 80.8906,26.8025 93.5,23.5 Z M 89.5,36.5 C 90.2389,36.369 90.9056,36.5357 91.5,37C 81.6806,49.0795 69.0139,56.2462 53.5,58.5C 45.6226,59.0128 43.4559,55.6795 47,48.5C 48.5429,46.6217 50.3762,45.1217 52.5,44C 65.2147,42.7387 77.548,40.2387 89.5,36.5 Z M 73.5,57.5 C 61.5151,73.6491 46.1818,85.4825 27.5,93C 14.2107,94.4658 10.7107,89.2991 17,77.5C 22.9796,69.0202 30.1463,61.6869 38.5,55.5C 40.4865,61.8135 44.8198,65.1468 51.5,65.5C 59.3809,64.2076 66.7143,61.541 73.5,57.5 Z"/></g>
<g><path  fill="currentColor" d="M 497.5,2.5 C 501.182,2.3347 504.848,2.50137 508.5,3C 511.906,5.2414 512.406,8.07474 510,11.5C 496.151,25.0139 479.985,34.8472 461.5,41C 447.94,56.5727 432.607,69.906 415.5,81C 405.048,85.4805 394.715,90.1472 384.5,95C 382.421,95.8077 380.421,95.641 378.5,94.5C 383.512,91.5398 388.846,89.0398 394.5,87C 403.592,78.3127 409.092,67.8127 411,55.5C 404.417,64.085 396.584,71.2517 387.5,77C 371.892,84.4754 355.892,90.642 339.5,95.5C 339.5,94.5 339.5,93.5 339.5,92.5C 347.281,90.966 354.281,87.7993 360.5,83C 371.82,72.3489 380.82,60.0155 387.5,46C 380.934,43.9212 374.6,41.2546 368.5,38C 360.199,28.6779 360.532,19.6779 369.5,11C 386.471,6.32951 395.804,12.8295 397.5,30.5C 396.831,35.1766 396.165,39.8433 395.5,44.5C 401.508,45.5781 407.508,45.5781 413.5,44.5C 414.745,41.08 416.412,40.7466 418.5,43.5C 418.291,44.086 417.957,44.586 417.5,45C 428.28,45.3951 438.947,44.3951 449.5,42C 459.143,32.0247 469.143,22.3581 479.5,13C 485.171,8.80615 491.171,5.30615 497.5,2.5 Z M 500.5,4.5 C 503.983,3.91588 506.983,4.74922 509.5,7C 506.947,11.5612 503.614,15.5612 499.5,19C 488.72,26.889 477.054,32.889 464.5,37C 474.852,24.138 486.852,13.3047 500.5,4.5 Z M 376.5,10.5 C 386.519,12.1945 391.519,18.1945 391.5,28.5C 391.032,33.6762 389.865,38.6762 388,43.5C 380.704,41.8513 374.038,38.8513 368,34.5C 361.544,23.0954 364.378,15.0954 376.5,10.5 Z M 446.5,45.5 C 435.331,59.0066 422.331,70.34 407.5,79.5C 410.124,75.9155 411.957,71.9155 413,67.5C 413.878,60.9058 415.045,54.4058 416.5,48C 426.523,47.3642 436.523,46.5309 446.5,45.5 Z M 373.5,77.5 C 382.261,68.5679 389.261,58.4012 394.5,47C 400.82,47.0239 407.153,47.3572 413.5,48C 401.958,60.3911 388.625,70.2244 373.5,77.5 Z"/></g>
<g><path  fill="currentColor" d="M 218.5,22.5 C 221.187,22.3359 223.854,22.5026 226.5,23C 228.815,24.2957 229.815,26.2957 229.5,29C 228.351,36.7957 225.185,43.629 220,49.5C 212.47,57.3645 204.636,64.8645 196.5,72C 198.553,72.3247 200.553,71.9913 202.5,71C 211.732,64.6344 221.566,59.4677 232,55.5C 233.973,55.3094 235.473,55.976 236.5,57.5C 234.398,65.2815 229.398,69.2815 221.5,69.5C 221.819,64.3435 224.486,61.8435 229.5,62C 227.91,63.0458 226.41,64.2125 225,65.5C 224.312,66.3317 224.479,66.9984 225.5,67.5C 228.151,65.3501 230.651,63.0168 233,60.5C 233.667,59.1667 233.667,57.8333 233,56.5C 220.913,63.1273 208.746,69.6273 196.5,76C 200.758,79.9893 203.925,84.8226 206,90.5C 209.373,93.886 213.206,94.386 217.5,92C 222.603,88.7335 227.27,84.9002 231.5,80.5C 232.754,82.2592 232.421,83.7592 230.5,85C 226.016,89.0775 221.016,92.4109 215.5,95C 210.788,96.4432 206.955,95.2765 204,91.5C 202.059,87.9523 200.393,84.2857 199,80.5C 197.499,78.4164 195.499,77.0831 193,76.5C 185.983,80.6322 182.817,86.6322 183.5,94.5C 182.726,95.7112 181.893,95.7112 181,94.5C 179.768,86.6162 181.768,79.6162 187,73.5C 196,63.1667 205.667,53.5 216,44.5C 220.516,39.4705 224.016,33.8038 226.5,27.5C 225.885,25.6162 224.552,24.6162 222.5,24.5C 215.387,26.099 209.721,29.9323 205.5,36C 204.668,36.6877 204.002,36.521 203.5,35.5C 207.634,30.023 212.634,25.6897 218.5,22.5 Z"/></g>
<g><path  fill="currentColor" d="M 105.5,55.5 C 117.632,52.4674 122.132,56.8007 119,68.5C 112.605,83.912 101.272,92.912 85,95.5C 77.2738,95.7513 74.6071,92.0846 77,84.5C 82.6869,70.9806 92.1869,61.3139 105.5,55.5 Z M 111.5,56.5 C 113.844,56.6748 115.511,57.8415 116.5,60C 110.059,73.1136 100.726,83.7802 88.5,92C 85.9865,93.2525 83.3198,93.7525 80.5,93.5C 80.3379,91.4727 80.5045,89.4727 81,87.5C 88.692,74.642 98.8587,64.3087 111.5,56.5 Z"/></g>
<g><path  fill="currentColor" d="M 143.5,55.5 C 151.378,54.9464 153.545,58.2798 150,65.5C 145.089,73.7467 138.755,80.7467 131,86.5C 129.007,88.8175 127.841,91.4842 127.5,94.5C 137.009,92.5793 145.675,88.7459 153.5,83C 155.123,80.9205 156.623,78.7538 158,76.5C 164.953,71.5515 170.453,65.3849 174.5,58C 173.833,57.8333 173.167,57.6667 172.5,57.5C 168.981,58.68 165.981,60.68 163.5,63.5C 162.479,62.9984 162.312,62.3317 163,61.5C 166.263,56.2779 170.763,54.6112 176.5,56.5C 177.687,61.137 176.854,65.4704 174,69.5C 170.333,74.5 166,78.8333 161,82.5C 157.79,86.2868 155.623,90.6201 154.5,95.5C 153.914,95.2907 153.414,94.9574 153,94.5C 152.667,91.8333 152.333,89.1667 152,86.5C 144.222,92.7597 135.389,95.5931 125.5,95C 123.84,89.8049 124.673,84.9716 128,80.5C 134,74.5 140,68.5 146,62.5C 147.009,60.9751 147.509,59.3084 147.5,57.5C 145.692,57.4914 144.025,57.9914 142.5,59C 140.983,60.6851 139.316,62.1851 137.5,63.5C 136.479,62.9984 136.312,62.3317 137,61.5C 139.063,59.2659 141.229,57.2659 143.5,55.5 Z"/></g>
<g><path  fill="currentColor" d="M 253.5,55.5 C 259.896,54.6573 262.396,57.3239 261,63.5C 265.968,60.5994 271.135,58.0994 276.5,56C 287.354,53.8563 290.187,57.6896 285,67.5C 279.819,74.2596 274.153,80.593 268,86.5C 266.4,89.3343 265.234,92.3343 264.5,95.5C 263.914,95.2907 263.414,94.9574 263,94.5C 261.624,87.6302 263.291,81.6302 268,76.5C 272.333,72.1667 276.667,67.8333 281,63.5C 282.903,61.559 283.736,59.2257 283.5,56.5C 274.662,58.0857 266.662,61.5857 259.5,67C 254.7,72.8017 249.533,78.3017 244,83.5C 241.088,86.9872 239.588,90.9872 239.5,95.5C 238.5,95.5 237.5,95.5 236.5,95.5C 235.931,90.223 236.765,85.223 239,80.5C 243.967,74.5315 249.301,68.8648 255,63.5C 256.559,61.7834 257.392,59.7834 257.5,57.5C 255.692,57.4914 254.025,57.9914 252.5,59C 250.983,60.6851 249.316,62.1851 247.5,63.5C 246.479,62.9984 246.312,62.3317 247,61.5C 249.063,59.2659 251.229,57.2659 253.5,55.5 Z"/></g>
<g><path  fill="currentColor" d="M 320.5,55.5 C 332.632,52.4674 337.132,56.8007 334,68.5C 327.605,83.912 316.272,92.912 300,95.5C 292.274,95.7513 289.607,92.0846 292,84.5C 297.687,70.9806 307.187,61.3139 320.5,55.5 Z M 326.5,56.5 C 328.844,56.6748 330.511,57.8415 331.5,60C 325.059,73.1136 315.726,83.7802 303.5,92C 300.986,93.2525 298.32,93.7525 295.5,93.5C 295.338,91.4727 295.505,89.4727 296,87.5C 303.692,74.642 313.859,64.3087 326.5,56.5 Z"/></g>
</svg>
