<?xml version="1.0" encoding="UTF-8"?>
<!DOCTYPE svg PUBLIC "-//W3C//DTD SVG 1.1//EN" "http://www.w3.org/Graphics/SVG/1.1/DTD/svg11.dtd">
<svg xmlns="http://www.w3.org/2000/svg" viewBox="0 0 440 94" version="1.1" fill-rule="evenodd" stroke-linejoin="round" width="191px" height="33px" style="shape-rendering:geometricPrecision; text-rendering:geometricPrecision; image-rendering:optimizeQuality; fill-rule:evenodd; clip-rule:evenodd" xmlns:xlink="http://www.w3.org/1999/xlink">
<g ><path fill="currentColor"  d="M 112.5,2.5 C 119.622,1.43973 121.122,3.77306 117,9.5C 109.827,17.5023 101.327,23.669 91.5,28C 79.9185,45.5826 65.5851,60.5826 48.5,73C 39.9565,78.7379 30.6231,80.7379 20.5,79C 16.7314,74.0955 16.5647,68.9288 20,63.5C 25.293,55.8729 31.6263,49.2063 39,43.5C 39.7348,41.1287 40.5682,38.7954 41.5,36.5C 38.644,33.3758 37.8107,29.7092 39,25.5C 42.4661,16.2002 48.9661,10.2002 58.5,7.5C 61.3469,7.92459 63.0135,9.59125 63.5,12.5C 60.2415,20.5902 55.5748,27.7569 49.5,34C 49.8333,34.1667 50.1667,34.3333 50.5,34.5C 60.6663,26.3341 72.1663,21.0008 85,18.5C 87.3523,18.3049 89.3523,18.9716 91,20.5C 97.1878,13.1295 104.355,7.12951 112.5,2.5 Z M 113.5,4.5 C 117.195,3.87377 118.029,4.87377 116,7.5C 110.246,14.035 103.579,19.3683 96,23.5C 95.3333,22.8333 95.3333,22.1667 96,21.5C 101.729,15.603 107.562,9.93632 113.5,4.5 Z M 57.5,9.5 C 60.9019,10.5577 61.4019,12.5577 59,15.5C 53.429,21.648 48.0956,27.9814 43,34.5C 40.0495,31.1568 39.7162,27.4901 42,23.5C 45.5091,16.8555 50.6757,12.1888 57.5,9.5 Z M 56.5,33.5 C 64.8744,26.8993 74.3744,22.566 85,20.5C 86.728,20.4537 88.228,20.9537 89.5,22C 88.0716,24.1847 86.4049,26.1847 84.5,28C 75.4053,31.1076 66.072,32.9409 56.5,33.5 Z M 81.5,31.5 C 73.073,43.7042 61.4063,49.5375 46.5,49C 46,48.5 45.5,48 45,47.5C 44.8301,45.1546 45.1635,42.8212 46,40.5C 47.7713,39.6959 49.2713,38.5292 50.5,37C 60.9494,35.7432 71.2827,33.9098 81.5,31.5 Z M 66.5,49.5 C 58.9246,58.5771 50.258,66.4104 40.5,73C 34.6242,76.6281 28.2909,77.9614 21.5,77C 19.9903,75.6487 18.9903,73.982 18.5,72C 19.276,69.0053 20.4426,66.172 22,63.5C 26.9826,57.3505 32.4826,51.6838 38.5,46.5C 40.0541,52.0519 43.7207,55.0519 49.5,55.5C 55.4978,54.3295 61.1644,52.3295 66.5,49.5 Z"/></g>
<g><path  fill="currentColor" d="M 417.5,2.5 C 420.85,2.33499 424.183,2.50166 427.5,3C 429.984,5.28378 430.151,7.78378 428,10.5C 416.514,21.8338 403.014,30.0005 387.5,35C 371.35,54.7383 351.35,69.0716 327.5,78C 324.857,79.4356 322.19,79.6023 319.5,78.5C 325.372,76.1561 330.872,73.1561 336,69.5C 341.538,63.0967 344.871,55.7634 346,47.5C 341.075,54.4267 334.908,59.9267 327.5,64C 315.195,69.7648 302.695,74.9315 290,79.5C 289.167,79.1667 288.333,78.8333 287.5,78.5C 292.435,76.0327 297.435,73.5327 302.5,71C 313.138,61.7023 321.471,50.7023 327.5,38C 320.468,36.8986 314.302,34.0653 309,29.5C 304.071,20.0886 306.238,12.9219 315.5,8C 328.214,6.87854 334.88,12.7119 335.5,25.5C 334.96,29.5335 334.293,33.5335 333.5,37.5C 337.879,37.2921 342.213,37.6255 346.5,38.5C 348.126,36.5476 350.126,35.2143 352.5,34.5C 352.5,35.8333 352.5,37.1667 352.5,38.5C 362.022,38.0963 371.355,36.5963 380.5,34C 390.648,20.6664 402.981,10.1664 417.5,2.5 Z M 419.5,4.5 C 428.496,3.65986 429.83,6.49319 423.5,13C 413.76,20.3949 403.26,26.5616 392,31.5C 391.333,30.8333 391.333,30.1667 392,29.5C 400.465,20.1928 409.631,11.8595 419.5,4.5 Z M 316.5,9.5 C 325.922,9.986 330.588,14.986 330.5,24.5C 330.146,28.7896 328.98,32.7896 327,36.5C 322.287,35.2606 317.787,33.4273 313.5,31C 308.847,27.2115 307.347,22.3782 309,16.5C 310.742,13.2543 313.242,10.921 316.5,9.5 Z M 344.5,65.5 C 348.295,58.037 350.128,50.037 350,41.5C 350.5,41 351,40.5 351.5,40C 359.941,39.6197 368.275,38.9531 376.5,38C 367.12,48.8964 356.453,58.063 344.5,65.5 Z M 315.5,64.5 C 322.696,57.6289 328.362,49.6289 332.5,40.5C 337.536,39.2451 342.536,39.4118 347.5,41C 338.061,50.6206 327.394,58.4539 315.5,64.5 Z"/></g>
<g><path  fill="currentColor" d="M 187.5,19.5 C 196.398,18.2956 199.231,21.9623 196,30.5C 189.684,42.1544 181.184,51.9877 170.5,60C 173.947,59.2879 177.281,57.9545 180.5,56C 185.334,52.7484 190.334,49.7484 195.5,47C 197.81,46.5034 200.143,46.3367 202.5,46.5C 202.167,54.1667 198.167,58.1667 190.5,58.5C 190.744,55.7374 192.077,53.5707 194.5,52C 196.975,52.2569 196.975,53.2569 194.5,55C 197.483,54.5293 199.483,52.696 200.5,49.5C 200,49.1667 199.5,48.8333 199,48.5C 189.874,53.9798 180.374,58.8131 170.5,63C 173.567,66.2975 175.733,70.1308 177,74.5C 178.413,76.4136 180.247,77.7469 182.5,78.5C 188.495,75.8328 193.828,72.1661 198.5,67.5C 199.521,68.0016 199.688,68.6683 199,69.5C 193.388,76.5027 186.222,79.6694 177.5,79C 175.294,75.732 173.461,72.232 172,68.5C 170.587,66.5864 168.753,65.2531 166.5,64.5C 161.611,68.2709 158.778,73.2709 158,79.5C 156.443,76.7055 156.11,73.7055 157,70.5C 159.27,65.9022 161.937,61.5689 165,57.5C 175.037,49.1308 184.037,39.7975 192,29.5C 195.833,21.3333 193.667,19.1667 185.5,23C 182.021,25.3124 179.021,28.1458 176.5,31.5C 176.167,31.1667 175.833,30.8333 175.5,30.5C 178.869,26.1308 182.869,22.4642 187.5,19.5 Z"/></g>
<g><path  fill="currentColor" d="M 94.5,46.5 C 97.8499,46.335 101.183,46.5017 104.5,47C 106.347,49.5791 106.847,52.4124 106,55.5C 101.975,65.5261 95.142,73.0261 85.5,78C 80.4667,80.1017 75.6334,79.935 71,77.5C 69.5945,71.4653 70.9279,66.132 75,61.5C 80.2341,54.7551 86.7341,49.7551 94.5,46.5 Z M 98.5,47.5 C 101.243,47.0772 102.576,48.2439 102.5,51C 96.7447,63.0894 87.9114,72.2561 76,78.5C 73.9348,77.3722 73.2681,75.7055 74,73.5C 79.9771,62.6918 88.1438,54.0252 98.5,47.5 Z"/></g>
<g><path  fill="currentColor" d="M 124.5,46.5 C 131.065,45.422 133.232,48.0886 131,54.5C 130,56.1667 129,57.8333 128,59.5C 122.134,65.0313 116.634,70.8647 111.5,77C 112.108,77.8699 112.941,78.3699 114,78.5C 121.113,76.5263 127.613,73.3596 133.5,69C 137.967,63.5319 142.8,58.3653 148,53.5C 148.707,51.9194 149.54,50.4194 150.5,49C 150,48.5 149.5,48 149,47.5C 146.372,49.1255 144.039,51.1255 142,53.5C 142.268,49.0704 144.768,46.7371 149.5,46.5C 152.169,46.5072 153.502,47.8406 153.5,50.5C 153.101,52.1966 152.601,53.8632 152,55.5C 147.487,61.5913 142.487,67.258 137,72.5C 135.171,81.6692 133.338,81.6692 131.5,72.5C 125.055,77.6484 117.722,79.9818 109.5,79.5C 109.035,75.2076 109.868,71.2076 112,67.5C 117.699,62.1352 123.033,56.4685 128,50.5C 128.667,49.5 128.667,48.5 128,47.5C 124.822,48.67 122.322,50.67 120.5,53.5C 120.167,53.1667 119.833,52.8333 119.5,52.5C 120.956,50.2854 122.622,48.2854 124.5,46.5 Z"/></g>
<g><path  fill="currentColor" d="M 216.5,46.5 C 218.5,46.5 220.5,46.5 222.5,46.5C 223.625,48.8205 223.792,51.1538 223,53.5C 228.907,48.3084 235.74,46.1417 243.5,47C 244.992,51.5307 244.159,55.6973 241,59.5C 234.079,64.9071 228.913,71.5737 225.5,79.5C 223.712,74.0171 224.546,69.0171 228,64.5C 232,60.5 236,56.5 240,52.5C 241.009,50.9751 241.509,49.3084 241.5,47.5C 234.267,48.9483 227.601,51.7817 221.5,56C 218.035,60.4668 214.202,64.6334 210,68.5C 207.283,71.9484 205.116,75.615 203.5,79.5C 201.989,74.9293 202.489,70.596 205,66.5C 210.753,61.2019 215.92,55.3686 220.5,49C 220,48.5 219.5,48 219,47.5C 216.356,49.31 213.856,51.31 211.5,53.5C 210.479,52.9984 210.312,52.3317 211,51.5C 212.73,49.5981 214.563,47.9314 216.5,46.5 Z"/></g>
<g><path  fill="currentColor" d="M 272.5,46.5 C 275.85,46.335 279.183,46.5017 282.5,47C 284.347,49.5791 284.847,52.4124 284,55.5C 279.975,65.5261 273.142,73.0261 263.5,78C 258.467,80.1017 253.633,79.935 249,77.5C 247.595,71.4653 248.928,66.132 253,61.5C 258.234,54.7551 264.734,49.7551 272.5,46.5 Z M 276.5,47.5 C 279.243,47.0772 280.576,48.2439 280.5,51C 274.745,63.0894 265.911,72.2561 254,78.5C 251.935,77.3722 251.268,75.7055 252,73.5C 257.977,62.6918 266.144,54.0252 276.5,47.5 Z"/></g>
</svg>
