<?xml version="1.0" standalone="no"?>
<!DOCTYPE svg PUBLIC "-//W3C//DTD SVG 20010904//EN"
 "http://www.w3.org/TR/2001/REC-SVG-20010904/DTD/svg10.dtd">
<svg version="1.0" xmlns="http://www.w3.org/2000/svg"
 width="1280.000000pt" height="1128.000000pt" viewBox="0 0 1280.000000 1128.000000"
 preserveAspectRatio="xMidYMid meet">
<metadata>
Created by potrace 1.15, written by Peter Selinger 2001-2017
</metadata>
<g transform="translate(0.000000,1128.000000) scale(0.100000,-0.100000)"
fill="#000000" stroke="none">
<path d="M8080 11273 c-275 -42 -423 -238 -407 -538 8 -132 45 -273 106 -401
27 -57 48 -104 46 -104 -1 0 -34 13 -71 29 -658 280 -1380 262 -2020 -50 -139
-67 -344 -196 -447 -281 -508 -416 -837 -974 -971 -1648 -47 -236 -61 -629
-31 -883 99 -845 577 -1546 1233 -1807 419 -167 859 -155 1261 36 420 198 748
584 901 1059 108 334 121 738 34 1072 -74 287 -217 539 -410 724 -152 145
-312 236 -509 291 -110 31 -343 36 -466 10 -200 -41 -380 -138 -528 -282 -114
-112 -180 -201 -246 -335 -155 -313 -161 -649 -15 -951 58 -120 299 -448 317
-430 9 8 -40 92 -140 241 -149 222 -196 338 -216 533 -42 404 209 836 592
1018 358 169 782 96 1082 -188 51 -48 118 -120 148 -160 321 -420 388 -1061
167 -1613 -80 -201 -194 -369 -365 -540 -221 -222 -440 -342 -738 -407 -148
-32 -417 -32 -567 1 -194 42 -397 132 -565 250 -109 76 -292 256 -379 371
-292 388 -446 875 -446 1409 1 1084 658 2049 1607 2360 254 84 423 111 688
111 323 0 588 -54 882 -181 430 -184 826 -522 1125 -959 427 -623 644 -1481
588 -2322 -64 -957 -441 -1822 -1079 -2481 -146 -150 -237 -226 -411 -342
-611 -406 -1590 -781 -2556 -979 -574 -118 -1088 -174 -1629 -179 -281 -2
-264 -6 -395 83 -283 192 -436 557 -376 898 81 462 470 708 831 525 122 -62
238 -224 270 -378 50 -238 -48 -476 -233 -567 -39 -19 -63 -23 -142 -23 -83 0
-101 4 -145 27 -63 33 -139 113 -166 175 -11 25 -25 78 -31 117 -14 91 6 177
59 254 138 201 423 111 423 -134 0 -60 -12 -95 -64 -179 l-18 -30 27 30 c72
80 90 201 46 300 -29 65 -64 102 -126 131 -199 94 -400 -94 -382 -356 9 -137
71 -248 177 -318 144 -96 329 -79 459 43 66 62 104 122 137 220 23 67 27 97
28 190 1 124 -21 212 -77 320 -39 74 -164 201 -234 238 -60 32 -188 67 -247
67 -39 1 -40 1 -21 16 80 59 125 128 125 190 0 27 -8 44 -33 69 -55 55 -156
70 -144 21 3 -12 10 -39 16 -60 12 -50 -2 -133 -34 -197 -21 -41 -29 -48 -71
-58 -328 -83 -553 -472 -513 -887 24 -257 133 -476 325 -652 l79 -73 -85 7
c-706 50 -1294 176 -1865 401 -77 30 -243 106 -370 168 -303 149 -509 274
-763 462 -133 98 -152 87 -24 -15 405 -324 950 -615 1498 -802 560 -191 1104
-297 1804 -352 216 -16 961 -16 1180 0 442 34 923 97 1213 158 l71 15 54 -53
c198 -195 296 -505 264 -840 -30 -320 -158 -594 -382 -818 -485 -487 -1196
-483 -1481 7 -120 208 -123 495 -7 728 161 321 515 519 806 450 175 -41 302
-160 353 -327 29 -96 23 -233 -15 -332 -140 -367 -604 -488 -771 -201 -78 134
-43 310 86 429 61 57 102 74 239 104 40 9 42 10 13 11 -48 2 -132 -18 -189
-45 -68 -32 -147 -118 -187 -201 -29 -61 -32 -77 -32 -158 0 -76 4 -99 27
-146 49 -107 144 -177 271 -200 228 -42 507 147 597 405 40 111 44 257 11 363
-20 66 -78 160 -132 213 -173 170 -455 198 -714 71 -276 -136 -475 -416 -516
-726 -51 -392 190 -765 566 -873 180 -52 333 -54 533 -6 365 88 721 384 907
754 101 202 147 397 148 630 0 316 -73 548 -236 743 -22 26 -38 49 -36 51 2 2
65 18 139 35 762 178 1469 456 1937 761 63 42 83 49 159 60 127 18 401 8 532
-19 315 -66 587 -187 827 -366 116 -87 300 -274 393 -399 193 -261 323 -562
378 -876 28 -159 26 -438 -4 -588 -82 -406 -304 -716 -637 -885 -95 -48 -231
-92 -336 -107 -103 -15 -292 -8 -394 14 -282 63 -548 235 -726 472 -287 382
-350 848 -163 1205 97 184 273 324 474 375 88 23 254 23 345 0 159 -40 327
-146 442 -279 166 -193 241 -481 184 -706 -67 -266 -296 -430 -547 -394 -237
34 -437 242 -469 489 -6 44 4 178 21 272 4 18 2 32 -4 32 -5 0 -12 -17 -16
-37 -3 -21 -13 -76 -21 -123 -52 -287 142 -586 437 -677 85 -27 226 -22 317
10 249 88 395 334 378 637 -28 499 -472 908 -950 877 -592 -39 -923 -658 -710
-1327 36 -111 126 -289 199 -392 82 -115 242 -272 354 -347 241 -161 466 -233
725 -233 216 0 381 39 565 133 322 165 556 464 661 847 l22 82 19 -52 c24 -70
83 -155 135 -194 47 -36 110 -51 167 -40 83 16 200 130 194 190 -3 31 -3 31
-77 38 -95 8 -194 56 -282 137 -117 107 -117 107 -123 321 -6 241 -36 412
-107 621 -226 666 -734 1178 -1379 1393 -203 68 -445 116 -580 116 -33 0 -60
3 -60 6 0 3 41 50 91 104 923 998 1314 2469 1024 3850 -123 582 -374 1139
-699 1543 -72 91 -81 128 -80 337 1 149 3 174 28 254 44 147 81 212 168 297
88 86 97 114 51 147 -74 52 -259 71 -353 37 -157 -56 -223 -159 -223 -345 0
-113 21 -204 72 -312 l37 -76 -32 26 c-182 154 -241 201 -315 252 l-86 59 -6
81 c-10 158 20 372 75 529 58 163 146 289 280 396 46 38 53 62 29 101 -47 77
-269 132 -431 107z"/>
<path d="M9332 9173 c-137 -67 -87 -284 66 -286 92 -1 156 62 156 155 0 110
-120 181 -222 131z"/>
<path d="M9640 8759 c-45 -10 -110 -77 -111 -116 -2 -62 4 -89 27 -121 90
-118 274 -59 274 88 0 99 -90 170 -190 149z"/>
<path d="M9680 8218 c-90 -46 -114 -159 -49 -233 38 -42 79 -59 133 -53 178
20 179 277 1 303 -30 5 -51 1 -85 -17z"/>
<path d="M11849 8002 c-140 -47 -286 -140 -396 -255 -170 -177 -297 -405 -563
-1007 -265 -602 -404 -846 -584 -1026 -115 -115 -199 -164 -321 -188 l-70 -14
75 -3 c558 -22 1440 191 1925 464 126 71 313 215 425 327 423 422 482 878 168
1312 -149 206 -259 313 -378 370 -84 41 -195 48 -281 20z"/>
<path d="M6275 7769 c-123 -18 -192 -55 -227 -122 -20 -37 -23 -56 -23 -162 1
-112 3 -125 32 -193 41 -92 115 -206 263 -402 143 -191 193 -264 232 -342 55
-111 71 -202 48 -264 -17 -45 -3 -39 30 12 91 144 202 423 254 642 34 142 43
239 34 368 -19 276 -133 430 -345 464 -69 12 -215 11 -298 -1z"/>
<path d="M12634 6424 c-69 -34 -83 -127 -28 -185 96 -100 246 20 174 139 -19
31 -71 62 -102 62 -7 0 -27 -7 -44 -16z"/>
<path d="M12392 6046 c-80 -44 -81 -163 -2 -210 47 -27 95 -21 138 18 34 31
37 39 37 86 0 47 -3 55 -37 86 -41 37 -92 45 -136 20z"/>
<path d="M8240 5915 c0 -47 -45 -131 -102 -191 -129 -137 -321 -229 -783 -374
-369 -116 -481 -157 -635 -232 -137 -67 -150 -76 -236 -163 -118 -119 -169
-214 -169 -315 0 -57 6 -77 39 -146 33 -67 59 -98 165 -205 108 -108 138 -132
208 -167 106 -52 173 -66 298 -59 74 3 119 11 171 31 255 94 494 319 690 648
240 404 397 858 381 1102 -3 43 -10 83 -16 89 -8 8 -11 3 -11 -18z"/>
<path d="M11979 5877 c-48 -32 -68 -91 -48 -143 34 -90 141 -111 206 -40 99
108 -37 265 -158 183z"/>
<path d="M11281 5159 c-195 -38 -407 -149 -908 -477 -404 -265 -586 -362 -781
-418 -81 -23 -107 -26 -195 -22 -78 3 -114 9 -152 26 -47 21 -49 22 -30 3 65
-65 372 -227 595 -314 398 -157 764 -240 1045 -239 536 1 902 201 1023 557 26
77 27 88 27 280 -1 171 -4 213 -23 287 -48 195 -126 279 -291 314 -72 15 -240
17 -310 3z"/>
<path d="M2755 4348 c-62 -34 -74 -110 -26 -159 80 -79 214 22 161 122 -22 40
-93 60 -135 37z"/>
<path d="M2509 4041 c-50 -51 -31 -139 35 -161 45 -14 80 -4 111 32 55 66 12
158 -75 158 -33 0 -48 -6 -71 -29z"/>
<path d="M2534 3686 c-102 -45 -74 -186 36 -186 109 0 140 154 38 189 -38 13
-36 13 -74 -3z"/>
<path d="M11448 3654 c-80 -43 -75 -170 8 -209 44 -21 75 -19 115 8 47 31 66
91 45 141 -27 65 -107 94 -168 60z"/>
<path d="M10630 3562 c-50 -24 -76 -81 -61 -131 39 -132 232 -110 231 26 0 40
-20 74 -59 100 -41 28 -65 29 -111 5z"/>
<path d="M11033 3470 c-40 -24 -53 -48 -53 -97 0 -85 74 -140 154 -113 48 15
76 57 76 112 0 50 -19 82 -60 103 -39 20 -79 19 -117 -5z"/>
<path d="M10518 752 c-65 -39 -73 -131 -17 -183 79 -73 199 -24 199 81 0 91
-105 150 -182 102z"/>
<path d="M5448 572 c-31 -18 -58 -67 -58 -104 0 -37 37 -88 77 -105 71 -29
150 18 160 95 13 98 -95 167 -179 114z"/>
<path d="M4633 485 c-60 -26 -81 -110 -43 -172 21 -36 82 -60 122 -50 100 26
124 157 39 214 -39 26 -72 28 -118 8z"/>
<path d="M10235 416 c-51 -22 -70 -52 -70 -108 0 -44 4 -53 37 -84 28 -25 47
-34 73 -34 99 0 156 95 105 177 -31 51 -93 72 -145 49z"/>
<path d="M5034 391 c-59 -36 -70 -127 -22 -178 76 -81 203 -28 203 85 0 38 -5
48 -37 78 -44 40 -94 45 -144 15z"/>
<path d="M9792 220 c-18 -11 -40 -36 -49 -55 -15 -32 -16 -40 -3 -78 45 -129
230 -106 230 29 0 49 -28 90 -76 110 -45 19 -63 18 -102 -6z"/>
</g>
</svg>
