<?xml version="1.0" standalone="no"?>
<!DOCTYPE svg PUBLIC "-//W3C//DTD SVG 20010904//EN"
 "http://www.w3.org/TR/2001/REC-SVG-20010904/DTD/svg10.dtd">
<svg version="1.0" xmlns="http://www.w3.org/2000/svg"
 width="1280.000000pt" height="960.000000pt" viewBox="0 0 1280.000000 960.000000"
 preserveAspectRatio="xMidYMid meet">
<metadata>
Created by potrace 1.15, written by Peter Selinger 2001-2017
</metadata>
<g transform="translate(0.000000,960.000000) scale(0.100000,-0.100000)"
fill="#000000" stroke="none">
<path d="M294 9578 c3 -13 6 -29 6 -35 0 -8 13 -13 31 -13 l31 0 -57 -62 -57
-62 48 -42 c27 -24 52 -43 56 -44 3 0 46 43 94 95 82 89 90 95 127 95 l39 0
-6 -77 c-4 -43 -9 -94 -12 -114 l-5 -36 62 -12 c48 -10 63 -10 69 0 4 6 11 58
15 115 6 94 9 104 27 104 30 0 353 -32 356 -35 2 -2 -45 -61 -104 -132 -59
-70 -109 -129 -110 -131 -1 -2 -58 5 -126 16 -67 11 -126 17 -130 13 -4 -4
-14 -28 -22 -53 -16 -55 -24 -50 102 -68 45 -7 82 -16 82 -19 0 -4 -10 -17
-23 -29 l-22 -21 -130 19 c-71 10 -130 18 -131 17 -1 -1 -8 -26 -17 -55 -17
-60 -29 -53 110 -73 l83 -11 -21 -30 c-12 -16 -20 -30 -18 -32 2 -2 22 -15 44
-29 l39 -27 22 21 22 21 11 -52 c6 -28 11 -59 11 -70 0 -10 4 -22 10 -25 8 -5
62 5 106 20 10 3 -7 132 -31 232 -3 14 3 31 18 48 l23 27 75 -70 75 -70 39 33
c29 24 42 29 50 21 5 -6 24 -24 41 -39 l31 -28 59 75 c33 41 61 75 64 76 3 0
11 -14 17 -31 12 -31 10 -34 -68 -133 l-80 -101 42 -37 43 -37 62 80 63 80 16
-31 c8 -16 17 -30 19 -30 2 0 24 12 50 26 40 23 45 28 35 46 -6 11 -9 21 -7
24 2 2 33 -5 69 -16 35 -11 69 -18 75 -16 14 5 38 97 27 106 -4 4 -60 21 -124
39 -106 30 -116 35 -126 62 -6 16 -8 31 -5 33 4 2 45 16 92 31 47 15 88 29 92
31 5 4 -16 101 -24 109 -2 2 -50 -12 -108 -30 -57 -19 -105 -33 -106 -32 -8 8
-104 231 -101 234 3 2 53 -1 113 -7 60 -5 118 -10 130 -10 17 0 30 -21 74
-125 29 -69 57 -125 61 -125 26 0 109 23 109 30 0 5 -18 51 -40 101 -22 51
-40 94 -40 96 0 2 8 3 19 3 12 0 42 -38 96 -125 43 -69 82 -125 86 -125 14 0
99 39 99 46 0 4 -25 46 -55 94 -30 48 -55 89 -55 91 0 3 19 3 41 1 40 -4 42
-3 36 19 -4 13 -7 41 -7 62 0 36 -1 37 -36 37 -39 0 -38 -7 -18 75 6 25 6 25
-65 25 l-70 0 -11 -40 c-9 -34 -15 -40 -37 -40 -24 0 -25 2 -19 40 l6 40 -69
0 -68 0 -7 -31 -6 -31 -102 7 c-57 4 -105 9 -107 11 -2 2 4 13 14 24 18 19 17
20 -123 19 -92 0 -142 -4 -144 -11 -3 -7 -37 -7 -119 1 -63 6 -247 11 -408 11
l-293 0 6 -22z m960 -318 l48 -109 -67 -86 c-38 -47 -72 -85 -76 -85 -12 0
-160 142 -157 151 5 13 192 239 199 239 3 0 27 -49 53 -110z"/>
<path d="M3860 9593 c0 -5 -11 -20 -24 -35 l-24 -27 -229 14 c-125 8 -240 15
-254 15 -25 0 -28 -5 -52 -102 -14 -57 -24 -104 -23 -105 2 -2 90 -8 197 -15
107 -6 196 -12 197 -14 2 -1 -15 -28 -39 -59 l-43 -57 -115 7 c-64 4 -183 10
-264 14 l-148 6 -9 -35 c-28 -107 -40 -159 -40 -168 0 -6 70 -12 178 -16 97
-4 190 -10 206 -14 l29 -7 -43 -53 c-23 -30 -40 -55 -38 -56 13 -11 177 -96
184 -96 5 0 22 18 37 40 16 22 32 40 36 40 3 0 22 -62 40 -137 19 -76 35 -140
37 -142 2 -3 224 68 232 74 1 1 -22 102 -53 223 -30 122 -55 229 -55 237 0 18
67 105 80 105 4 0 76 -52 160 -116 l152 -116 84 83 c46 46 84 86 84 89 0 3
-74 61 -165 129 -91 68 -165 127 -165 131 0 4 24 39 53 76 29 38 56 75 60 82
6 9 -22 12 -127 12 -75 0 -136 -3 -136 -7z"/>
<path d="M4550 9592 c0 -5 14 -48 30 -97 17 -49 30 -96 30 -106 0 -9 -67 -95
-150 -190 l-149 -172 48 -56 c27 -31 58 -64 70 -75 20 -18 21 -18 38 2 133
156 219 250 224 244 4 -4 14 -31 24 -60 l17 -52 -62 -73 c-34 -39 -104 -123
-157 -184 l-95 -113 67 -75 c37 -41 69 -75 70 -75 2 0 58 66 126 146 l123 146
19 -58 c11 -33 21 -61 23 -63 5 -5 173 69 179 79 3 4 -2 27 -10 50 -8 24 -14
45 -11 47 2 2 61 -19 131 -47 71 -27 130 -48 132 -47 2 2 19 50 38 106 31 92
32 103 17 108 -9 4 -107 42 -217 84 l-200 78 -16 55 c-10 31 -14 58 -10 60 3
2 83 25 176 51 94 26 172 49 174 51 3 3 -5 55 -25 158 -4 17 -2 26 4 23 8 -5
83 12 175 39 45 14 8 24 -88 24 -86 0 -105 -3 -105 -15 0 -15 -2 -16 -235 -80
-71 -20 -135 -38 -142 -40 -8 -2 -21 22 -35 65 l-22 70 -103 0 c-57 0 -103 -4
-103 -8z"/>
<path d="M5541 9543 c12 -32 25 -62 29 -67 7 -7 175 36 188 48 2 3 -1 21 -8
40 l-12 36 -109 0 -109 0 21 -57z"/>
<path d="M6614 9488 c4 -62 8 -113 10 -115 2 -2 59 -7 126 -10 l123 -6 -6 33
c-4 18 -7 72 -7 121 l0 89 -127 0 -126 0 7 -112z"/>
<path d="M6978 9518 c2 -46 6 -85 8 -87 2 -2 75 3 161 12 208 22 206 22 198
-5 -4 -13 -10 -26 -14 -31 -4 -4 -108 -34 -232 -68 -123 -33 -228 -64 -232
-69 -7 -6 7 -150 18 -186 2 -7 63 5 177 37 95 26 176 48 180 49 5 0 -1 -24
-12 -52 -11 -29 -20 -58 -20 -64 0 -7 35 -20 78 -29 42 -9 85 -19 94 -21 12
-4 21 2 27 18 5 13 15 38 22 56 l14 33 149 -101 c82 -56 154 -104 160 -106 10
-4 136 153 136 170 0 3 -62 47 -137 97 -76 51 -159 107 -185 126 -45 33 -46
34 -35 68 6 19 14 35 19 35 5 0 76 -36 157 -80 82 -44 151 -80 154 -80 7 0
117 168 117 178 0 4 -73 46 -162 95 l-161 87 -341 0 -341 0 3 -82z"/>
<path d="M8055 9443 c-38 -86 -73 -164 -76 -173 -6 -13 13 -27 81 -63 49 -26
91 -44 93 -40 3 4 35 76 72 158 37 83 70 153 74 158 4 4 16 -2 27 -14 18 -20
18 -23 -35 -227 -30 -114 -56 -217 -58 -228 -4 -19 5 -25 88 -53 51 -17 94
-29 95 -28 2 2 22 77 45 168 24 90 44 166 46 168 2 3 24 -15 48 -39 l45 -44
65 69 c35 39 64 73 65 77 0 5 -16 26 -36 48 l-36 39 174 88 173 88 -225 3
c-154 2 -234 -1 -253 -9 -21 -9 -31 -9 -40 0 -7 7 -68 11 -186 11 l-176 0 -70
-157z"/>
<path d="M9887 9578 c-3 -13 -9 -47 -13 -75 l-7 -53 137 0 c75 0 136 -2 136
-5 0 -3 -11 -23 -24 -44 l-25 -38 67 -31 66 -31 20 30 c10 17 22 27 26 22 4
-4 19 -48 34 -96 30 -99 22 -95 122 -51 63 28 63 7 -2 212 -40 126 -42 136
-27 158 l15 24 -260 0 -260 0 -5 -22z"/>
<path d="M10486 9592 c28 -25 155 -112 163 -112 5 0 26 21 48 46 l39 46 62
-43 c34 -23 63 -41 65 -38 2 2 18 28 35 57 l32 52 -227 0 c-125 0 -223 -4
-217 -8z"/>
<path d="M10950 9473 c-41 -71 -75 -131 -75 -135 0 -4 26 -25 57 -47 l56 -41
67 115 c37 63 70 115 74 115 5 0 16 -16 27 -35 10 -19 20 -35 21 -35 2 0 30
19 62 43 l60 43 -21 32 c-11 18 -16 32 -11 32 4 0 50 -7 102 -15 52 -9 95 -14
96 -13 2 2 6 18 10 36 l7 32 -229 0 -229 0 -74 -127z"/>
<path d="M12301 9419 l-44 -50 107 -100 c95 -90 106 -104 106 -135 0 -19 -6
-37 -12 -39 -7 -3 -60 1 -118 9 -58 8 -108 12 -111 10 -7 -4 -32 -124 -27
-129 2 -1 57 -10 122 -19 65 -8 121 -18 124 -20 5 -6 -25 -376 -31 -383 -4 -3
-144 112 -255 209 l-33 28 19 131 19 131 -32 13 c-17 8 -43 17 -57 20 -29 7
-29 9 -48 -120 -6 -38 -13 -72 -16 -74 -2 -3 -16 7 -31 21 l-26 26 18 132 c9
73 13 135 9 140 -12 10 -73 30 -94 30 -14 0 -19 -18 -30 -105 l-13 -105 -32
25 -33 24 -31 -47 -30 -47 20 -21 20 -22 -64 -11 c-35 -6 -71 -11 -81 -11 -12
0 -16 -6 -12 -17 3 -10 10 -39 17 -65 6 -27 14 -48 18 -48 3 1 64 9 136 19
l130 19 27 -22 c15 -11 27 -23 27 -26 1 -3 -33 -39 -74 -80 l-75 -74 37 -38
37 -38 -43 -44 -43 -44 82 -68 c75 -62 81 -69 64 -81 -10 -7 -25 -13 -35 -13
-9 0 -65 39 -124 86 l-107 86 -39 -38 c-21 -21 -39 -41 -39 -44 1 -3 39 -34
85 -70 83 -64 97 -80 72 -80 -7 0 -21 -6 -32 -13 -17 -13 -17 -16 10 -65 23
-43 31 -50 46 -42 35 19 37 9 14 -67 -13 -43 -23 -78 -22 -79 7 -5 103 -34
112 -34 7 0 19 28 29 63 51 184 54 192 86 204 35 13 28 24 75 -114 15 -46 31
-83 36 -83 22 0 109 23 109 28 0 4 -16 56 -36 115 -20 60 -34 109 -33 111 6 4
244 96 250 96 8 0 -18 -271 -27 -279 -5 -5 -61 -28 -124 -51 -63 -23 -119 -46
-124 -50 -7 -7 8 -100 20 -122 2 -3 49 11 105 33 115 45 119 45 119 22 0 -12
-39 -40 -119 -86 -170 -97 -157 -82 -127 -150 l25 -57 95 55 c52 30 97 55 100
55 4 0 6 -19 6 -41 0 -41 0 -41 31 -35 17 3 47 6 65 6 32 0 34 2 34 35 0 19 4
35 10 35 5 0 53 -16 106 -35 53 -19 102 -35 109 -35 11 0 55 97 55 120 0 5
-10 12 -22 16 -13 3 -73 24 -134 46 -105 37 -111 40 -106 64 2 13 6 24 9 24
14 0 174 -43 206 -55 44 -17 38 -26 67 98 25 112 29 307 5 287 -12 -10 -31 2
-112 70 -54 46 -99 86 -101 90 -1 4 49 27 112 51 l116 44 0 63 c0 34 -3 62 -7
62 -5 0 -59 -20 -122 -45 -63 -25 -116 -43 -118 -41 -2 2 3 85 12 185 8 100
15 186 15 192 0 5 50 34 110 64 l110 55 0 70 c0 39 -2 70 -5 70 -3 0 -46 -20
-95 -45 -49 -25 -93 -45 -98 -45 -4 0 -6 17 -4 38 4 38 5 39 103 87 l99 49 0
73 0 73 -90 -45 c-49 -25 -92 -45 -95 -45 -3 0 -2 18 1 40 l7 40 -67 0 -66 0
0 -36 0 -36 -69 61 c-38 34 -70 61 -72 61 -2 -1 -24 -23 -48 -51z m-102 -830
c73 -61 131 -113 129 -114 -7 -7 -214 -87 -228 -88 -9 0 -57 32 -107 73 l-91
75 77 82 c42 45 79 82 82 82 4 1 66 -49 138 -110z m484 -477 c-8 -31 -16 -59
-18 -61 -2 -1 -38 5 -80 15 l-77 18 6 66 c4 36 9 86 12 112 l6 47 83 -69 83
-70 -15 -58z"/>
<path d="M9690 8939 c-63 -71 -117 -129 -121 -129 -3 0 -14 25 -24 55 -11 30
-22 55 -25 55 -6 0 -172 -70 -178 -75 -1 -1 5 -21 13 -45 8 -24 13 -45 11 -47
-2 -2 -59 16 -127 41 -67 26 -128 46 -134 46 -9 0 -79 -190 -72 -195 1 -1 100
-37 219 -81 l217 -78 19 -50 c11 -28 17 -54 13 -57 -3 -4 -82 -26 -176 -50
-93 -23 -172 -44 -174 -46 -6 -5 31 -203 38 -203 3 0 92 22 196 49 105 27 193
46 196 42 10 -10 160 -422 157 -430 -3 -7 -466 63 -475 72 -2 3 -41 106 -85
229 -44 122 -81 224 -82 226 -4 3 -210 -29 -215 -34 -2 -1 27 -87 64 -189 36
-103 64 -189 62 -191 -2 -2 -18 -1 -35 2 -28 6 -41 25 -157 238 -70 127 -129
233 -131 235 -4 4 -204 -60 -204 -65 0 -2 43 -80 95 -175 52 -94 95 -173 95
-176 0 -6 -106 6 -127 14 -11 4 -13 -14 -11 -103 l3 -109 58 -11 c32 -7 61
-14 63 -17 3 -3 -27 -87 -66 -187 -39 -101 -69 -184 -68 -186 11 -11 212 -103
217 -99 4 2 45 101 91 220 l83 216 41 -7 c23 -3 43 -8 45 -9 7 -8 -82 -311
-105 -357 -14 -28 -24 -51 -22 -53 2 -1 83 -29 181 -61 l178 -58 -24 -24 -24
-24 -238 37 c-131 20 -241 33 -245 28 -4 -4 -19 -48 -33 -96 -17 -61 -21 -89
-13 -92 6 -2 81 -13 166 -25 213 -30 201 -23 146 -79 l-47 -48 83 -61 83 -61
41 45 41 45 102 -164 103 -164 94 51 c51 28 94 55 94 60 0 4 -52 91 -115 192
-63 101 -115 188 -115 192 0 9 43 52 52 52 3 0 54 -63 113 -140 63 -81 113
-137 119 -133 6 4 48 31 94 60 l83 53 -63 83 c-36 45 -93 119 -127 164 l-64
82 153 160 c85 89 155 160 156 158 3 -3 184 -497 184 -501 0 -2 -72 -67 -160
-146 -88 -79 -160 -145 -160 -147 0 -7 121 -153 126 -153 3 0 65 54 137 120
l132 119 13 -30 c12 -29 10 -32 -126 -202 -76 -94 -142 -178 -146 -185 -6 -9
10 -30 50 -65 99 -89 79 -95 199 58 59 74 110 135 114 135 4 0 15 -25 25 -55
20 -64 14 -64 134 -9 l72 33 -20 51 c-15 38 -17 52 -7 55 6 2 93 8 192 12
l180 8 3 65 c2 36 1 83 -3 105 l-5 40 -143 -7 c-78 -3 -181 -9 -228 -12 l-85
-6 -13 36 c-7 20 -11 37 -9 39 1 2 81 15 177 29 96 14 175 27 177 28 1 2 -3
48 -9 103 -12 98 -13 100 -37 98 -14 -1 -105 -14 -203 -28 -99 -15 -181 -25
-183 -22 -2 2 -40 100 -83 218 -66 180 -76 214 -62 217 23 4 644 -98 654 -107
5 -5 53 -104 108 -222 55 -117 104 -218 109 -223 8 -8 187 29 202 43 4 4 -26
78 -67 164 -102 217 -99 201 -30 192 32 -4 63 -9 70 -11 7 -3 60 -107 120
-232 59 -125 111 -231 115 -235 6 -7 195 35 206 46 3 2 -31 80 -75 171 -100
208 -101 210 -70 203 13 -3 45 -9 72 -12 l47 -7 0 80 c0 122 -6 142 -44 143
-17 1 -42 4 -55 8 -22 6 -15 14 88 106 l111 100 -85 83 c-47 45 -90 82 -96 82
-5 0 -87 -72 -182 -159 l-173 -159 -65 12 c-55 10 -64 14 -62 31 1 11 14 98
28 193 15 96 25 175 23 177 -9 8 -228 72 -229 67 0 -4 -15 -99 -32 -212 -30
-189 -34 -205 -52 -203 -50 6 -649 104 -652 107 -7 7 419 446 433 446 8 0 108
-21 222 -46 114 -25 211 -47 215 -48 7 -1 48 98 71 170 6 20 -3 23 -169 59
-96 22 -175 42 -175 46 0 3 17 26 38 50 l39 43 229 -48 c126 -27 233 -49 238
-50 7 -1 73 161 75 185 1 3 -81 23 -181 44 -101 21 -185 40 -187 42 -3 2 14
23 37 46 23 24 42 46 42 50 0 4 -34 32 -76 63 l-76 56 -38 -37 c-45 -44 -43
-49 -61 112 -7 62 -15 117 -19 123 -7 11 -198 -15 -211 -29 -4 -3 6 -107 23
-230 l29 -224 -43 -45 -43 -44 -130 136 -130 136 -70 -56 c-84 -67 -86 -69
-80 -52 3 7 -25 43 -63 81 l-69 68 -114 -123 c-63 -68 -119 -125 -123 -128 -5
-3 -18 21 -29 52 l-20 57 119 132 c158 175 184 206 184 216 0 12 -124 133
-135 132 -6 0 -62 -59 -125 -130z m495 -534 l137 -145 -43 -48 c-24 -26 -113
-120 -198 -210 -117 -123 -157 -159 -163 -148 -4 8 -40 101 -78 206 l-70 192
27 34 c49 58 238 262 244 263 4 1 68 -64 144 -144z m-556 -871 c2 -2 -51 -61
-118 -132 l-122 -129 -97 30 c-53 16 -101 33 -105 37 -7 6 45 229 59 251 3 5
374 -50 383 -57z"/>
<path d="M12757 8893 c-2 -5 6 -46 19 -93 l22 -85 1 93 c1 85 -1 92 -18 92
-11 0 -22 -3 -24 -7z"/>
<path d="M7154 8719 c-37 -38 -72 -69 -75 -69 -4 0 -10 14 -14 31 -4 17 -12
28 -18 26 -99 -40 -96 -38 -87 -63 12 -30 8 -30 -68 1 -34 14 -64 25 -67 25
-6 0 -45 -86 -45 -99 0 -4 53 -29 118 -56 64 -26 118 -49 119 -50 2 -1 6 -15
9 -32 l6 -30 -91 -18 c-50 -11 -96 -22 -101 -25 -10 -6 1 -94 13 -106 3 -3 51
4 107 16 55 12 104 19 108 16 7 -7 82 -239 79 -242 -7 -7 -254 50 -263 61 -5
8 -26 66 -45 130 l-34 117 -58 -5 c-32 -3 -60 -7 -62 -9 -3 -2 9 -46 25 -98
36 -114 37 -124 11 -111 -10 6 -47 69 -82 141 -39 80 -67 129 -75 126 -6 -2
-32 -10 -55 -17 -24 -7 -45 -14 -47 -15 -2 -1 20 -47 48 -103 l50 -101 -40 6
-40 7 0 -62 c0 -53 2 -61 19 -61 51 0 51 -7 5 -112 -50 -112 -52 -102 28 -143
l46 -24 53 119 c46 103 56 120 76 120 13 0 23 -6 23 -13 0 -21 -58 -188 -71
-203 -7 -8 -10 -16 -8 -18 2 -1 46 -17 97 -36 89 -31 104 -42 82 -55 -8 -5
-158 18 -257 40 -18 4 -24 -2 -38 -46 -9 -28 -15 -52 -13 -55 3 -2 45 -11 94
-20 49 -9 91 -18 93 -20 3 -2 -6 -15 -19 -29 -26 -28 -30 -22 41 -75 26 -19
26 -19 44 0 10 11 21 20 25 20 3 0 26 -35 50 -77 62 -111 54 -106 111 -78 27
14 49 30 49 36 0 6 -25 56 -56 110 -53 93 -62 129 -32 129 7 0 37 -34 66 -75
29 -41 56 -75 61 -75 4 0 28 13 54 30 l47 29 -66 93 -65 92 88 88 c48 48 88
86 89 85 2 -1 21 -61 44 -132 22 -72 42 -135 44 -141 3 -7 -38 -46 -90 -88
l-94 -77 32 -45 c17 -24 33 -44 35 -44 2 0 36 27 75 60 40 33 75 60 80 60 23
0 0 -41 -69 -122 -43 -49 -80 -94 -82 -99 -3 -10 57 -79 69 -79 3 0 32 32 65
70 33 39 63 70 67 70 5 0 11 -13 15 -30 3 -16 7 -30 8 -30 5 0 99 41 103 44 1
2 -2 15 -7 30 l-11 26 64 0 c35 0 84 3 110 6 l46 7 0 53 0 54 -129 0 c-118 0
-129 2 -134 19 -5 21 6 25 126 37 l67 6 0 60 0 60 -42 -6 c-24 -3 -77 -8 -118
-12 l-76 -6 -37 118 c-20 66 -37 122 -37 125 0 9 358 -65 368 -76 5 -5 30 -64
57 -130 27 -66 49 -121 50 -122 3 -5 115 22 115 27 0 4 -18 50 -39 103 -34 82
-37 97 -23 97 52 -1 60 -10 118 -147 51 -121 59 -134 78 -129 11 3 38 9 59 12
20 4 37 8 37 9 0 1 -20 50 -45 109 l-44 106 39 -6 40 -7 0 62 c0 58 -1 61 -25
61 -14 0 -25 3 -25 8 0 4 26 30 57 59 l58 51 -45 46 c-24 25 -47 46 -50 46 -3
0 -50 -38 -105 -85 -83 -70 -104 -83 -125 -78 -14 3 -29 9 -34 14 -5 4 -1 47
9 101 10 51 18 97 19 102 0 4 -27 19 -61 32 l-62 23 -10 -52 c-6 -29 -17 -81
-24 -117 -8 -36 -18 -64 -23 -64 -54 7 -354 70 -354 74 0 3 54 59 119 124
l119 119 117 -32 c64 -17 122 -31 128 -31 15 0 51 91 40 100 -5 4 -48 17 -96
30 l-88 23 25 26 26 25 117 -28 c65 -16 123 -31 129 -33 10 -4 60 94 52 102
-2 2 -43 13 -93 25 -49 12 -93 24 -98 27 -5 3 2 16 15 30 l23 25 -40 33 c-36
31 -42 33 -61 20 -12 -8 -24 -11 -28 -8 -3 4 -6 35 -6 69 0 35 -4 65 -8 68 -9
5 -109 -8 -116 -15 -3 -2 0 -59 6 -127 10 -122 10 -124 -13 -149 l-24 -24 -71
77 -71 78 -38 -29 -38 -29 -39 45 -38 44 -68 -68 c-37 -37 -70 -67 -74 -67 -4
0 -9 14 -13 31 -7 29 -1 37 83 123 l91 91 -38 42 -38 42 -69 -70z m313 -377
c15 -21 13 -25 -98 -131 -63 -60 -117 -106 -120 -103 -3 4 -21 56 -39 115
l-34 108 80 80 79 80 58 -63 c32 -35 65 -73 74 -86z m-389 -407 c1 -1 -30 -34
-69 -72 l-72 -70 -53 20 c-30 11 -54 25 -54 31 0 10 23 92 34 122 3 8 35 5
108 -9 57 -11 104 -21 106 -22z"/>
<path d="M95 8689 c-8 -34 -11 -35 -50 -9 -17 11 -33 20 -37 20 -5 0 -8 -29
-8 -64 0 -57 3 -65 25 -80 14 -9 25 -26 25 -37 0 -17 -4 -20 -24 -15 l-24 6
-1 -318 c-1 -174 3 -312 7 -305 5 8 39 -17 105 -80 l98 -92 -34 -127 c-25 -92
-31 -130 -23 -137 13 -10 85 -41 96 -41 4 0 18 42 30 93 28 114 32 123 49 104
9 -12 9 -46 -3 -158 -8 -79 -11 -147 -8 -150 6 -5 92 -29 105 -29 3 0 8 30 11
68 4 37 9 86 13 110 l5 43 29 -27 c16 -15 30 -26 32 -23 21 29 57 90 57 96 0
4 -10 17 -22 30 -12 13 -20 24 -17 26 2 2 43 31 91 64 l86 59 -29 50 c-16 27
-30 54 -32 59 -3 6 -53 -23 -112 -64 -84 -57 -112 -72 -124 -64 -9 6 -16 15
-16 21 0 10 124 117 161 138 18 10 16 15 -26 68 -87 111 -83 105 -66 112 11 4
48 -23 114 -85 55 -50 103 -91 107 -91 4 0 25 16 46 35 l38 34 -74 68 c-75 68
-80 82 -27 83 25 0 25 8 -4 78 -12 31 -16 33 -44 27 l-31 -7 2 104 2 103 -29
6 c-16 4 -44 7 -61 8 l-33 1 0 -64 c0 -107 -11 -184 -28 -191 -24 -9 -27 1
-32 98 l-5 92 -63 3 -62 3 6 -114 7 -115 -99 -22 c-54 -12 -110 -24 -123 -27
-18 -5 -23 -2 -19 8 3 8 20 73 38 146 l33 131 81 12 c44 6 98 14 119 17 l37 6
0 55 0 55 -52 -7 c-29 -3 -77 -9 -107 -13 -52 -6 -53 -6 -42 15 7 12 17 22 23
22 18 0 212 62 222 71 12 11 -14 99 -29 99 -12 0 -126 -33 -163 -47 -12 -5
-14 0 -8 30 5 27 3 37 -6 37 -7 1 -32 5 -55 9 -41 8 -42 7 -48 -20z m256 -722
c46 -59 47 -57 -11 -108 l-54 -48 -78 71 c-43 39 -76 73 -73 77 8 7 141 39
170 40 11 1 31 -13 46 -32z"/>
<path d="M1887 8614 c-26 -52 -47 -98 -47 -102 0 -4 92 -45 205 -92 l205 -85
0 -37 c0 -20 -4 -39 -8 -42 -4 -2 -80 18 -167 45 -88 27 -164 49 -170 49 -13
0 -88 -191 -78 -201 4 -4 91 -32 191 -62 101 -31 186 -58 189 -60 4 -5 -56
-429 -62 -435 -2 -2 -101 65 -222 148 -185 128 -217 154 -215 173 4 25 80 364
88 388 3 12 -16 22 -91 44 -53 15 -97 26 -100 24 -2 -3 -20 -79 -40 -169 -21
-91 -40 -169 -44 -173 -4 -4 -18 0 -30 10 l-21 18 12 230 c15 267 26 243 -105
247 l-82 3 -8 -170 c-5 -93 -11 -172 -13 -174 -2 -2 -26 13 -53 33 l-51 36
-23 -38 c-38 -59 -77 -128 -77 -134 0 -3 18 -18 40 -33 22 -15 40 -31 40 -35
0 -3 -65 -58 -145 -120 -80 -62 -145 -117 -145 -122 0 -13 111 -158 121 -158
5 0 86 61 180 135 94 74 177 135 183 135 6 0 22 -9 36 -20 l25 -20 -127 -121
c-71 -66 -128 -125 -128 -131 0 -12 121 -148 132 -148 5 0 74 63 155 140 l146
139 156 -106 c86 -59 173 -119 193 -133 21 -14 37 -27 37 -30 1 -3 -136 -72
-303 -154 l-304 -148 -219 123 c-120 68 -221 124 -224 124 -6 0 -139 -151
-139 -159 0 -2 76 -48 170 -102 93 -53 170 -98 170 -100 0 -2 -27 -18 -61 -35
l-61 -30 -221 123 c-121 68 -226 124 -233 126 -10 3 -144 -144 -144 -158 0 -3
55 -35 123 -73 67 -37 149 -83 182 -102 l60 -34 -69 -30 -68 -31 24 -33 c14
-17 42 -56 63 -84 22 -29 43 -53 48 -53 4 0 26 9 48 21 23 11 43 18 46 15 3
-3 -8 -67 -25 -143 -16 -76 -29 -139 -28 -140 4 -4 237 -36 240 -32 3 3 28
107 55 233 28 126 52 230 53 231 19 16 112 55 118 48 4 -4 45 -80 90 -168 45
-88 83 -163 86 -166 4 -6 211 57 224 68 2 2 -38 90 -90 195 -52 105 -90 193
-85 195 6 2 142 68 304 148 162 80 296 143 298 141 3 -2 -15 -140 -39 -307
l-43 -302 -208 -88 c-115 -48 -211 -90 -215 -94 -5 -5 35 -182 43 -193 2 -2
157 61 332 135 10 4 11 -7 6 -43 -3 -27 -9 -58 -13 -68 -4 -13 -74 -48 -221
-111 -245 -106 -229 -87 -187 -221 l23 -72 170 74 c94 41 173 74 176 74 4 0 3
-19 -2 -42 -18 -92 -22 -88 90 -88 108 0 111 1 111 73 0 15 2 27 4 27 4 0 44
-42 157 -163 l44 -48 79 79 78 79 -156 169 -156 169 6 60 c3 33 7 61 9 63 1 1
85 -14 186 -33 101 -19 184 -35 185 -35 1 0 11 38 24 85 18 68 26 84 39 81 35
-11 184 -36 188 -32 2 2 14 80 25 172 12 93 23 171 24 172 2 3 63 -35 102 -63
1 -1 -9 -98 -23 -214 -14 -117 -25 -220 -25 -231 0 -19 37 -31 146 -45 l50 -7
18 158 c10 88 20 169 23 181 l5 23 42 -29 c22 -15 46 -31 52 -34 7 -4 31 26
62 78 l51 85 -40 29 c-22 16 -36 32 -32 34 4 3 64 20 131 37 68 18 126 39 129
46 4 10 -42 181 -51 191 -1 1 -101 -25 -221 -57 -121 -33 -223 -60 -227 -60
-4 0 -28 14 -52 32 l-45 31 39 46 c21 25 75 89 119 141 44 52 81 98 81 102 0
3 -34 37 -75 74 -66 58 -77 65 -88 51 -7 -8 -66 -78 -131 -155 l-119 -140
-101 70 c-56 39 -143 98 -193 132 -51 33 -93 64 -93 67 0 7 419 212 434 212 6
0 98 -61 205 -136 l194 -136 79 71 c43 39 78 74 78 79 0 4 -72 58 -160 119
-88 61 -160 115 -160 120 0 4 13 13 28 19 26 11 46 3 266 -104 131 -63 241
-115 245 -115 8 1 121 155 121 166 0 5 -79 47 -175 93 -96 46 -175 87 -175 90
0 4 27 20 61 37 l60 29 -66 88 -66 87 -58 -29 -58 -30 -48 192 c-27 106 -49
194 -51 196 -3 3 -194 -26 -225 -35 -14 -4 -9 -34 41 -235 l58 -230 -41 -19
c-22 -11 -41 -19 -42 -17 -13 19 -109 302 -117 346 -6 34 -15 61 -19 61 -7 0
-210 -62 -306 -95 l-43 -14 0 32 c0 32 2 33 220 142 121 60 220 112 220 115 0
3 -14 46 -31 97 l-32 92 -169 -85 -169 -85 6 48 c4 26 9 55 11 64 5 19 -38 29
-134 29 -69 0 -67 2 -77 -72 l-6 -47 -47 19 c-26 10 -106 43 -178 73 l-131 55
-46 -94z m781 -662 c23 -64 42 -120 42 -124 0 -9 -340 -181 -345 -176 -4 3 45
351 48 354 4 3 193 62 202 63 6 0 29 -52 53 -117z m-183 -843 c96 -66 176
-123 179 -127 3 -6 -43 -394 -48 -398 -7 -7 -390 74 -393 83 -2 6 12 123 32
260 39 269 44 303 51 303 2 0 82 -54 179 -121z"/>
<path d="M4884 8479 c-19 -39 -33 -74 -30 -77 3 -3 70 -33 148 -67 144 -62
163 -77 140 -113 -7 -10 -17 -9 -52 3 -23 8 -78 26 -121 39 l-77 24 -26 -70
c-14 -38 -26 -73 -26 -78 0 -5 60 -28 133 -51 72 -22 135 -44 139 -47 3 -4 -4
-77 -16 -162 -16 -115 -25 -154 -35 -152 -7 1 -80 51 -162 109 -106 76 -148
111 -144 122 5 19 65 289 65 296 0 10 -134 45 -140 36 -3 -6 -17 -64 -30 -131
-13 -66 -27 -120 -30 -120 -29 1 -32 20 -29 196 l4 179 -64 8 c-35 4 -66 6
-68 3 -2 -2 -7 -61 -10 -130 -3 -69 -8 -126 -11 -126 -2 0 -20 10 -39 21 -39
24 -39 24 -79 -49 l-29 -54 32 -25 33 -25 -110 -90 -109 -90 41 -59 c23 -32
46 -59 51 -59 4 0 63 45 130 100 67 55 127 100 133 100 6 0 17 -7 24 -16 12
-13 0 -28 -80 -109 l-94 -94 44 -48 c24 -26 47 -52 52 -58 5 -6 51 33 116 98
l108 108 134 -96 c74 -53 136 -99 138 -103 1 -4 -96 -58 -215 -119 l-218 -111
-155 93 c-85 52 -158 93 -162 92 -9 -2 -98 -109 -98 -117 0 -3 54 -37 120 -75
65 -39 119 -72 120 -75 0 -3 -19 -16 -42 -28 l-43 -24 -165 97 -165 96 -33
-38 c-19 -21 -42 -49 -52 -63 l-18 -26 91 -52 c51 -28 110 -62 131 -76 l40
-24 -48 -24 -47 -24 42 -59 c23 -33 44 -62 46 -64 2 -3 20 3 39 13 20 9 38 16
39 14 2 -2 -6 -49 -18 -105 -12 -56 -19 -104 -16 -107 3 -3 40 -11 83 -17 57
-9 80 -9 85 -1 4 7 22 85 41 176 l34 164 43 21 44 21 58 -119 c32 -65 61 -125
63 -131 3 -10 25 -6 86 14 45 15 82 30 82 34 0 3 -30 68 -67 144 -36 76 -64
140 -62 142 7 6 439 222 439 219 0 -12 -61 -441 -64 -449 -2 -6 -70 -39 -150
-74 -81 -34 -149 -67 -152 -72 -9 -14 27 -138 40 -138 6 0 61 22 121 49 61 27
111 47 113 46 2 -2 0 -23 -3 -48 l-7 -45 -152 -67 c-83 -37 -154 -70 -158 -74
-6 -5 10 -89 27 -138 3 -8 44 6 124 42 66 30 123 55 127 55 4 0 4 -23 0 -50
l-7 -51 73 3 c69 3 73 4 76 28 6 53 12 51 78 -24 36 -42 69 -76 73 -76 4 0 31
25 61 55 50 50 53 56 38 72 -224 254 -219 247 -202 309 l6 21 111 -23 c159
-33 151 -35 171 36 9 33 18 60 19 60 1 0 33 -7 72 -15 38 -8 71 -13 72 -11 3
3 33 222 33 243 0 20 12 16 47 -14 l32 -28 -19 -165 c-11 -90 -16 -167 -12
-171 13 -12 127 -27 133 -18 3 5 11 64 18 132 7 67 14 124 17 126 2 2 19 -8
38 -22 38 -30 37 -31 81 49 l29 52 -28 24 -28 24 100 28 100 28 -20 71 c-11
40 -22 74 -23 75 -2 2 -76 -17 -165 -42 l-161 -46 -34 26 -34 26 85 101 c46
56 83 108 82 116 -2 7 -26 33 -53 57 l-51 43 -93 -114 c-61 -74 -98 -112 -106
-107 -34 20 -265 188 -265 192 0 12 311 160 323 153 6 -4 69 -49 140 -100 70
-51 131 -93 135 -93 17 0 117 111 106 118 -44 29 -215 156 -219 162 -3 5 3 14
14 20 17 9 49 -4 191 -75 93 -47 173 -85 178 -85 8 0 95 121 90 125 -2 2 -61
32 -133 68 l-129 64 44 23 c25 12 46 24 48 25 7 6 -84 124 -96 124 -8 1 -27
-7 -43 -16 -15 -9 -31 -14 -34 -11 -3 3 -19 63 -36 134 -17 71 -35 133 -40
138 -9 11 -169 -13 -169 -25 0 -9 67 -292 76 -321 3 -12 -4 -22 -25 -32 l-30
-16 -19 53 c-33 88 -72 217 -72 238 0 10 -1 19 -3 19 -2 0 -57 -18 -122 -40
-65 -22 -123 -40 -128 -40 -4 0 -7 10 -5 23 2 17 35 39 155 102 84 44 154 83
157 86 3 3 -4 30 -15 60 -11 30 -22 60 -24 67 -3 9 -38 -4 -117 -45 -62 -32
-116 -60 -121 -61 -4 -2 -5 19 -1 47 l7 52 -74 -3 -74 -3 -3 -30 c-5 -57 -6
-57 -114 -9 -163 73 -143 74 -184 -7z m564 -496 c18 -48 29 -90 24 -94 -4 -3
-60 -34 -126 -69 l-119 -63 7 64 c4 35 13 96 19 134 l12 70 60 22 c33 12 67
22 76 22 11 1 25 -25 47 -86z m-125 -631 c64 -46 119 -87 121 -91 4 -7 -30
-291 -36 -295 -4 -3 -278 50 -282 55 -2 2 9 92 25 199 15 107 28 203 28 213 1
22 -7 26 144 -81z"/>
<path d="M0 7567 l0 -62 49 -18 c27 -9 53 -17 59 -17 5 0 19 23 30 50 l21 51
-22 8 c-12 4 -48 18 -79 29 l-58 22 0 -63z"/>
<path d="M0 7280 c0 -53 7 -61 33 -32 15 16 14 20 -5 50 -11 17 -22 32 -24 32
-2 0 -4 -22 -4 -50z"/>
<path d="M12077 7073 c-2 -4 -19 -70 -37 -146 l-34 -138 -38 38 c-37 36 -39
37 -52 18 -8 -11 -28 -37 -45 -59 -17 -21 -31 -42 -31 -47 0 -4 11 -21 25 -37
l24 -29 -106 -7 c-59 -4 -109 -9 -111 -11 -4 -4 16 -166 21 -172 2 -1 82 4
178 11 l174 15 35 -35 35 -35 -45 -42 c-25 -23 -74 -68 -109 -99 l-64 -57 37
-53 c72 -103 53 -102 158 -8 51 46 104 94 119 107 l25 23 165 -176 c90 -97
165 -180 167 -183 1 -4 -87 -20 -195 -35 -109 -16 -212 -31 -228 -33 -29 -5
-37 3 -139 126 l-109 131 -36 -22 c-20 -12 -47 -29 -61 -37 -14 -8 -27 -16
-28 -17 -2 -2 33 -48 79 -103 45 -56 80 -103 78 -105 -2 -2 -23 -7 -45 -11
l-41 -6 -112 130 c-61 72 -115 131 -119 131 -10 0 -122 -70 -122 -76 0 -3 38
-50 85 -104 47 -54 85 -101 85 -103 0 -3 -20 -8 -45 -11 -25 -4 -45 -12 -45
-17 0 -5 8 -37 17 -70 l17 -61 38 6 c21 3 38 4 38 1 0 -2 -25 -42 -55 -89
l-54 -85 65 -36 c36 -20 71 -35 78 -32 6 3 50 65 96 138 46 74 84 135 85 136
1 2 22 6 47 9 l45 6 13 -136 12 -136 63 0 c71 0 75 -4 75 -91 0 -25 2 -48 5
-51 3 -3 54 3 113 13 59 11 117 19 130 19 22 0 22 -1 7 -37 -9 -20 -18 -39
-20 -41 -2 -3 -64 -15 -137 -28 -73 -13 -148 -26 -165 -29 -36 -7 -39 -18 -27
-107 l6 -45 131 24 c72 12 132 21 134 19 2 -1 -3 -21 -11 -44 l-14 -40 70 -17
c59 -15 72 -16 79 -4 5 8 9 19 9 26 0 34 23 14 70 -63 29 -47 55 -84 59 -82
32 15 121 75 121 82 0 5 -39 71 -86 147 -85 137 -85 139 -73 174 7 19 18 35
25 35 6 0 57 -20 113 -45 56 -25 104 -45 106 -45 3 0 5 37 5 83 l0 82 -83 34
c-45 19 -86 37 -90 41 -4 4 18 80 49 170 l58 163 33 -39 33 -39 -3 434 -2 433
-85 49 c-47 27 -89 49 -95 49 -11 0 -90 -118 -84 -125 3 -2 58 -34 124 -70 66
-37 123 -70 128 -74 4 -4 -18 -80 -49 -170 l-57 -162 -22 23 c-12 13 -89 94
-170 181 l-149 159 46 180 47 179 -66 30 c-36 16 -69 29 -73 29 -9 0 -26 -53
-61 -194 l-22 -90 -34 39 c-18 21 -33 45 -33 54 0 9 20 93 44 188 l43 172 -61
26 c-86 38 -83 37 -89 28z m503 -1276 c0 -11 -102 -293 -108 -299 -8 -8 -237
-48 -273 -48 -24 0 -25 2 -37 141 -7 78 -11 143 -10 144 2 2 385 60 421 64 4
1 7 -1 7 -2z"/>
<path d="M17 6959 c-13 -8 -17 -24 -17 -78 0 -63 3 -71 41 -125 39 -54 40 -59
25 -74 -16 -16 -19 -15 -42 13 l-24 30 0 -145 0 -145 31 31 31 31 58 -14 57
-15 -14 -66 c-7 -36 -16 -68 -18 -71 -7 -6 -103 -2 -128 5 -15 5 -17 -2 -17
-55 0 -60 0 -60 33 -65 17 -3 50 -7 72 -8 l39 -3 52 -120 c28 -65 57 -121 63
-123 6 -2 34 2 62 8 36 9 49 16 45 26 -3 8 -22 53 -42 100 -20 46 -34 87 -31
91 15 14 39 -13 108 -122 41 -65 79 -119 85 -122 6 -2 32 5 58 16 54 24 55 15
-21 134 -24 37 -43 69 -43 72 0 3 16 5 35 5 l36 0 -3 58 c-3 56 -3 57 -35 60
-21 2 -33 9 -33 18 0 8 13 55 30 106 16 51 28 93 26 95 -1 2 -29 14 -62 27
l-59 25 -40 -125 c-38 -117 -41 -124 -66 -124 l-26 0 18 90 c10 50 23 99 29
110 5 10 10 23 10 28 0 6 -43 20 -95 33 -54 13 -94 28 -92 34 4 11 94 13 212
5 l70 -5 12 50 c9 34 9 51 2 56 -6 3 -49 9 -96 12 -47 3 -88 9 -91 12 -3 3 5
16 17 29 l23 25 -48 30 -49 30 -21 -26 -21 -26 -57 81 c-31 45 -60 83 -64 86
-4 2 -15 0 -25 -5z"/>
<path d="M12633 6853 c-23 -31 -40 -60 -37 -64 5 -9 193 -139 200 -139 2 0 4
42 4 93 l0 92 -58 38 c-32 20 -60 37 -63 37 -2 -1 -23 -26 -46 -57z"/>
<path d="M7145 6560 c-50 -56 -104 -117 -121 -137 l-32 -36 -22 61 c-13 34
-24 62 -25 62 -2 0 -34 -14 -72 -31 -37 -17 -78 -35 -91 -40 -22 -8 -22 -9 -6
-49 9 -23 14 -43 11 -47 -4 -3 -63 15 -132 41 -70 25 -128 46 -130 46 -7 0
-67 -192 -61 -197 3 -3 101 -40 217 -83 l212 -77 19 -52 c11 -29 18 -54 16
-56 -2 -2 -78 -22 -170 -46 -91 -23 -172 -45 -178 -49 -9 -5 -7 -31 8 -99 11
-51 23 -95 26 -98 3 -3 91 16 195 43 105 26 193 45 196 42 11 -11 163 -433
156 -435 -3 -1 -112 15 -241 35 l-235 38 -80 222 c-44 121 -83 224 -87 228 -9
8 -206 -15 -212 -25 -2 -3 27 -91 64 -195 l68 -188 -35 5 c-20 4 -37 7 -38 9
-2 2 -60 106 -129 232 -69 126 -127 231 -129 232 -6 7 -197 -61 -197 -69 0 -8
73 -146 163 -306 l31 -54 -25 6 c-13 3 -48 9 -77 13 l-53 7 7 -104 c4 -57 8
-106 10 -108 2 -2 30 -9 62 -15 l60 -11 -73 -185 -72 -185 110 -55 c60 -30
112 -50 114 -45 2 6 41 104 87 220 l82 210 40 -4 c21 -1 42 -5 45 -7 9 -5 -76
-304 -102 -357 -14 -29 -19 -50 -13 -56 5 -5 83 -32 174 -61 91 -29 167 -54
169 -56 9 -9 -34 -44 -53 -44 -12 0 -122 15 -246 34 -124 19 -226 33 -228 32
-4 -5 -52 -170 -52 -182 0 -6 73 -22 177 -37 97 -15 179 -29 181 -32 3 -3 -14
-25 -38 -50 -24 -25 -41 -47 -37 -51 3 -3 39 -30 79 -59 l73 -54 42 42 c24 22
44 39 47 36 2 -2 48 -74 101 -159 53 -85 98 -156 100 -158 1 -2 182 94 193
103 1 1 -52 89 -118 195 l-121 193 29 30 29 29 103 -134 c57 -73 107 -137 111
-142 7 -8 189 102 189 114 0 3 -56 77 -124 165 l-124 159 118 126 c65 69 134
140 154 159 l35 34 10 -24 c35 -82 171 -465 169 -475 -2 -6 -72 -74 -155 -149
-84 -75 -153 -141 -153 -146 0 -5 26 -43 59 -84 l58 -74 134 119 c73 66 136
120 140 120 11 0 20 -49 12 -63 -4 -7 -69 -90 -146 -186 -76 -95 -135 -177
-130 -181 62 -57 137 -120 142 -120 3 0 53 60 111 134 58 74 108 135 112 135
4 1 15 -24 24 -54 10 -30 22 -55 27 -55 16 0 177 72 177 80 0 4 -7 24 -15 43
-8 20 -15 41 -15 46 0 13 54 19 233 27 l147 6 0 106 0 105 -132 -7 c-73 -3
-177 -9 -230 -13 l-98 -6 -14 34 c-8 19 -12 37 -8 40 4 3 81 16 172 29 91 12
169 26 173 30 8 7 -9 189 -18 199 -3 2 -95 -9 -205 -24 -110 -16 -201 -27
-204 -24 -9 10 -163 439 -157 439 34 1 659 -105 668 -114 6 -6 57 -110 113
-231 56 -121 102 -221 104 -222 5 -5 206 50 206 57 0 4 -36 85 -80 179 -44 95
-80 174 -80 177 0 6 98 -6 122 -15 11 -4 62 -98 128 -236 61 -126 113 -231
116 -234 8 -9 204 44 204 55 0 6 -39 91 -86 188 -47 98 -84 179 -82 181 2 2
23 -1 48 -5 95 -19 90 -24 90 95 l0 104 -37 6 c-85 15 -86 10 31 119 l108 101
-86 83 c-48 46 -91 82 -96 80 -4 -2 -86 -74 -180 -161 -190 -173 -165 -161
-272 -141 -34 7 -34 0 -3 197 14 87 25 169 25 181 0 19 -13 26 -111 55 -61 18
-112 31 -114 29 -1 -1 -17 -95 -34 -208 -18 -112 -33 -205 -35 -207 -2 -2
-129 17 -282 42 -153 25 -297 47 -319 51 -22 3 -48 8 -58 10 -14 4 27 52 179
212 109 114 205 215 215 226 17 18 22 17 231 -28 117 -26 220 -49 228 -52 12
-3 24 19 48 84 18 48 32 92 32 97 0 6 -77 27 -172 48 -95 21 -174 40 -177 43
-3 2 15 25 40 49 l44 45 234 -50 c129 -27 236 -49 237 -47 5 5 64 172 64 181
0 6 -62 24 -137 39 -76 16 -160 33 -187 39 l-48 10 48 49 c26 27 46 50 43 52
-2 2 -40 30 -83 62 l-80 58 -34 -37 c-18 -21 -35 -36 -38 -34 -2 2 -11 66 -20
142 -17 130 -19 137 -38 132 -12 -2 -55 -10 -97 -16 -42 -7 -82 -16 -89 -20
-10 -6 -7 -57 15 -234 l29 -227 -43 -42 -42 -42 -128 134 c-94 100 -131 132
-142 126 -8 -5 -42 -30 -76 -57 -53 -42 -62 -46 -67 -31 -3 10 -34 46 -68 80
l-63 61 -119 -130 -120 -131 -18 44 c-11 24 -20 51 -21 60 -1 10 63 91 152
189 l154 172 -69 69 c-38 38 -71 69 -74 69 -3 0 -46 -45 -95 -100z m463 -568
l140 -147 -194 -205 c-107 -113 -198 -206 -203 -208 -4 -1 -20 30 -34 70 -14
40 -48 133 -76 206 l-49 133 136 149 c75 83 138 150 138 150 1 0 65 -66 142
-148z m-749 -838 c91 -14 172 -28 179 -30 19 -6 9 -19 -115 -148 l-112 -116
-98 31 c-54 17 -101 33 -105 35 -5 3 38 185 57 242 6 16 3 16 194 -14z"/>
<path d="M3631 6194 c-57 -80 -107 -142 -111 -137 -4 4 -15 32 -24 60 l-17 52
-90 -44 c-49 -25 -89 -50 -89 -55 0 -6 7 -27 15 -47 8 -19 15 -41 15 -48 0 -8
-44 -16 -147 -24 -82 -7 -167 -15 -191 -18 l-42 -6 6 -106 c4 -58 8 -107 9
-109 4 -4 362 26 413 34 30 5 34 2 48 -32 8 -20 13 -38 11 -41 -3 -2 -78 -18
-168 -35 -90 -17 -168 -35 -173 -39 -8 -7 8 -207 17 -215 1 -1 92 15 202 36
110 21 200 38 201 37 9 -14 145 -409 141 -413 -8 -8 -521 56 -527 67 -4 5 -31
100 -60 209 -29 110 -56 200 -59 200 -21 0 -177 -34 -184 -40 -6 -6 39 -194
79 -333 5 -16 1 -18 -26 -15 -31 3 -34 8 -128 213 -52 116 -97 212 -98 214 -4
5 -174 -61 -180 -70 -3 -5 27 -79 67 -164 39 -86 69 -158 67 -159 -1 -2 -29 0
-61 3 -32 4 -60 5 -62 2 -2 -4 -5 -49 -6 -101 l-3 -95 34 -3 c86 -6 86 8 -2
-189 -43 -98 -74 -179 -69 -181 5 -2 46 -21 92 -43 45 -22 86 -36 90 -32 4 4
48 98 96 208 l89 200 34 -3 c19 -2 37 -6 39 -8 3 -3 -69 -229 -106 -330 -4
-10 90 -52 174 -78 20 -6 25 5 83 181 35 103 66 192 70 196 6 7 458 -40 468
-48 2 -1 -88 -127 -199 -279 l-202 -277 -101 5 c-56 3 -169 8 -253 12 l-152 5
-6 -23 c-31 -127 -43 -184 -39 -190 3 -5 76 -8 162 -9 86 0 174 -3 195 -7 l38
-7 -38 -54 -39 -53 -229 2 c-127 2 -246 3 -265 4 l-35 1 -17 -70 c-9 -38 -20
-87 -23 -107 l-7 -38 169 -1 c92 0 185 -3 206 -7 l38 -7 -40 -56 -39 -55 94
-47 c52 -26 96 -47 97 -47 2 0 19 21 37 46 23 33 35 42 40 33 4 -8 22 -71 41
-141 18 -71 37 -128 42 -128 13 0 211 71 219 78 4 4 -22 110 -57 236 l-64 228
40 54 39 54 160 -115 c88 -63 162 -115 164 -115 2 0 40 40 84 88 l81 89 -174
123 c-107 77 -171 128 -166 135 5 5 82 111 171 235 90 124 178 244 196 267
l32 43 101 -286 c55 -157 101 -290 101 -297 0 -7 -66 -92 -146 -190 l-146
-178 71 -74 71 -73 113 138 c61 77 115 139 118 140 12 0 49 -113 41 -124 -5
-6 -73 -91 -151 -189 l-142 -177 67 -75 c37 -41 69 -75 70 -75 2 0 56 65 120
145 64 80 119 145 123 145 5 0 16 -27 26 -59 l18 -60 88 45 c49 24 89 48 89
53 0 5 -7 27 -15 50 -8 22 -11 41 -7 41 4 0 66 -20 136 -45 71 -25 130 -44
131 -43 2 5 57 192 59 202 0 4 -96 43 -214 86 l-215 77 -22 57 c-15 41 -18 58
-10 61 7 2 86 27 176 54 90 28 166 52 168 55 3 2 -2 39 -11 81 -9 43 -16 80
-16 84 0 4 37 18 83 31 129 36 124 17 56 196 -32 86 -59 160 -59 165 0 8 108
2 118 -6 2 -2 39 -97 83 -211 44 -115 82 -211 85 -215 3 -5 180 46 191 55 1 1
-27 78 -63 170 -36 92 -64 170 -62 171 2 2 29 0 61 -4 32 -4 59 -5 61 -2 2 3
5 49 7 101 l4 95 -35 3 c-68 6 -67 9 41 111 l104 99 -70 71 c-38 39 -73 71
-77 71 -5 0 -83 -70 -175 -156 -162 -153 -167 -156 -202 -150 -20 3 -44 6 -53
6 -24 0 -23 11 19 197 23 101 33 167 27 172 -12 12 -182 57 -188 50 -3 -3 -25
-92 -48 -198 l-43 -193 -45 6 c-25 3 -130 15 -233 27 -140 17 -187 25 -183 35
7 17 265 372 276 379 5 3 116 -8 246 -25 131 -16 239 -29 240 -27 9 12 65 200
60 204 -6 6 -336 52 -379 53 -17 0 -17 1 -1 29 15 26 23 29 92 35 41 3 110 6
152 6 42 0 131 3 198 6 l120 7 11 61 c5 34 13 81 16 105 l7 44 -206 -7 -207
-7 42 61 c24 33 41 61 38 64 -10 9 -190 89 -192 85 -2 -2 -19 -25 -37 -52
l-34 -47 -20 20 c-12 11 -70 76 -131 144 -60 69 -114 125 -119 125 -5 1 -52
-31 -104 -70 l-94 -71 24 -26 c172 -190 288 -322 288 -327 0 -3 -11 -22 -24
-41 l-23 -35 -110 100 c-60 55 -131 123 -157 153 l-46 53 -131 -134 c-71 -73
-132 -131 -134 -129 -3 2 -7 18 -11 34 -5 25 12 53 136 226 l141 198 -67 62
c-36 35 -72 64 -78 65 -6 2 -58 -63 -115 -143z m419 -685 c0 -10 -208 -296
-220 -304 -8 -5 -24 37 -96 242 l-29 83 79 79 79 80 94 -86 c51 -47 93 -90 93
-94z m170 -739 c102 -12 186 -23 187 -23 4 -5 133 -351 135 -365 2 -12 -41
-29 -187 -73 -104 -32 -193 -55 -196 -51 -8 9 -189 520 -189 533 0 7 12 9 33
6 17 -4 115 -16 217 -27z"/>
<path d="M78 6022 l-78 -26 0 -173 c0 -141 3 -180 16 -206 9 -18 18 -34 20
-36 2 -2 24 7 49 20 41 21 45 27 40 51 l-6 27 68 -20 c37 -10 71 -19 75 -19 6
0 38 91 38 106 0 3 -62 22 -191 59 -43 12 -59 22 -68 42 -7 14 -8 29 -4 33 4
4 46 20 93 35 47 15 87 29 89 31 2 2 -2 26 -9 53 -14 60 -17 61 -132 23z"/>
<path d="M10334 5924 l-58 -67 127 -123 c125 -122 127 -124 127 -168 0 -25 -4
-47 -8 -50 -4 -2 -59 2 -122 10 -180 22 -164 28 -188 -68 -12 -45 -20 -83 -19
-84 1 -1 72 -10 157 -19 85 -9 156 -18 157 -19 3 -3 -36 -418 -43 -463 l-5
-32 -172 146 c-95 80 -173 152 -175 159 -3 12 30 250 43 310 4 17 -5 23 -63
42 -38 12 -71 22 -74 22 -3 0 -14 -53 -23 -117 -10 -65 -21 -123 -24 -130 -4
-7 -18 -1 -40 18 l-35 29 22 157 c13 87 22 166 22 175 0 12 -19 23 -67 37 -37
11 -69 19 -71 17 -2 -2 -12 -61 -22 -131 -10 -70 -20 -129 -22 -131 -2 -2 -20
10 -40 26 l-36 29 -36 -54 c-20 -30 -36 -58 -36 -62 0 -4 11 -19 25 -33 l26
-27 -93 -13 c-51 -7 -98 -14 -104 -17 -8 -3 -5 -27 9 -81 11 -42 20 -78 21
-78 1 -1 75 11 166 25 l165 27 33 -24 c17 -13 32 -29 32 -35 0 -5 -41 -51 -91
-103 l-91 -92 46 -49 45 -49 -49 -49 c-28 -27 -50 -54 -50 -60 1 -5 43 -44 95
-85 52 -41 94 -78 95 -82 0 -12 -71 -39 -84 -31 -6 4 -65 51 -132 105 -66 54
-126 98 -131 98 -17 0 -97 -100 -87 -109 5 -5 50 -41 99 -81 50 -40 91 -76 93
-80 2 -4 -16 -15 -38 -24 l-41 -16 32 -58 c42 -75 43 -76 68 -62 12 6 26 10
30 8 5 -2 -4 -46 -20 -98 -15 -52 -27 -95 -26 -96 9 -8 142 -42 146 -38 3 3
27 76 52 161 44 150 47 156 79 169 18 8 36 14 41 14 4 0 27 -59 50 -131 25
-78 46 -128 53 -126 6 3 38 10 71 17 33 8 62 15 64 16 1 2 -18 66 -44 144 -26
78 -45 142 -44 144 10 8 313 125 316 123 1 -2 -5 -81 -15 -176 l-17 -173 -159
-64 c-87 -35 -161 -65 -163 -68 -6 -6 17 -131 27 -146 5 -7 51 6 134 39 69 28
131 51 137 51 6 0 9 -10 7 -22 -3 -20 -64 -61 -326 -217 -11 -6 -8 -21 13 -72
15 -35 30 -67 34 -71 3 -4 59 24 123 62 64 39 120 70 125 70 4 0 6 -22 5 -50
l-4 -49 69 5 c93 8 93 8 93 54 0 28 4 40 14 40 8 0 72 -20 142 -44 71 -25 129
-44 131 -43 7 8 63 141 63 152 0 8 -62 34 -162 68 -160 53 -163 55 -161 82 1
15 4 30 7 32 7 7 192 -36 250 -58 28 -10 52 -17 54 -15 2 3 17 58 34 123 16
65 33 122 37 126 4 4 14 1 21 -8 11 -14 12 -43 2 -168 -18 -225 -23 -202 56
-220 37 -8 69 -14 71 -12 2 2 8 63 15 135 l11 130 38 -31 c21 -17 39 -30 41
-28 2 2 19 29 39 59 l37 54 -31 32 -30 31 63 44 c35 24 83 57 106 73 24 16 45
33 48 38 3 5 -13 38 -36 74 l-43 65 -26 -17 c-14 -10 -77 -51 -139 -93 l-113
-75 -21 22 c-12 12 -20 23 -17 25 82 63 189 162 185 173 -10 26 -80 114 -91
114 -5 -1 -57 -41 -115 -90 -58 -50 -107 -90 -111 -90 -6 0 -243 200 -246 209
-2 3 79 39 178 79 l181 73 109 -108 c61 -59 114 -109 119 -111 5 -2 32 16 60
40 l50 43 -96 96 c-89 89 -95 98 -77 108 18 9 40 -4 161 -89 77 -55 144 -100
148 -100 5 0 28 24 51 53 l42 54 -105 73 c-57 41 -104 77 -104 81 0 4 16 13
35 19 19 6 35 16 35 21 0 5 -14 36 -30 69 l-30 60 -37 -15 c-20 -8 -37 -14
-39 -12 -4 3 -34 243 -34 266 0 11 -14 13 -76 8 -42 -3 -77 -7 -79 -9 -1 -2 6
-76 17 -166 11 -90 18 -165 16 -167 -2 -3 -15 -6 -27 -7 -22 -3 -25 4 -51 119
-14 68 -28 125 -31 127 -2 2 -37 -1 -77 -7 -67 -9 -73 -12 -68 -31 23 -100 58
-277 55 -279 -11 -9 -311 -128 -314 -125 -5 4 42 488 47 493 1 1 76 39 165 84
156 78 162 82 153 105 -4 13 -13 41 -19 62 -20 73 -17 73 -155 0 l-127 -66 3
52 3 53 160 83 c88 45 164 87 169 92 9 9 -30 150 -41 150 -3 0 -62 -29 -132
-65 -71 -36 -130 -65 -132 -65 -2 0 -2 22 -1 50 l4 50 -35 0 c-19 0 -55 -3
-81 -6 -46 -7 -46 -7 -46 -45 0 -35 -13 -53 -22 -31 -1 5 -35 38 -74 75 l-72
67 -58 -66z m-134 -1054 c80 -67 146 -125 147 -129 2 -3 -64 -33 -146 -65
l-150 -59 -53 44 c-29 24 -81 67 -116 96 l-63 53 102 105 c89 92 104 103 118
92 9 -8 81 -69 161 -137z m500 -425 l99 -85 -21 -72 c-11 -40 -22 -75 -24 -77
-2 -2 -44 7 -95 19 l-92 23 7 91 c8 116 17 186 23 186 3 0 50 -38 103 -85z"/>
<path d="M1164 5549 l-57 -81 -15 28 c-8 16 -16 31 -18 32 -1 2 -23 -8 -49
-23 -30 -18 -44 -32 -41 -41 3 -8 9 -20 12 -28 5 -14 -13 -18 -145 -32 l-63
-7 4 -53 c3 -30 7 -56 10 -59 3 -4 59 1 124 10 111 14 120 14 132 -2 16 -23 8
-27 -101 -49 l-88 -17 6 -28 c3 -16 8 -42 11 -59 5 -25 9 -29 27 -25 65 16
202 44 203 42 14 -14 100 -233 93 -235 -9 -3 -362 28 -365 32 -1 0 -29 53 -64
116 -34 63 -65 118 -69 122 -8 9 -111 -22 -111 -33 0 -5 22 -49 49 -98 l49
-91 -38 0 -39 0 -71 129 -70 130 -48 -16 c-26 -9 -51 -19 -56 -24 -5 -4 15
-49 43 -100 28 -50 51 -93 51 -95 0 -2 -17 -4 -38 -4 l-37 0 5 -57 c5 -54 7
-58 33 -61 15 -2 27 -7 27 -11 0 -4 -22 -29 -50 -56 -27 -27 -50 -53 -50 -58
0 -4 14 -20 32 -35 69 -59 58 -62 159 43 80 82 96 95 125 95 18 0 35 -3 37 -7
3 -5 0 -54 -5 -111 -6 -57 -8 -105 -6 -108 7 -6 118 -27 123 -23 2 3 9 54 15
114 6 60 13 111 15 113 2 2 87 -4 189 -14 168 -16 185 -19 173 -33 -8 -9 -58
-69 -111 -133 -54 -65 -102 -118 -107 -118 -12 0 -198 29 -226 35 -19 5 -24
-1 -37 -46 -9 -28 -14 -55 -11 -59 3 -4 33 -11 67 -14 35 -4 78 -10 95 -14
l33 -7 -23 -28 -22 -28 -110 16 c-60 9 -120 18 -132 20 -19 5 -24 -2 -38 -47
-8 -28 -12 -55 -8 -58 5 -4 48 -12 98 -19 49 -7 92 -14 94 -17 2 -2 -6 -15
-18 -28 l-23 -24 48 -33 47 -32 18 21 c9 12 19 22 22 22 2 0 10 -34 16 -75 7
-41 16 -75 21 -75 35 0 110 26 110 38 0 8 -10 65 -22 128 l-21 114 23 25 23
24 75 -69 76 -69 33 30 c19 16 37 29 41 29 5 0 23 -16 42 -35 19 -19 36 -35
40 -35 3 0 32 33 65 74 32 41 62 73 66 70 4 -2 10 -17 14 -34 6 -26 -3 -40
-71 -125 l-77 -96 40 -41 40 -40 64 81 64 80 14 -27 c7 -15 15 -28 16 -30 1
-2 24 7 49 20 42 20 46 25 41 50 l-6 27 48 -15 c103 -32 99 -32 116 27 9 29
15 55 13 56 -1 2 -58 20 -125 40 -103 31 -124 40 -132 61 -5 13 -7 27 -5 31 3
4 46 20 96 36 l91 29 -6 34 c-3 19 -10 45 -15 58 l-9 23 -102 -34 c-56 -19
-105 -33 -109 -30 -10 6 -104 225 -98 230 6 6 252 -16 260 -24 4 -3 28 -55 53
-116 26 -60 51 -114 55 -118 4 -5 33 -4 65 3 42 9 55 15 51 26 -3 8 -22 53
-42 100 -20 46 -34 87 -31 91 15 14 40 -14 107 -121 40 -64 76 -119 81 -121 8
-5 87 22 102 35 4 3 -18 45 -48 94 -30 48 -55 89 -55 92 0 2 16 4 35 4 35 0
35 0 35 44 0 61 -8 76 -39 76 -15 0 -30 3 -33 6 -4 3 9 51 28 106 19 56 33
103 31 104 -6 7 -120 55 -122 52 -1 -2 -20 -57 -42 -123 -37 -112 -41 -120
-67 -123 -23 -3 -27 0 -22 15 3 10 12 50 20 88 8 39 20 83 26 99 6 16 9 30 8
32 -2 1 -45 13 -96 26 -51 13 -93 28 -93 33 1 10 104 13 221 5 l64 -4 12 49
c7 27 11 52 9 55 -2 4 -46 10 -96 13 -51 4 -95 9 -97 12 -3 3 5 16 18 29 l22
25 -48 31 -49 31 -21 -27 -21 -26 -57 81 c-31 44 -61 83 -65 85 -9 6 -101 -49
-101 -60 0 -4 32 -51 71 -106 58 -81 68 -102 59 -113 -7 -8 -16 -15 -20 -15
-4 0 -33 31 -66 70 -32 38 -63 70 -68 70 -4 0 -27 -14 -50 -32 -22 -17 -43
-33 -45 -34 -2 -2 31 -42 73 -89 l77 -87 -47 -56 c-89 -106 -113 -131 -118
-123 -3 4 -30 65 -61 136 l-55 129 85 86 84 85 -36 43 -36 44 -73 -73 c-102
-101 -108 -75 -15 59 39 56 71 106 71 111 0 5 -18 23 -39 40 l-39 31 -58 -81z
m507 -520 l37 -9 -14 -67 c-8 -37 -16 -69 -19 -71 -2 -3 -52 -1 -110 4 l-106
9 63 77 c68 84 60 81 149 57z m-308 -437 l46 -103 -72 -88 -71 -88 -83 75
c-70 64 -80 78 -70 92 50 69 192 229 198 223 4 -4 28 -54 52 -111z"/>
<path d="M28 4814 l-28 -15 0 -202 0 -202 155 -77 154 -78 56 76 c31 41 59 82
61 89 4 10 -48 39 -176 101 l-182 88 67 33 67 34 -24 32 c-14 18 -42 56 -63
85 -22 28 -44 52 -50 52 -5 -1 -22 -8 -37 -16z"/>
<path d="M12617 4585 c-38 -30 -73 -55 -78 -55 -5 0 -9 15 -9 34 0 27 -4 33
-17 31 -10 -2 -35 -7 -55 -10 -35 -5 -38 -9 -38 -39 l0 -33 -97 22 c-54 12
-101 20 -105 16 -3 -3 -13 -30 -22 -58 l-15 -53 25 -6 c14 -4 69 -16 122 -28
87 -19 97 -24 100 -45 4 -25 1 -26 -155 -5 l-41 6 -12 -57 c-6 -31 -9 -59 -7
-62 3 -3 51 -10 107 -17 67 -8 105 -17 111 -27 5 -8 9 -63 9 -122 0 -127 17
-123 -158 -41 l-113 53 7 119 7 119 -39 6 c-75 13 -71 17 -79 -93 -11 -154
-34 -131 -55 58 l-13 112 -55 0 -55 0 7 -77 c4 -43 10 -89 13 -102 5 -21 3
-23 -13 -17 -47 20 -51 18 -68 -23 -21 -54 -21 -58 10 -74 l26 -14 -70 -80
-71 -80 42 -41 43 -42 82 95 c45 52 86 95 90 95 4 0 13 -4 21 -9 10 -7 2 -24
-36 -77 -76 -105 -76 -89 -1 -144 l27 -21 63 90 c35 50 70 90 78 90 8 0 64
-24 123 -52 l108 -52 -151 -113 -151 -113 -129 46 c-71 26 -134 44 -139 41 -5
-4 -21 -27 -35 -52 -17 -31 -21 -46 -13 -49 7 -3 54 -20 106 -38 l93 -34 -27
-21 c-15 -12 -33 -22 -40 -22 -7 0 -70 20 -141 45 -70 25 -128 45 -130 45 -5
0 -54 -89 -54 -98 0 -5 35 -21 78 -36 42 -15 89 -32 104 -38 l28 -10 -28 -21
c-15 -11 -29 -22 -31 -24 -6 -5 50 -63 72 -75 14 -7 23 -5 36 6 10 9 21 16 25
16 4 0 4 -36 0 -80 l-7 -80 70 0 70 0 6 136 c6 125 8 137 29 154 13 11 26 19
30 20 5 0 70 -81 134 -168 4 -6 102 47 109 58 4 6 -24 51 -61 101 -57 77 -65
92 -53 104 8 7 75 59 149 113 l135 100 6 -71 c4 -40 7 -118 8 -174 l1 -102
-102 -66 c-57 -37 -105 -69 -107 -71 -5 -4 40 -104 46 -104 2 0 36 22 76 48
40 27 78 52 85 56 9 5 12 -3 12 -31 0 -37 -3 -39 -106 -107 -57 -38 -107 -73
-110 -77 -4 -7 29 -84 42 -98 2 -2 42 21 89 52 47 32 87 57 90 57 3 0 5 -16 5
-36 l0 -35 48 7 c54 7 59 11 64 43 3 23 4 23 53 -16 28 -21 55 -42 61 -46 14
-8 81 90 70 101 -4 4 -49 39 -99 77 -84 64 -92 74 -95 107 l-3 37 99 -6 c55
-3 101 -2 104 3 3 5 9 35 12 67 l7 57 -114 0 -114 0 -5 158 c-3 86 -4 159 -2
161 1 2 51 -19 111 -46 l108 -49 6 -69 c4 -58 6 -47 7 58 l2 128 -67 31 c-38
16 -86 38 -107 47 l-39 17 107 79 106 79 0 118 c0 116 -1 119 -37 190 -20 40
-37 75 -39 77 -2 2 -42 -18 -90 -43 -47 -25 -88 -46 -90 -46 -2 0 -4 8 -4 18
0 10 42 48 105 96 58 44 105 84 105 89 0 17 -44 87 -54 87 -6 -1 -42 -26 -79
-55z m76 -375 l36 -60 -77 -58 c-42 -32 -83 -62 -89 -66 -10 -5 -13 16 -13 93
l0 100 43 25 c23 14 47 26 53 26 7 0 28 -27 47 -60z"/>
<path d="M12776 4502 c-2 -4 2 -18 10 -32 l13 -25 1 33 c0 29 -12 43 -24 24z"/>
<path d="M0 4193 l0 -77 45 44 c25 24 45 47 45 50 0 6 -75 60 -84 60 -3 0 -6
-35 -6 -77z"/>
<path d="M7933 3708 l-57 -82 -13 32 c-7 18 -15 32 -18 32 -2 0 -25 -10 -50
-22 -46 -22 -47 -25 -28 -74 3 -7 -34 -15 -103 -24 l-107 -12 6 -55 c3 -30 7
-57 9 -58 2 -2 51 3 108 10 139 19 147 19 153 -4 5 -20 -6 -24 -161 -56 -24
-5 -32 -11 -28 -23 2 -10 7 -35 11 -58 l6 -41 107 23 c59 13 110 24 113 24 8
0 111 -231 106 -237 -2 -2 -87 4 -188 14 l-184 18 -62 114 c-33 62 -66 118
-71 123 -10 10 -112 -17 -112 -29 0 -4 22 -48 50 -100 l50 -93 -38 0 -38 0
-65 116 c-87 159 -74 147 -136 127 -29 -9 -53 -21 -53 -25 0 -5 23 -48 50 -97
28 -49 50 -91 50 -95 0 -3 -16 -6 -35 -6 l-36 0 3 -57 c3 -58 3 -58 37 -61
l34 -3 -59 -60 -59 -60 50 -44 50 -44 95 94 c87 87 99 95 134 95 l38 0 -6 -37
c-3 -21 -8 -72 -12 -113 l-6 -76 62 -12 c34 -7 64 -12 65 -10 2 2 9 53 15 113
6 60 13 111 16 114 4 5 277 -18 335 -28 l37 -6 -104 -124 c-57 -69 -107 -128
-111 -132 -5 -5 -62 1 -128 11 -66 11 -123 20 -127 20 -7 0 -39 -102 -34 -107
2 -2 45 -10 97 -19 51 -8 94 -16 95 -17 1 -1 -8 -14 -19 -29 l-22 -27 -125 19
c-69 11 -128 20 -132 20 -8 0 -40 -101 -34 -107 2 -2 45 -10 95 -17 51 -8 95
-17 98 -20 4 -3 -4 -17 -16 -30 l-22 -23 48 -32 c48 -31 48 -31 65 -11 9 11
18 20 21 20 2 0 10 -34 17 -76 13 -73 14 -75 38 -69 13 3 38 9 54 12 16 3 32
12 35 19 2 7 -5 62 -16 122 -25 130 -25 121 -1 151 l20 23 66 -58 c95 -86 89
-83 128 -45 19 18 36 28 40 23 3 -6 23 -24 44 -41 l38 -30 59 75 c54 69 60 74
72 58 23 -31 15 -50 -63 -149 l-76 -96 33 -35 c18 -19 38 -34 45 -34 6 0 37
34 69 75 52 68 75 84 75 52 1 -35 17 -38 64 -15 43 21 47 25 42 51 -5 26 -4
27 22 21 15 -4 44 -13 66 -21 21 -7 42 -13 47 -13 10 0 40 103 31 111 -4 3
-60 21 -124 40 -94 27 -119 38 -128 57 -5 13 -10 26 -10 31 0 4 42 20 93 36
50 16 94 30 96 32 2 2 -1 28 -8 59 -10 44 -16 55 -29 51 -10 -2 -59 -18 -110
-35 l-93 -30 -20 44 c-10 25 -33 77 -50 116 -17 38 -28 72 -25 75 4 4 259 -16
262 -21 0 0 22 -53 49 -116 27 -63 51 -118 55 -123 5 -6 108 9 118 18 2 2 -15
46 -37 98 -23 53 -41 98 -41 101 0 4 8 6 18 6 11 0 44 -42 95 -125 43 -69 80
-125 82 -125 5 0 99 41 103 45 2 2 -22 43 -52 91 -31 48 -56 91 -56 95 0 4 16
5 35 2 l35 -6 0 60 0 60 -39 7 -40 6 35 102 c19 56 34 103 34 105 0 4 -74 37
-105 47 -19 5 -25 -5 -60 -115 -39 -118 -50 -137 -79 -126 -11 4 -10 20 5 90
10 46 23 97 29 112 6 15 9 30 6 32 -2 3 -46 15 -96 28 -50 13 -94 25 -96 28
-2 2 1 9 8 15 9 7 44 8 113 2 173 -16 172 -16 179 28 4 20 9 44 12 53 4 15 -9
18 -96 24 -55 4 -100 9 -100 12 0 3 9 16 20 31 l21 26 -47 28 -46 29 -24 -22
c-28 -26 -20 -32 -96 79 -24 34 -47 62 -51 62 -10 0 -97 -59 -97 -66 0 -3 17
-28 38 -57 94 -128 102 -143 88 -162 -12 -17 -16 -15 -52 26 -21 24 -52 58
-69 76 l-30 32 -47 -38 -48 -39 76 -86 75 -86 -81 -96 -80 -96 -16 39 c-9 21
-36 83 -60 138 l-44 100 87 87 87 88 -39 40 -39 40 -73 -72 c-56 -55 -74 -68
-78 -56 -4 11 20 55 69 125 l75 108 -27 22 c-58 50 -56 50 -119 -39z m492
-512 c28 -8 49 -18 49 -22 -1 -5 -7 -37 -14 -72 l-13 -64 -96 7 c-53 4 -100
11 -105 15 -9 9 103 150 119 149 6 0 33 -6 60 -13z m-318 -379 c12 -28 33 -78
47 -109 l25 -57 -70 -86 c-81 -98 -66 -98 -172 2 l-66 62 100 120 c55 67 104
121 107 121 4 0 17 -24 29 -53z"/>
<path d="M140 3768 c-19 -5 -59 -16 -87 -24 l-53 -15 0 -111 c0 -91 2 -109 14
-105 8 3 67 20 131 38 l117 32 -6 30 c-3 17 -15 61 -27 99 -21 73 -24 75 -89
56z"/>
<path d="M1090 3619 c-16 -34 -30 -62 -30 -63 0 -2 59 -27 131 -56 128 -52
147 -65 136 -94 -5 -12 -26 -8 -117 19 l-111 33 -8 -21 c-5 -12 -17 -41 -26
-65 -10 -24 -16 -44 -14 -46 2 -1 56 -17 119 -36 63 -18 119 -37 123 -40 7 -6
-13 -186 -28 -258 -5 -21 -15 -15 -148 75 l-143 98 28 120 c15 66 27 127 28
136 0 11 -18 21 -57 32 -32 8 -59 14 -61 12 -2 -2 -15 -51 -29 -109 -14 -58
-28 -106 -33 -106 -24 0 -27 31 -19 165 5 77 5 142 1 146 -4 4 -32 9 -63 11
l-56 4 -7 -65 c-3 -36 -6 -88 -6 -114 l0 -49 -34 21 c-18 12 -36 21 -38 21 -3
0 -19 -23 -37 -52 -25 -40 -29 -53 -19 -59 53 -31 54 -30 -47 -107 -52 -40
-95 -76 -95 -81 0 -8 70 -101 76 -101 2 0 53 38 113 85 109 85 128 94 148 74
8 -8 -11 -33 -73 -93 l-84 -81 46 -48 47 -49 61 59 c33 32 77 73 97 92 l37 33
118 -82 c66 -44 120 -84 122 -88 1 -4 -85 -49 -192 -100 l-194 -93 -143 80
-144 81 -42 -48 c-23 -26 -41 -51 -40 -56 3 -8 159 -101 202 -120 13 -6 -23
-35 -52 -42 -15 -4 -66 19 -168 74 l-147 80 -32 -37 c-64 -73 -67 -64 31 -117
48 -26 101 -56 117 -65 l29 -17 -42 -21 -41 -22 41 -54 41 -54 30 15 c16 9 31
14 33 12 2 -2 -5 -42 -15 -88 -13 -59 -16 -87 -8 -91 20 -13 140 -21 147 -11
3 6 19 72 35 147 l30 136 37 19 c45 23 41 27 104 -100 26 -52 49 -97 51 -99 8
-9 144 40 144 51 0 6 -26 59 -57 119 -38 71 -54 112 -48 118 6 5 94 50 198
100 170 82 187 88 186 68 0 -12 -13 -100 -27 -196 l-27 -174 -130 -53 c-71
-29 -134 -55 -139 -57 -9 -3 8 -92 23 -115 6 -10 33 -2 116 33 l108 45 -6 -41
c-3 -22 -7 -42 -9 -43 -1 -2 -65 -29 -140 -61 -148 -61 -148 -61 -127 -126 6
-19 12 -40 14 -46 3 -9 38 1 111 32 59 25 110 45 115 45 4 0 5 -18 2 -40 l-6
-40 67 0 c63 0 66 1 66 24 0 43 17 38 73 -24 29 -33 58 -60 63 -60 12 0 94 82
94 94 0 4 -44 54 -98 111 -92 97 -98 106 -94 139 5 43 3 43 142 16 58 -11 106
-20 106 -20 1 0 7 21 14 48 7 26 15 50 16 53 2 4 32 1 66 -6 35 -8 64 -12 66
-10 3 3 31 187 32 208 0 13 14 8 42 -16 l27 -22 -18 -142 -17 -142 54 -12 c29
-6 59 -8 66 -6 8 3 16 33 20 79 4 40 9 90 13 110 l5 38 28 -20 c16 -11 32 -20
37 -20 10 0 63 82 63 98 0 6 -9 16 -21 23 -29 15 -16 24 69 44 40 9 75 21 77
26 10 15 -26 119 -40 119 -8 0 -74 -16 -146 -36 -116 -31 -136 -34 -157 -22
-13 7 -27 18 -29 25 -3 7 30 51 72 99 l77 86 -49 44 c-26 24 -50 43 -53 43 -3
0 -24 -23 -48 -52 -24 -29 -61 -72 -82 -96 l-39 -45 -126 84 c-69 46 -122 87
-118 90 4 4 68 36 141 70 l132 63 131 -87 130 -88 48 44 c27 23 49 46 50 50 1
4 -47 40 -106 79 -99 67 -105 73 -85 82 19 9 48 -2 175 -61 84 -40 155 -72
159 -72 10 0 81 100 75 106 -2 3 -55 29 -117 59 l-112 54 42 21 c29 15 39 25
33 33 -5 7 -24 31 -41 54 l-33 42 -35 -15 c-20 -8 -38 -13 -41 -10 -3 2 -17
55 -33 116 -16 61 -30 114 -33 116 -2 2 -38 -1 -81 -8 -61 -9 -75 -15 -72 -27
13 -42 66 -261 66 -270 0 -12 -39 -35 -47 -28 -9 10 -70 183 -77 220 -6 29
-11 37 -24 33 -58 -18 -189 -58 -199 -61 -8 -3 -13 4 -13 15 0 15 32 36 141
90 155 78 149 70 114 153 l-15 37 -58 -29 c-61 -31 -149 -71 -154 -71 -2 0 -2
18 0 40 l4 40 -66 0 -66 0 0 -29 c0 -17 -4 -32 -9 -35 -5 -3 -57 14 -117 39
-59 25 -108 45 -110 45 -2 0 -17 -27 -34 -61z m514 -427 l26 -73 -112 -53
c-64 -30 -114 -48 -115 -42 -1 6 5 56 15 111 l17 100 65 21 c36 12 68 19 71
15 3 -3 18 -39 33 -79z m-8 -636 c-2 -17 -10 -73 -17 -123 -9 -74 -15 -93 -28
-93 -9 0 -67 9 -128 21 -90 17 -113 25 -113 38 0 9 11 88 25 176 13 88 25 164
25 168 0 4 54 -29 121 -74 117 -79 121 -83 115 -113z"/>
<path d="M5510 3560 c-18 -38 -30 -73 -26 -77 4 -4 71 -35 149 -69 139 -60
142 -62 139 -90 -2 -16 -5 -30 -6 -31 -1 -1 -50 13 -108 32 -148 47 -136 49
-163 -18 -13 -31 -26 -66 -30 -75 -4 -16 14 -24 135 -62 121 -38 140 -46 140
-64 0 -32 -39 -299 -44 -304 -6 -5 -316 217 -316 226 0 4 15 76 34 160 l33
152 -65 20 c-36 11 -69 17 -73 13 -3 -5 -18 -62 -33 -127 -14 -66 -28 -122
-31 -125 -3 -2 -12 2 -21 11 -13 13 -14 36 -5 184 6 92 7 171 3 175 -4 4 -36
9 -72 11 l-65 3 -7 -124 c-4 -68 -10 -126 -12 -129 -3 -2 -19 6 -35 18 -17 11
-35 19 -40 16 -5 -3 -23 -31 -40 -62 l-32 -55 23 -19 c13 -11 26 -19 31 -20
20 -1 -2 -23 -98 -101 -57 -46 -104 -87 -105 -90 0 -9 80 -119 88 -119 4 0 63
46 131 101 112 93 125 101 147 90 13 -6 24 -14 24 -19 0 -5 -40 -48 -90 -96
-49 -49 -90 -91 -90 -95 0 -3 22 -30 48 -59 l47 -53 107 107 107 106 140 -98
c77 -55 140 -101 141 -104 0 -7 -427 -220 -440 -220 -6 0 -79 41 -163 91
l-152 91 -52 -58 c-28 -32 -49 -62 -47 -65 2 -4 52 -35 111 -70 149 -86 142
-79 89 -106 l-46 -23 -167 96 c-139 81 -168 94 -177 82 -6 -8 -29 -36 -50 -62
-32 -39 -37 -49 -25 -57 8 -5 67 -39 131 -76 l118 -68 -45 -23 c-25 -12 -45
-25 -45 -28 0 -12 83 -124 92 -124 5 0 22 7 38 15 37 19 37 19 10 -101 -11
-49 -20 -92 -20 -95 0 -6 169 -33 174 -28 2 2 18 74 36 159 17 85 34 163 36
173 5 15 81 63 89 55 1 -2 31 -59 65 -128 34 -69 63 -126 64 -127 2 -3 158 47
164 52 2 2 -28 66 -67 143 l-70 141 92 49 c127 68 335 172 345 172 8 0 -51
-446 -59 -454 -3 -3 -113 -51 -266 -117 l-41 -18 17 -67 c9 -37 22 -69 27 -71
6 -2 62 19 124 47 63 27 115 50 116 50 7 0 -11 -87 -20 -96 -6 -6 -74 -39
-151 -73 -77 -34 -144 -66 -149 -71 -11 -11 22 -140 35 -140 5 0 60 23 121 50
61 28 115 50 119 50 4 0 5 -18 2 -41 -7 -51 3 -59 79 -59 l58 0 6 42 7 41 31
-34 c17 -19 48 -54 70 -78 l38 -43 58 57 59 58 -113 127 -113 127 6 44 c5 31
11 43 21 42 8 -1 64 -11 123 -23 60 -12 114 -19 122 -17 7 3 18 28 25 56 7 28
16 53 20 56 8 5 41 -1 126 -20 21 -5 22 1 34 113 7 64 15 122 19 129 5 9 15 6
39 -8 38 -25 38 -25 16 -201 -21 -176 -23 -170 56 -185 36 -6 66 -10 67 -9 1
1 8 59 16 129 9 71 18 131 20 134 3 3 21 -7 39 -21 l34 -25 37 62 37 62 -26
23 c-15 13 -24 25 -22 28 3 2 45 15 93 29 48 13 89 26 92 28 7 8 -31 139 -42
143 -5 2 -79 -16 -164 -40 l-154 -44 -33 21 c-19 12 -34 24 -34 27 0 3 39 52
86 109 l85 104 -52 53 c-30 30 -54 54 -55 54 -2 0 -178 -212 -190 -228 -4 -6
-274 191 -274 200 0 4 69 43 154 85 l153 76 141 -101 c77 -56 144 -102 149
-102 5 0 33 24 62 54 l53 54 -93 69 c-52 38 -107 78 -122 88 l-29 18 25 14
c24 12 37 7 190 -72 90 -47 169 -85 175 -85 11 0 92 107 92 122 0 4 -56 36
-125 70 -69 35 -125 65 -125 69 0 3 18 14 40 24 22 10 40 21 40 25 0 13 -81
120 -91 120 -6 0 -24 -7 -41 -16 -17 -9 -34 -12 -38 -7 -4 4 -22 66 -39 137
-17 71 -33 131 -36 134 -5 6 -153 -16 -166 -24 -3 -2 12 -78 34 -170 38 -160
39 -168 22 -181 -11 -7 -24 -13 -31 -13 -13 0 -81 184 -92 252 -9 51 -4 51
-155 1 -60 -19 -110 -33 -112 -31 -2 2 -2 13 1 24 4 14 52 44 157 99 84 43
154 80 156 82 6 4 -38 143 -45 143 -3 0 -58 -28 -121 -62 l-116 -61 6 51 6 52
-73 0 -74 0 -6 -44 -7 -44 -125 54 c-69 30 -126 54 -128 54 -1 0 -17 -31 -36
-70z m566 -501 l31 -90 -129 -65 -129 -65 6 33 c3 18 12 77 20 132 7 54 16
100 18 102 8 8 112 42 132 43 17 1 25 -15 51 -90z m-68 -668 c34 -25 62 -52
62 -60 0 -9 -7 -77 -16 -152 l-17 -135 -139 27 c-76 14 -141 29 -144 32 -4 4
39 348 52 405 5 24 -11 34 202 -117z"/>
<path d="M0 3413 l0 -78 35 55 c32 51 33 56 17 68 -51 40 -52 38 -52 -45z"/>
<path d="M10610 3286 l-155 -93 -3 64 -3 65 -67 -6 c-128 -13 -132 -15 -133
-50 -1 -75 -7 -74 -119 18 -58 47 -107 86 -110 86 -5 -1 -122 -156 -128 -170
-1 -4 76 -72 173 -151 l175 -144 0 -63 0 -64 -97 6 c-54 3 -138 7 -188 9 l-90
2 -14 -93 c-7 -52 -16 -90 -20 -84 -3 5 -50 11 -103 14 l-98 5 0 -178 0 -179
-53 26 -54 27 -6 156 c-4 86 -7 191 -7 234 l0 77 -32 0 c-18 0 -63 3 -100 7
l-68 6 0 -186 0 -187 -55 27 c-30 15 -56 25 -58 22 -3 -4 -64 -140 -74 -166
-3 -6 16 -22 42 -36 l47 -24 -131 -54 c-72 -30 -131 -59 -131 -66 0 -27 81
-185 93 -180 6 3 103 44 214 91 l202 87 51 -26 c59 -30 62 -15 -37 -169 -36
-55 -76 -117 -89 -137 l-23 -38 85 -60 84 -61 57 88 c31 48 80 124 109 170 30
45 56 82 59 82 11 0 415 -205 415 -211 0 -3 -91 -66 -201 -140 l-201 -134
-217 112 -216 112 -68 -84 c-37 -47 -67 -87 -67 -89 0 -3 82 -46 181 -97 l181
-92 -23 -18 c-13 -10 -30 -19 -38 -19 -7 0 -126 36 -263 81 -137 45 -251 79
-252 78 -7 -10 -96 -179 -96 -184 0 -2 86 -32 190 -66 105 -33 188 -64 186
-68 -3 -4 -27 -23 -55 -41 -28 -19 -51 -37 -51 -40 0 -3 33 -38 74 -79 l74
-73 53 36 c29 19 54 34 55 33 1 -1 35 -83 74 -182 39 -99 73 -181 75 -183 2
-2 55 13 119 32 l115 37 -18 47 c-10 26 -49 121 -85 212 -36 90 -66 170 -66
176 0 15 63 55 72 46 18 -19 147 -274 163 -322 10 -30 19 -56 20 -58 1 -1 77
34 170 78 92 44 169 80 171 80 2 0 4 -15 4 -32 -1 -31 -10 -40 -204 -173
l-204 -139 44 -88 c24 -48 47 -88 50 -88 3 0 71 45 150 100 80 55 147 100 150
100 2 0 4 -27 4 -59 0 -33 3 -62 8 -64 4 -2 50 1 102 7 l95 11 3 61 3 60 177
-48 c97 -26 180 -48 184 -48 3 0 22 47 41 105 l35 105 -31 8 c-18 5 -116 31
-219 58 l-188 49 0 43 c0 23 1 42 3 42 1 0 81 -14 177 -29 96 -16 175 -29 176
-28 3 6 52 212 51 214 -3 2 -381 63 -395 63 -9 0 -12 61 -12 226 0 124 3 224
8 222 46 -21 460 -232 467 -239 7 -5 5 -68 -7 -196 -9 -103 -17 -200 -17 -214
-1 -24 2 -26 97 -41 53 -8 98 -15 99 -14 2 2 33 335 33 355 0 8 10 6 30 -4 17
-9 30 -21 30 -28 0 -27 32 -414 36 -434 4 -22 9 -23 99 -23 51 0 96 3 98 8 2
4 -2 83 -10 175 -8 93 -12 171 -10 174 3 2 28 -8 57 -22 29 -14 54 -25 55 -23
6 6 75 169 75 177 0 5 -18 16 -40 26 -23 10 -43 22 -46 27 -3 5 54 70 126 145
l133 135 -74 75 -74 75 -160 -165 -160 -165 -32 16 c-18 9 -33 18 -33 21 0 4
50 68 111 145 91 113 109 140 98 150 -8 7 -44 38 -81 70 l-66 57 -127 -161
c-70 -88 -131 -160 -136 -160 -13 0 -419 204 -419 210 1 3 128 90 283 193
l282 188 205 -82 c113 -46 219 -89 237 -96 l31 -13 56 87 c31 47 56 89 56 93
0 5 -81 40 -180 80 -99 40 -180 75 -180 79 0 3 25 22 56 42 l55 36 240 -93
c132 -52 244 -94 248 -94 4 0 33 41 64 90 55 89 56 91 34 99 -12 5 -94 37
-182 71 -88 34 -166 65 -173 69 -9 5 6 20 47 47 l60 39 -76 77 -75 78 -45 -31
c-24 -17 -46 -29 -49 -26 -2 2 0 55 6 118 5 63 10 129 10 147 l0 33 -122 -3
-123 -3 -17 -210 c-9 -115 -18 -223 -20 -239 -2 -22 -15 -38 -52 -63 -26 -18
-52 -33 -56 -33 -4 0 -56 71 -115 158 -60 86 -109 158 -110 160 -2 2 -51 -21
-109 -50 -69 -34 -105 -57 -101 -66 2 -7 54 -84 115 -173 61 -88 110 -164 108
-169 -2 -5 -127 -93 -278 -195 l-275 -186 -3 307 c-1 169 1 311 5 315 5 4 94
58 198 119 105 62 192 113 194 115 5 6 -71 185 -78 185 -4 0 -76 -40 -159 -90
-84 -49 -155 -90 -157 -90 -3 0 -5 29 -5 64 l0 64 73 43 c39 23 133 80 209
126 l136 83 -39 87 c-21 48 -42 89 -46 90 -5 2 -78 -39 -163 -91z m-457 -722
l87 -6 0 -258 c0 -142 -3 -271 -6 -288 l-6 -31 -199 100 -199 99 0 201 0 201
118 -6 c64 -3 156 -9 205 -12z m77 -1185 l0 -180 -96 -45 c-52 -24 -99 -44
-102 -44 -4 0 -34 52 -67 115 -50 97 -58 117 -45 125 8 5 80 54 160 109 80 55
146 100 148 101 1 0 2 -81 2 -181z"/>
<path d="M12485 2798 c-2 -13 -11 -70 -19 -127 -8 -56 -17 -105 -20 -108 -3
-3 -19 6 -36 21 -17 14 -35 26 -38 26 -4 0 -24 -26 -44 -58 l-38 -57 32 -26
32 -27 -30 -5 c-16 -3 -62 -11 -101 -17 -54 -9 -73 -16 -73 -27 0 -16 30 -136
35 -141 2 -2 78 9 170 23 l167 27 31 -30 30 -30 -91 -98 -91 -98 42 -49 42
-49 -47 -52 c-27 -28 -48 -54 -48 -57 0 -4 43 -42 95 -85 52 -43 95 -81 95
-84 0 -4 -18 -13 -40 -20 -45 -15 -31 -23 -205 119 l-99 81 -48 -47 c-26 -26
-48 -51 -48 -54 0 -4 45 -44 100 -89 55 -45 98 -86 95 -90 -3 -5 -21 -14 -40
-20 l-34 -11 32 -65 c32 -65 43 -72 79 -53 11 6 21 9 23 7 3 -2 -9 -46 -25
-98 -16 -52 -26 -97 -22 -101 15 -12 132 -42 140 -35 4 4 27 76 52 159 46 151
46 152 84 170 21 10 39 17 41 15 1 -2 21 -61 45 -131 38 -115 44 -128 64 -125
21 3 21 6 24 236 1 127 0 232 -2 232 -3 0 -16 -4 -29 -9 -22 -8 -37 1 -141 85
l-116 95 97 105 c53 57 102 104 108 104 6 0 24 -13 40 -30 16 -16 32 -30 37
-30 4 0 8 121 8 268 l0 268 -49 16 -49 16 -19 -120 c-10 -66 -21 -125 -25
-131 -5 -8 -18 -2 -40 20 l-32 32 24 166 c14 100 20 169 14 174 -11 10 -102
41 -121 41 -7 0 -15 -10 -18 -22z"/>
<path d="M2871 2336 c-5 -6 -27 -51 -50 -99 l-40 -88 22 -10 c12 -5 105 -45
207 -87 l185 -78 -3 -40 c-2 -21 -5 -40 -6 -42 -2 -1 -29 7 -62 17 -133 43
-262 81 -275 81 -12 0 -70 -135 -81 -188 -2 -9 57 -32 185 -71 103 -32 190
-61 194 -64 6 -7 -43 -372 -55 -415 -7 -21 -20 -14 -217 122 -116 80 -214 151
-219 159 -5 8 9 89 38 217 25 111 45 205 43 207 -5 5 -170 53 -183 53 -5 0
-27 -79 -49 -175 -21 -96 -41 -175 -44 -175 -3 0 -16 8 -28 18 l-21 17 13 230
c7 126 11 232 9 235 -3 3 -47 10 -99 15 l-93 10 -6 -50 c-3 -27 -6 -81 -7
-120 -1 -38 -4 -96 -8 -128 l-6 -57 -52 35 -52 35 -52 -86 c-41 -68 -49 -88
-38 -95 8 -4 29 -19 47 -32 l33 -25 -143 -112 c-79 -62 -147 -116 -152 -121
-9 -8 102 -168 118 -169 4 0 83 59 175 131 91 73 171 135 176 140 6 5 23 -2
40 -17 l30 -24 -130 -124 -129 -123 28 -34 c53 -63 106 -119 114 -119 4 0 30
23 57 51 28 28 93 91 146 140 l96 89 189 -130 c104 -71 190 -133 191 -137 2
-5 -134 -75 -300 -156 l-304 -148 -222 126 c-122 70 -223 125 -225 123 -1 -1
-33 -38 -70 -82 -51 -60 -65 -81 -54 -87 7 -5 86 -51 175 -101 l162 -93 -64
-33 -65 -32 -225 126 c-124 69 -230 124 -236 122 -15 -5 -138 -152 -133 -159
2 -4 83 -50 179 -104 96 -53 173 -100 170 -105 -2 -4 -29 -18 -60 -30 -30 -12
-55 -27 -55 -32 0 -7 90 -136 116 -167 2 -3 27 6 54 19 27 13 52 22 54 19 1
-2 -10 -60 -25 -129 -16 -69 -29 -132 -29 -141 0 -14 17 -19 83 -29 45 -6 100
-10 122 -8 l39 3 49 226 49 226 59 29 c32 15 61 26 63 23 2 -2 42 -81 90 -176
l86 -172 102 35 c57 19 109 36 116 39 8 3 -18 65 -83 196 -53 105 -95 192 -93
194 9 7 602 295 607 295 6 0 -46 -381 -76 -564 l-8 -49 -110 -47 c-60 -25
-156 -66 -212 -89 -57 -24 -103 -49 -103 -55 0 -7 7 -36 15 -64 l16 -52 94 0
c84 0 101 3 176 35 46 19 85 35 88 35 2 0 1 -16 -2 -35 l-6 -35 105 0 104 0 0
28 c0 54 4 55 176 22 87 -16 168 -32 180 -35 19 -4 24 4 44 73 12 42 24 80 26
83 2 4 48 -2 101 -11 63 -12 100 -15 104 -8 3 5 14 78 24 161 10 84 21 157 24
164 10 20 101 -44 101 -71 -1 -11 -11 -108 -24 -214 l-22 -192 102 0 102 0 12
114 c7 63 15 128 19 145 l6 31 52 -35 52 -35 51 86 c29 47 50 87 49 88 -2 2
-21 14 -42 28 -21 14 -35 28 -30 31 5 3 63 20 128 37 66 18 125 35 131 39 9 4
4 33 -16 99 -15 51 -30 95 -32 98 -3 2 -105 -23 -228 -57 l-222 -61 -42 30
c-22 17 -41 35 -41 40 0 6 45 64 100 129 55 65 107 126 114 136 13 16 9 24
-45 78 -32 33 -67 65 -76 70 -13 7 -39 -17 -138 -134 -67 -78 -127 -146 -134
-151 -9 -6 -74 34 -206 125 l-194 133 221 109 221 108 173 -122 c96 -67 186
-130 200 -140 l27 -19 81 78 82 77 -165 115 c-91 63 -166 117 -166 121 0 4 13
12 29 19 28 11 44 5 271 -105 133 -64 245 -113 250 -108 4 4 33 43 64 86 l57
78 -180 87 c-100 48 -181 90 -181 93 0 3 27 18 60 34 33 16 60 31 60 33 0 5
-103 146 -120 165 -4 5 -30 -3 -58 -17 -28 -14 -55 -26 -60 -26 -4 0 -28 81
-52 181 -25 99 -47 185 -51 190 -8 14 -230 -21 -236 -37 -3 -8 78 -351 103
-436 4 -12 -6 -23 -36 -38 l-40 -21 -11 28 c-51 132 -101 280 -109 324 -6 29
-12 55 -15 57 -2 3 -82 -20 -177 -50 -160 -50 -173 -53 -176 -35 -2 10 -1 25
2 33 3 7 102 62 221 121 118 59 215 113 215 120 0 7 -14 50 -31 97 l-31 85
-159 -79 c-87 -44 -163 -80 -167 -80 -5 0 -5 21 -1 48 15 88 21 82 -91 82
l-99 0 -6 -37 c-15 -90 0 -89 -192 -8 -123 51 -175 69 -182 61z m741 -748 l45
-123 -174 -88 c-97 -49 -176 -87 -178 -85 -1 2 9 82 24 178 l26 175 95 32 c52
17 100 32 106 32 6 1 31 -54 56 -121z m-177 -842 c94 -65 171 -121 173 -125 3
-8 -46 -393 -50 -396 -5 -3 -388 71 -393 77 -3 3 13 128 35 278 22 150 40 277
40 283 0 15 17 5 195 -117z"/>
<path d="M153 2042 l-153 -77 0 -112 0 -113 193 96 c105 53 194 98 196 100 8
7 -62 184 -73 183 -6 0 -80 -35 -163 -77z"/>
<path d="M512 1870 c-57 -10 -105 -20 -107 -22 -2 -2 21 -100 50 -218 30 -118
55 -222 55 -231 0 -13 -67 -56 -75 -47 -13 15 -114 315 -120 356 -8 63 10 63
-187 0 l-128 -40 0 -109 0 -108 57 20 c31 10 60 16 64 12 13 -13 91 -232 86
-240 -3 -5 -51 -30 -106 -58 l-101 -49 0 -117 0 -118 162 79 162 78 96 -66
c52 -37 142 -99 199 -139 l103 -72 79 71 c43 40 79 75 79 79 0 3 -75 58 -166
122 l-166 116 33 16 34 16 238 -115 c130 -64 240 -116 245 -116 9 1 122 156
121 167 0 5 -81 46 -179 93 -98 47 -179 87 -179 90 0 3 29 19 64 35 l65 30
-65 88 -65 87 -59 -29 -59 -30 -48 194 c-37 149 -52 195 -64 194 -8 -1 -61 -9
-118 -19z"/>
<path d="M7115 1735 c-66 -74 -122 -131 -126 -127 -4 4 -14 31 -24 59 l-16 53
-32 -14 c-18 -8 -60 -26 -94 -41 l-62 -27 14 -35 c8 -20 15 -41 15 -48 0 -8
-45 4 -131 36 -72 27 -133 49 -134 49 -10 0 -66 -193 -59 -200 5 -4 99 -40
209 -80 110 -40 205 -74 210 -77 12 -4 49 -102 41 -110 -2 -3 -82 -24 -176
-48 -94 -24 -174 -45 -176 -48 -3 -3 4 -48 15 -101 12 -53 21 -97 21 -99 0 -2
84 18 188 45 103 26 192 48 198 48 10 0 176 -431 169 -438 -5 -6 -469 70 -477
77 -4 3 -41 103 -84 221 -42 118 -80 219 -85 224 -7 8 -174 -9 -206 -21 -11
-4 32 -141 105 -331 l21 -53 -36 3 c-35 3 -36 4 -165 238 -72 129 -131 236
-132 237 -6 7 -196 -63 -196 -72 0 -5 42 -86 94 -180 52 -93 93 -171 92 -172
-1 -1 -32 2 -70 8 -37 6 -70 9 -72 6 -3 -2 -1 -51 3 -108 l8 -104 58 -9 c33
-5 57 -13 57 -20 0 -7 -31 -92 -69 -189 l-69 -177 105 -50 c58 -27 109 -50
113 -50 5 0 31 60 60 133 123 318 113 297 140 297 14 0 34 -3 46 -6 21 -5 20
-7 -18 -147 -21 -78 -50 -170 -65 -205 -14 -34 -23 -66 -19 -70 4 -4 168 -8
365 -10 l357 -3 118 126 c65 70 122 123 126 118 5 -4 27 -61 51 -125 l42 -118
108 0 108 0 -24 65 c-14 36 -36 94 -50 130 -13 36 -21 65 -17 65 4 0 34 -5 67
-10 33 -6 173 -28 310 -50 138 -22 260 -42 273 -45 17 -4 32 -25 57 -80 l34
-75 116 0 c130 0 127 -3 88 73 -8 16 -13 31 -11 33 2 2 33 -2 70 -8 64 -10 66
-12 86 -54 l22 -44 120 0 c116 0 120 1 110 19 -5 11 -10 22 -10 24 0 2 32 -1
70 -8 l70 -12 0 108 0 108 -50 7 c-28 4 -53 10 -55 14 -3 4 19 29 48 56 28 26
76 70 105 97 l53 49 -23 25 c-13 14 -53 52 -90 85 l-68 60 -175 -161 c-96 -89
-181 -161 -189 -161 -37 0 -116 23 -116 33 0 7 12 90 26 184 14 95 24 179 21
186 -4 11 -215 83 -222 75 -2 -2 -17 -95 -34 -208 -18 -112 -33 -206 -35 -208
-2 -2 -134 18 -293 43 -158 26 -307 50 -330 52 -24 3 -43 10 -43 15 0 8 406
439 420 446 3 1 106 -20 229 -48 124 -27 225 -50 226 -50 8 0 66 182 61 188
-4 4 -82 23 -172 43 -91 21 -168 40 -172 43 -3 4 14 26 38 51 l45 44 230 -49
c127 -27 233 -50 236 -50 11 0 71 182 63 189 -5 4 -58 18 -119 30 -60 13 -141
30 -179 38 l-68 15 47 48 47 48 -82 62 -83 63 -32 -39 c-18 -21 -36 -37 -38
-34 -3 3 -13 62 -22 130 -8 69 -17 130 -19 136 -3 8 -34 6 -105 -6 -56 -9
-104 -20 -107 -23 -4 -3 6 -108 22 -232 l28 -226 -43 -42 -43 -42 -128 134
c-146 152 -119 146 -229 58 -34 -27 -59 -42 -56 -35 3 7 -24 45 -60 83 l-65
70 -123 -129 -124 -130 -22 58 -21 58 117 130 c65 72 134 150 154 172 l37 42
-65 72 c-36 40 -68 72 -71 72 -4 0 -61 -61 -127 -135z m534 -785 c-246 -263
-297 -315 -303 -309 -4 3 -40 97 -80 208 l-74 201 137 150 136 149 141 -147
141 -147 -98 -105z m-780 -590 c95 -16 176 -32 179 -35 3 -3 -37 -49 -88 -103
-52 -53 -106 -110 -121 -126 l-26 -28 -104 32 c-57 18 -105 33 -106 34 -3 2
42 173 58 224 6 17 16 32 22 32 7 0 90 -13 186 -30z"/>
<path d="M12770 1228 c1 -13 7 -48 15 -78 l13 -55 1 78 c1 62 -2 77 -14 77 -9
0 -15 -9 -15 -22z"/>
<path d="M12761 953 l-22 -18 27 -65 c14 -36 28 -67 30 -69 2 -2 4 35 4 82 0
48 -4 87 -9 87 -5 0 -18 -8 -30 -17z"/>
<path d="M12130 833 l-53 -86 -15 29 c-8 16 -16 30 -17 32 -1 2 -23 -10 -49
-25 -32 -20 -44 -33 -40 -43 19 -45 18 -46 -68 -59 -136 -20 -126 -14 -116
-79 5 -31 10 -57 11 -58 1 0 56 9 122 22 110 20 121 21 133 6 17 -22 9 -26
-90 -52 -96 -25 -95 -24 -77 -96 9 -34 15 -43 28 -40 114 34 203 57 206 54 1
-1 28 -54 59 -115 l56 -113 -107 0 c-60 0 -145 3 -190 7 l-82 6 -72 119 c-78
129 -70 123 -146 92 -18 -8 -33 -18 -33 -22 0 -4 21 -41 46 -82 64 -104 64
-102 18 -98 -37 3 -40 7 -111 118 -80 126 -82 127 -155 96 l-37 -16 59 -95
c33 -52 60 -97 60 -100 0 -3 -18 -5 -39 -5 -32 0 -38 -3 -36 -17 2 -10 7 -35
10 -55 5 -31 11 -38 36 -43 l30 -7 -46 -54 -47 -54 90 0 90 0 47 55 c40 47 53
55 81 55 l34 0 0 -55 0 -55 64 0 c69 0 76 6 76 73 l0 27 183 -6 c100 -4 184
-8 186 -11 3 -2 -4 -16 -15 -31 -40 -55 -45 -52 101 -52 l135 0 -21 42 -21 41
98 -6 c55 -4 117 -7 140 -7 36 0 42 -3 57 -35 15 -31 21 -35 57 -35 l40 0 0
215 c0 164 -3 217 -12 220 -7 2 -39 9 -71 15 -48 10 -56 14 -46 26 7 9 32 14
70 14 l59 0 0 55 c0 42 -3 55 -15 55 -19 0 -19 9 0 34 21 28 20 31 -31 57
l-46 24 -15 -22 c-9 -13 -19 -23 -23 -23 -4 0 -35 36 -70 80 -68 87 -66 86
-129 33 l-33 -29 77 -98 c73 -92 77 -99 60 -114 -16 -16 -21 -13 -79 51 -34
37 -66 67 -70 67 -4 0 -28 -17 -52 -37 l-45 -36 80 -81 81 -81 -71 -98 c-40
-53 -75 -97 -78 -97 -4 0 -35 58 -71 129 l-64 130 50 57 c27 31 62 72 78 91
l29 34 -39 40 -39 40 -25 -28 c-14 -16 -44 -50 -67 -77 -35 -39 -44 -45 -49
-32 -4 11 17 55 60 126 36 60 66 111 66 114 0 3 -20 19 -44 35 l-43 30 -53
-86z m525 -488 l47 -8 -6 -46 c-4 -25 -9 -59 -12 -74 l-6 -29 -98 4 c-54 1
-101 6 -105 10 -10 10 106 160 120 154 7 -2 34 -8 60 -11z"/>
<path d="M405 725 l-129 -153 -138 94 -138 95 0 -123 0 -123 58 -37 c31 -21
69 -48 84 -60 l26 -23 -23 -175 c-34 -247 -43 -220 74 -220 l99 0 5 33 c3 17
11 77 18 132 6 55 13 102 15 104 2 2 26 -14 54 -34 40 -30 50 -42 47 -59 -3
-12 -9 -56 -12 -98 l-7 -78 101 0 c93 0 101 2 101 19 0 50 10 53 62 15 28 -19
51 -34 53 -32 1 2 25 40 54 85 l51 83 -40 26 c-23 15 -37 31 -33 35 4 4 62 21
128 39 66 17 124 35 128 40 5 4 -4 51 -19 104 -22 75 -31 95 -43 92 -9 -3
-110 -30 -224 -62 -225 -61 -219 -61 -280 -11 l-27 22 86 100 c47 55 102 119
122 143 l35 43 -73 67 c-40 37 -76 68 -79 69 -3 1 -64 -67 -136 -152z"/>
<path d="M5005 239 c-27 -32 -50 -63 -50 -67 0 -4 39 -44 86 -89 l86 -83 167
0 168 0 119 61 c65 33 119 66 119 73 0 26 -42 136 -52 136 -6 0 -67 -29 -136
-65 -68 -36 -125 -65 -126 -65 0 0 1 23 2 50 l4 51 -79 -3 -78 -3 -5 -43 -5
-43 -75 76 c-41 41 -79 75 -85 74 -5 0 -32 -27 -60 -60z"/>
<path d="M10025 241 c-27 -32 -51 -63 -52 -68 -2 -4 37 -45 86 -91 l90 -82
166 0 167 0 119 61 c66 34 119 67 119 73 0 26 -43 136 -52 136 -6 0 -67 -29
-136 -65 -68 -36 -125 -65 -127 -65 -1 0 0 23 3 50 l5 51 -79 -3 -79 -3 -5
-43 -5 -43 -75 76 c-41 41 -79 75 -85 75 -5 0 -32 -27 -60 -59z"/>
<path d="M0 10 c0 -5 21 -9 48 -9 42 1 44 2 17 9 -44 11 -65 11 -65 0z"/>
<path d="M4470 10 c0 -5 17 -10 38 -9 30 0 33 2 17 9 -28 12 -55 12 -55 0z"/>
<path d="M9490 10 c0 -5 17 -10 38 -9 30 0 33 2 17 9 -28 12 -55 12 -55 0z"/>
</g>
</svg>
