<?xml version="1.0" standalone="no"?>
<!DOCTYPE svg PUBLIC "-//W3C//DTD SVG 20010904//EN"
 "http://www.w3.org/TR/2001/REC-SVG-20010904/DTD/svg10.dtd">
<svg version="1.0" xmlns="http://www.w3.org/2000/svg"
 width="1280.000000pt" height="603.000000pt" viewBox="0 0 1280.000000 603.000000"
 preserveAspectRatio="xMidYMid meet">
<metadata>
Created by potrace 1.15, written by Peter Selinger 2001-2017
</metadata>
<g transform="translate(0.000000,603.000000) scale(0.100000,-0.100000)"
fill="#000000" stroke="none">
<path d="M544 5986 c58 -71 71 -159 30 -200 -12 -12 -20 -14 -36 -5 -26 14
-33 6 -13 -14 14 -14 12 -18 -17 -40 -117 -86 -150 -94 -214 -51 -54 37 -136
106 -221 188 l-73 69 0 -74 1 -74 57 -43 c101 -77 200 -171 210 -201 8 -23 6
-37 -10 -70 -21 -43 -139 -151 -165 -151 -9 0 -31 11 -49 25 -18 14 -35 25
-38 25 -15 0 -3 -32 20 -54 29 -26 24 -51 -7 -43 -18 5 -19 -4 -19 -218 l0
-224 45 -31 c80 -55 115 -122 115 -222 0 -45 -2 -48 -80 -120 l-81 -74 3 -76
3 -76 80 64 c44 36 104 77 133 91 l52 26 55 -38 c31 -21 68 -52 82 -69 27 -32
155 -291 166 -337 12 -49 -67 -118 -119 -105 -40 10 -125 67 -117 78 3 7 1 8
-5 4 -15 -9 -116 42 -222 113 -47 31 -91 60 -97 64 -10 6 -13 -2 -13 -32 0
-38 2 -41 62 -75 109 -62 323 -228 326 -254 7 -48 -101 -192 -144 -192 -40 0
-85 25 -154 84 -36 31 -71 56 -77 56 -16 0 -17 -34 -2 -62 8 -14 8 -23 0 -31
-20 -20 -12 -62 14 -85 27 -23 25 -37 -7 -60 -14 -10 -18 -27 -18 -68 0 -64 7
-66 88 -28 30 14 77 28 106 31 42 4 54 2 69 -15 23 -25 38 -157 27 -228 -10
-62 -58 -159 -95 -194 -24 -23 -34 -25 -111 -24 l-84 2 0 -59 0 -58 37 -6
c185 -29 207 -40 218 -105 10 -62 -20 -112 -122 -202 -49 -43 -98 -85 -111
-95 -21 -16 -23 -25 -20 -96 l3 -78 75 71 c85 81 221 187 259 202 35 13 114 5
145 -16 25 -16 84 -100 114 -163 16 -33 15 -34 -16 -66 -24 -25 -29 -36 -21
-49 8 -15 0 -22 -53 -49 -35 -17 -81 -46 -103 -63 -57 -46 -59 -47 -137 -57
-38 -5 -106 -20 -150 -34 -44 -14 -89 -23 -99 -20 -18 6 -19 -7 -19 -387 0
-286 4 -416 14 -478 12 -73 12 -90 0 -119 -13 -32 -21 -211 -9 -211 3 0 28 16
56 35 62 43 90 44 201 9 127 -39 123 -32 123 -239 0 -132 -3 -177 -13 -187
-12 -11 -13 -3 -10 44 3 52 1 58 -21 68 -13 6 -25 9 -26 8 -11 -15 -21 -67
-15 -83 4 -11 10 -45 12 -75 5 -50 3 -56 -24 -82 -33 -31 -124 -68 -184 -75
-36 -5 -43 -2 -72 31 l-32 37 0 -151 0 -150 44 0 c40 0 43 2 39 24 -3 13 0 34
7 46 15 29 148 90 195 90 38 0 39 0 93 -132 10 -24 17 -28 52 -28 22 0 40 3
40 8 0 4 -14 41 -31 82 -43 103 -42 136 9 204 35 47 49 57 96 70 30 9 59 16
64 16 28 0 18 22 -21 45 -79 46 -80 47 -78 205 1 77 6 151 11 164 11 29 101
66 161 66 75 0 165 -58 220 -143 51 -79 55 -108 29 -196 -24 -82 -47 -111 -89
-111 -36 0 -131 -21 -131 -29 1 -8 86 -61 98 -61 6 0 23 -5 37 -12 38 -17 31
-43 -19 -67 -25 -11 -47 -29 -51 -41 -3 -11 -19 -32 -34 -48 l-29 -28 28 -31
c34 -38 57 -43 91 -20 33 22 52 15 105 -35 40 -39 41 -39 111 -36 l71 3 -55
144 c-36 97 -52 152 -48 168 3 13 26 44 50 69 55 54 89 58 128 14 15 -17 33
-30 41 -30 8 0 23 29 36 71 13 39 29 73 36 76 26 10 123 -27 140 -52 24 -36
64 -182 64 -231 0 -75 -19 -139 -49 -168 l-29 -28 -43 27 c-24 15 -53 36 -65
46 -20 19 -21 19 -31 -3 -7 -13 -14 -42 -16 -65 l-5 -43 236 0 c227 0 240 1
317 26 58 19 118 28 218 35 l137 10 67 -35 67 -36 379 0 379 0 39 44 c50 57
110 81 175 71 69 -10 130 -43 151 -82 15 -29 23 -33 56 -33 25 0 36 4 31 11
-3 6 -1 15 6 19 9 6 9 12 0 30 -15 27 -6 50 18 50 25 0 43 -22 51 -62 9 -45
23 -44 43 2 22 52 43 51 60 -2 l15 -43 63 -3 62 -3 -6 28 c-4 15 -10 37 -13
47 -5 18 -4 18 24 -2 l30 -21 26 36 c32 45 22 56 -45 47 -45 -5 -48 -4 -54 20
-9 37 12 64 118 152 137 114 161 119 263 59 53 -31 82 -65 95 -116 14 -52 1
-99 -68 -241 -2 -5 23 -8 55 -8 l58 0 30 63 c39 81 59 90 156 77 41 -6 155
-29 254 -53 155 -36 181 -45 190 -65 9 -20 16 -22 96 -22 65 0 90 4 99 15 16
20 126 20 200 0 30 -8 96 -15 145 -14 l90 0 -76 39 c-41 21 -82 46 -89 55 -13
15 -11 20 14 40 62 50 260 135 313 135 17 0 23 -6 23 -23 0 -13 14 -36 30 -52
29 -27 30 -33 30 -112 l0 -83 50 0 50 0 0 65 c0 60 3 68 35 104 19 21 48 44
65 51 25 10 34 9 62 -8 83 -52 100 -96 64 -165 -22 -41 -23 -47 -8 -47 9 0 27
16 40 35 21 34 35 40 77 35 30 -3 95 -39 102 -55 4 -13 63 -15 393 -15 l387 0
44 24 c84 47 226 42 245 -9 5 -11 21 -15 65 -15 l59 0 -20 41 c-12 22 -20 50
-18 62 5 39 150 118 244 134 26 4 39 -1 73 -33 68 -61 90 -126 56 -170 -8 -10
-15 -23 -15 -27 0 -5 55 -6 123 -3 137 7 117 7 517 0 l296 -5 59 86 c32 48 75
100 94 117 31 28 39 30 92 26 71 -5 134 -44 248 -154 l78 -74 207 0 207 0 -15
22 c-42 60 6 158 100 202 95 46 252 106 275 106 25 0 24 -6 -43 -157 -35 -79
-54 -110 -64 -106 -10 4 -13 -4 -12 -31 1 -36 1 -36 47 -36 l46 0 70 131 c38
71 77 137 87 145 23 22 49 11 93 -37 l36 -40 30 25 c25 21 34 24 50 15 25 -13
62 -71 108 -167 l35 -72 78 0 79 0 -26 43 c-49 78 -107 206 -101 222 7 20 89
20 145 0 59 -20 206 -118 227 -151 10 -14 20 -45 24 -68 l5 -41 74 -3 74 -3
-7 50 c-4 34 -2 61 8 83 14 34 216 264 377 430 76 78 101 98 132 103 84 16
147 -18 147 -79 0 -34 0 -35 -32 -25 -44 12 -48 12 -48 -8 0 -30 -46 -117 -77
-146 -17 -15 -52 -36 -79 -46 -43 -17 -52 -26 -81 -81 -34 -64 -38 -77 -25
-97 6 -9 23 -4 66 17 98 50 199 37 284 -35 33 -27 33 -30 30 -97 l-3 -68 236
0 237 0 12 29 c20 49 68 91 104 91 32 0 96 -35 167 -91 29 -22 47 -29 83 -29
67 0 57 19 -35 65 -162 80 -187 127 -94 177 28 15 78 37 113 49 62 21 62 21
62 60 0 21 -2 39 -4 39 -2 0 -35 -20 -73 -45 -74 -50 -154 -78 -205 -73 -42 4
-84 58 -128 165 -17 43 -54 121 -81 175 -70 137 -69 139 46 194 123 60 153 63
257 31 100 -32 121 -45 158 -105 l30 -47 0 150 0 151 -40 -4 c-50 -5 -170 31
-194 57 -13 14 -22 52 -31 128 -24 200 -36 349 -29 367 7 19 60 49 73 42 5 -3
2 -38 -6 -77 -8 -39 -13 -73 -10 -75 2 -2 24 5 48 16 24 11 61 20 82 20 20 0
37 2 37 5 0 3 -12 23 -26 45 -14 21 -27 54 -27 72 -2 30 1 33 31 36 19 2 47
-1 63 -7 l29 -10 0 199 0 199 -29 20 c-16 12 -31 21 -34 21 -10 0 -20 -37 -22
-91 -3 -55 -22 -107 -52 -141 -14 -16 -17 -16 -42 3 l-27 20 -41 -27 c-39 -25
-49 -53 -19 -54 21 -1 -59 -37 -98 -44 -54 -10 -212 13 -239 35 -21 16 -21 18
-5 51 9 19 39 62 67 96 106 127 151 194 151 225 0 22 -4 28 -16 23 -9 -3 -20
-6 -24 -6 -5 0 -46 -34 -90 -76 -45 -41 -86 -74 -93 -71 -20 6 -28 64 -25 178
l3 110 24 -22 c19 -18 27 -20 40 -10 9 6 32 19 51 29 20 9 53 36 74 60 l39 43
-16 35 c-10 19 -17 51 -18 72 l-1 37 -11 -30 c-31 -81 -95 -145 -161 -161
l-29 -7 5 100 c3 55 11 110 17 122 21 39 49 45 233 49 163 3 179 2 185 -14 12
-31 -15 -147 -51 -219 -60 -121 -59 -128 19 -100 36 13 41 13 60 -4 20 -18 64
-44 66 -39 0 2 4 55 9 118 9 137 42 249 78 265 22 10 22 10 22 262 0 239 -1
253 -18 253 -25 0 -56 35 -49 55 8 18 53 20 60 3 3 -7 6 30 6 82 0 72 -2 91
-10 77 -16 -27 -71 -47 -128 -47 -60 0 -269 52 -305 76 -25 16 -72 91 -64 100
7 6 69 -14 94 -31 13 -8 24 -22 24 -30 0 -14 3 -14 23 -1 12 8 37 17 55 21 25
5 32 12 32 29 0 19 -9 25 -57 39 -77 21 -123 61 -147 126 -10 28 -21 51 -24
51 -3 0 -18 -11 -32 -25 -30 -29 -39 -24 -58 33 -20 60 -15 64 164 96 145 26
345 48 392 42 l42 -6 0 138 c0 134 -1 140 -34 218 -49 117 -116 328 -116 367
0 51 29 72 96 71 l54 -2 0 59 0 58 -37 10 c-21 6 -43 11 -49 11 -26 0 -54 47
-54 92 0 66 75 199 121 213 17 6 19 17 19 116 l0 110 -29 -20 c-45 -32 -51
-27 -51 39 0 33 -2 60 -4 60 -2 0 -23 -7 -46 -15 -43 -15 -125 -20 -154 -9
-60 23 58 148 232 246 l52 30 0 110 0 109 -60 71 c-69 82 -76 112 -29 122 17
3 44 6 60 6 16 0 29 5 29 10 0 6 -70 10 -189 10 l-190 0 -43 -45 c-49 -53 -81
-61 -182 -51 -58 7 -67 11 -87 41 l-23 33 -32 -21 c-18 -12 -30 -25 -27 -30 8
-13 -130 4 -154 19 -13 8 -23 23 -23 34 0 17 -7 20 -42 20 -36 0 -46 -5 -75
-40 -21 -24 -48 -43 -71 -50 -69 -19 -90 -13 -146 40 l-53 50 -91 0 -91 0 99
-97 c112 -110 117 -123 76 -203 -30 -59 -58 -69 -129 -47 -77 24 -100 53 -105
130 -3 45 1 76 16 115 12 32 16 54 10 58 -5 4 -8 15 -5 25 5 18 -4 19 -211 19
l-215 0 23 -25 c24 -25 24 -26 4 -44 -20 -20 -195 -118 -253 -141 -31 -12 -35
-12 -48 6 -12 15 -13 38 -8 112 l6 92 -44 0 -43 0 -12 -96 c-10 -92 -22 -124
-46 -124 -6 0 -69 19 -139 42 -146 48 -207 89 -207 138 0 34 -14 40 -86 40
l-54 0 0 -38 c0 -38 -23 -72 -47 -72 -6 0 -30 -16 -53 -35 -55 -46 -85 -45
-159 5 -89 61 -90 64 -45 105 l38 35 -278 0 -277 0 -100 -92 c-117 -109 -172
-148 -210 -148 -44 0 -78 37 -95 105 -8 33 -20 77 -25 98 l-10 37 -54 0 c-64
0 -63 3 -39 -115 19 -92 14 -118 -26 -135 -50 -21 -118 -7 -260 54 -225 96
-269 129 -225 166 30 25 13 30 -95 30 l-111 0 6 -34 c5 -27 2 -39 -13 -54 -25
-25 -142 -52 -237 -55 l-70 -2 2 27 c1 14 13 44 27 67 14 22 26 43 26 46 0 3
-22 5 -49 5 -48 0 -49 -1 -95 -63 -51 -69 -95 -102 -126 -92 -11 3 -47 40 -81
81 l-62 74 -53 0 c-54 0 -64 -6 -42 -28 23 -23 -3 -25 -28 -1 l-26 24 -309 2
c-299 2 -310 2 -304 -16 5 -17 -16 -51 -32 -51 -2 0 -62 -13 -131 -29 -186
-42 -218 -46 -249 -26 -14 9 -34 38 -45 63 -12 26 -26 50 -32 54 -10 7 -56 11
-56 6 0 -2 7 -35 15 -75 17 -81 10 -112 -28 -138 -32 -20 -53 -12 -147 59 -96
72 -102 82 -55 102 20 8 35 20 32 27 -5 17 -64 26 -100 16 -20 -5 -35 -5 -41
1 -6 6 -78 10 -171 10 l-160 0 -22 -34 c-35 -54 -186 -117 -246 -102 -17 4
-44 29 -74 71 -46 62 -50 64 -91 65 l-44 0 23 -37 c57 -95 79 -140 79 -164 0
-48 -101 -162 -158 -178 -41 -12 -145 2 -179 24 -13 9 -56 65 -95 123 -62 96
-69 111 -65 147 3 22 8 50 12 63 l7 22 -511 0 -512 0 -51 -26 c-80 -41 -325
-134 -352 -134 -30 0 -36 16 -36 96 l0 64 -53 0 -54 0 -9 -92 c-6 -65 -14 -94
-25 -101 -12 -7 -54 7 -170 60 -126 57 -158 75 -174 101 l-20 33 -300 -6
c-391 -7 -393 -7 -388 -22 7 -18 32 -24 53 -13 26 14 152 12 170 -3 9 -7 24
-23 33 -37 l17 -24 0 31 c0 43 22 48 100 22 104 -34 150 -59 156 -85 6 -25
-18 -142 -44 -207 -16 -42 -58 -71 -84 -56 -8 5 -30 45 -48 89 -18 45 -34 79
-36 78 -2 -2 6 -37 16 -78 29 -110 27 -140 -12 -177 -18 -17 -43 -36 -55 -42
-29 -15 -232 -43 -260 -36 -24 6 -29 22 -38 135 -12 133 -33 211 -70 250 -49
52 -58 76 -51 131 l7 49 -44 0 c-40 0 -46 -4 -78 -46 -38 -51 -188 -171 -226
-180 -37 -10 -57 17 -99 127 l-37 99 -39 0 c-21 0 -38 -2 -38 -5 0 -3 18 -57
40 -121 65 -188 53 -255 -47 -260 -48 -2 -53 0 -131 63 -93 75 -117 114 -117
193 0 45 5 62 29 93 l28 37 -142 0 -142 0 36 -44z m6404 -7 c61 -48 77 -104
41 -140 -62 -62 -175 60 -125 136 20 30 49 32 84 4z m-3443 -30 c4 -5 4 -21 1
-35 -5 -19 -13 -24 -36 -24 -47 0 -51 37 -7 58 29 14 35 14 42 1z m99 -5 c23
-23 21 -96 -4 -125 l-20 -24 -25 28 c-28 31 -35 103 -13 125 17 17 44 15 62
-4z m1835 -7 c8 -11 5 -16 -15 -25 -33 -16 -69 -15 -83 1 -8 10 -7 17 1 25 16
16 83 15 97 -1z m1323 -14 c20 -23 29 -62 21 -92 -5 -20 -10 -22 -42 -16 -46
8 -81 31 -81 52 0 22 49 73 70 73 9 0 24 -8 32 -17z m2782 -34 c43 -50 31 -66
-20 -27 -48 37 -57 58 -25 58 11 0 31 -14 45 -31z m1519 -14 c5 -16 15 -50 23
-75 18 -58 18 -100 -1 -127 -22 -32 -214 -183 -252 -199 -18 -8 -46 -14 -62
-14 -43 0 -196 57 -217 82 -23 24 -25 93 -6 130 15 27 87 78 112 78 13 0 61
-85 73 -130 2 -8 9 8 16 35 7 28 22 65 33 83 20 32 20 33 2 47 -17 12 -17 15
-4 29 9 9 56 34 105 56 113 50 165 52 178 5z m-9552 15 c10 -6 28 -28 39 -50
18 -35 20 -59 20 -220 0 -178 0 -181 -24 -205 -47 -47 -102 -45 -161 6 -61 54
-138 211 -128 262 9 48 180 217 220 217 8 0 23 -5 34 -10z m7797 -14 c57 -29
211 -156 228 -188 19 -33 17 -80 -6 -140 -11 -29 -20 -61 -20 -70 0 -9 -12
-53 -26 -98 -25 -76 -44 -110 -64 -110 -29 0 -327 281 -316 298 3 6 1 22 -5
36 -9 19 -17 24 -33 20 -32 -8 -91 56 -82 90 6 24 134 148 179 173 35 20 94
15 145 -11z m3343 -66 c92 -100 119 -137 119 -162 0 -9 -20 -34 -45 -54 -61
-51 -196 -134 -218 -134 -25 0 -42 46 -61 166 -22 137 -21 171 4 184 11 6 20
17 20 24 0 22 51 66 76 66 16 0 47 -27 105 -90z m-5477 47 c33 -44 34 -75 1
-87 -32 -12 -85 -2 -85 16 0 21 41 104 51 104 4 0 19 -15 33 -33z m-3160 8
c12 -12 20 -13 35 -5 46 24 141 2 141 -34 0 -7 13 -22 29 -34 17 -12 53 -59
80 -104 64 -104 66 -132 12 -215 -57 -88 -82 -105 -155 -101 -71 4 -82 -11
-45 -61 25 -34 22 -62 -12 -105 -20 -25 -27 -28 -78 -25 -31 1 -83 1 -115 1
l-60 -2 35 -26 c19 -14 54 -34 79 -45 103 -46 98 -73 -24 -130 -70 -32 -280
-89 -333 -89 -20 0 -44 45 -64 122 -25 96 -24 111 7 147 32 38 64 40 119 6 45
-28 73 -32 81 -10 3 8 26 17 50 21 l44 6 -33 24 c-17 13 -45 32 -61 41 -105
65 -115 85 -91 170 16 56 36 73 83 73 33 0 55 20 47 41 -3 8 -24 26 -45 41
-41 29 -44 38 -40 116 2 42 36 160 51 178 17 21 242 20 263 -1z m1631 -68
c108 -86 119 -103 113 -167 -7 -67 -122 -270 -161 -284 -46 -16 -77 3 -120 74
-22 36 -44 67 -49 69 -6 2 -24 16 -42 31 l-31 28 1 -62 c1 -34 9 -79 18 -100
9 -21 16 -47 16 -57 0 -43 -87 -64 -140 -34 -30 17 -80 20 -80 4 0 -6 8 -24
17 -40 17 -28 17 -30 -3 -50 -25 -24 -143 -69 -184 -69 -19 0 -35 9 -49 26
-31 39 -27 47 19 40 29 -4 40 -3 40 6 0 9 -16 13 -47 13 l-47 0 -28 57 c-15
31 -33 77 -40 102 -18 66 -6 75 73 55 33 -9 62 -12 65 -7 12 19 -7 38 -76 74
-40 21 -74 44 -78 52 -8 23 26 77 88 136 45 43 70 58 123 75 37 11 75 17 84
14 9 -4 36 -27 59 -52 58 -61 63 -67 104 -100 l35 -29 -3 75 c-3 68 -2 74 13
65 12 -6 32 -4 64 9 25 10 54 20 63 23 10 3 20 18 24 33 3 15 13 38 20 50 19
30 34 23 139 -60z m4424 48 c64 -22 290 -155 312 -183 23 -30 25 -82 3 -123
-33 -65 -149 -87 -254 -48 -30 11 -76 26 -101 33 l-46 13 18 -48 c24 -61 24
-71 0 -119 l-19 -40 26 -2 c36 -2 39 -1 102 12 43 9 66 9 99 0 l44 -12 -6 -66
c-9 -103 -70 -328 -96 -356 -13 -13 -54 -34 -93 -47 -65 -20 -72 -21 -101 -7
-35 17 -221 189 -237 218 -15 28 -4 43 62 91 53 38 78 70 78 98 0 5 -11 9 -24
9 -14 0 -33 7 -42 16 -9 10 -27 24 -39 32 -13 8 -37 41 -54 73 -37 70 -40 117
-10 196 19 51 23 55 52 55 18 0 48 -10 67 -22 31 -19 110 -42 110 -32 0 11
-43 95 -51 100 -11 7 -12 44 -1 44 4 0 14 16 21 36 14 40 81 94 116 94 12 0
41 -7 64 -15z m-7529 -68 c144 -72 157 -89 93 -128 -35 -22 -47 -24 -156 -22
-144 2 -173 13 -171 63 2 53 23 119 45 141 25 25 33 23 189 -54z m854 63 c41
-15 112 -87 135 -135 30 -64 28 -150 -8 -269 -33 -112 -68 -170 -116 -193 -32
-15 -45 -15 -176 1 -78 9 -154 23 -169 31 -29 15 -40 38 -114 229 -51 131 -55
155 -27 180 37 34 369 165 418 166 17 0 43 -4 57 -10z m3096 -25 c18 -22 15
-69 -15 -188 -48 -196 -56 -206 -154 -187 -52 10 -73 10 -89 1 -19 -10 -20
-15 -11 -32 6 -12 24 -28 41 -37 17 -10 42 -26 56 -38 21 -17 23 -23 13 -42
-23 -44 -357 -292 -393 -292 -24 0 -41 18 -115 121 -92 127 -92 127 -43 226
22 45 56 98 74 118 31 32 37 35 77 29 31 -4 50 -1 64 9 19 15 18 17 -32 64
-67 61 -71 94 -18 152 51 56 105 71 370 104 81 10 163 7 175 -8z m1667 -69
c73 -36 136 -72 139 -81 9 -23 -42 -73 -81 -81 -50 -9 -145 13 -199 46 -27 17
-51 28 -55 25 -3 -4 3 -11 14 -17 44 -25 65 -60 65 -107 1 -37 5 -49 24 -63
23 -17 25 -16 67 17 52 42 59 43 59 10 0 -19 5 -25 22 -25 31 0 99 -43 128
-81 52 -69 63 -95 68 -157 4 -48 9 -65 23 -73 24 -12 25 -70 3 -104 -21 -32
-84 -56 -121 -46 -43 12 -190 88 -265 137 -77 49 -83 68 -43 116 14 16 25 36
25 43 0 7 3 20 6 29 5 13 -1 16 -33 16 -22 0 -48 -7 -59 -15 -25 -19 -60 -19
-68 1 -3 9 -6 28 -6 44 0 16 -8 42 -17 59 l-18 30 -29 -27 -29 -27 6 46 6 46
-45 6 c-34 3 -54 13 -80 38 -19 18 -36 41 -40 51 -8 27 -16 22 -47 -26 -15
-25 -49 -59 -74 -75 -44 -29 -108 -50 -119 -38 -3 3 -10 41 -16 84 -20 159 19
198 231 238 46 8 109 15 141 15 63 0 70 -6 70 -61 0 -16 9 -47 20 -69 l20 -39
26 26 c16 16 33 50 41 82 8 31 20 62 26 69 18 23 70 7 214 -62z m3983 48 c79
-10 131 -21 141 -30 27 -24 72 -304 50 -304 -6 0 -11 -9 -11 -19 0 -10 -15
-41 -33 -69 -40 -58 -49 -78 -51 -111 -3 -44 -59 -66 -90 -36 -9 9 -47 22 -85
29 l-69 13 -16 -42 c-9 -23 -28 -53 -41 -65 l-25 -24 -28 20 c-35 27 -250 320
-267 367 -6 15 0 17 49 17 37 0 71 -7 96 -20 35 -18 40 -18 40 -4 0 9 -9 23
-20 32 -11 10 -32 40 -48 69 l-28 52 -28 -30 c-33 -35 -82 -62 -96 -54 -30 18
18 150 65 181 14 9 54 25 88 36 71 21 190 18 407 -8z m-5351 -134 c24 -11 66
-36 93 -55 26 -19 50 -35 53 -35 3 0 -8 18 -26 39 -17 22 -28 44 -25 49 11 19
62 23 127 12 35 -6 87 -12 115 -14 28 -2 57 -7 64 -11 33 -20 59 -172 27 -159
-10 4 -12 -3 -9 -26 2 -18 11 -34 18 -37 19 -7 18 -62 -1 -69 -9 -4 -47 18
-97 57 -44 34 -79 57 -77 51 2 -6 37 -47 77 -91 50 -55 72 -87 72 -105 0 -31
-51 -92 -85 -100 -26 -7 -249 37 -304 60 -40 17 -217 158 -225 180 -3 9 -6 26
-6 39 0 29 56 204 72 222 16 19 87 15 137 -7z m-5551 -99 c35 -70 41 -108 16
-118 -23 -8 -114 14 -136 34 -31 28 -21 80 25 131 34 37 58 25 95 -47z m7466
51 c12 -35 -73 -474 -98 -507 -24 -33 -46 -11 -47 47 -2 110 3 259 11 344 7
78 11 91 34 111 34 29 92 32 100 5z m-8131 -14 c-3 -13 -26 -44 -51 -70 -25
-26 -44 -49 -41 -51 2 -1 30 -15 61 -30 69 -33 83 -52 102 -141 28 -134 -11
-157 -103 -59 -170 183 -180 247 -50 331 73 48 89 52 82 20z m204 -2 c27 -24
28 -24 9 -45 -34 -38 -106 -19 -106 28 0 45 54 54 97 17z m8147 -41 c73 -60
82 -77 60 -115 -15 -24 -15 -31 -5 -44 20 -24 29 -19 33 16 2 17 8 33 15 35
29 10 296 -259 309 -312 8 -32 -26 -93 -129 -230 -67 -88 -89 -111 -111 -113
-23 -3 -63 19 -188 104 -88 59 -167 118 -175 131 -12 18 -14 38 -9 86 7 72 91
438 106 467 16 29 32 25 94 -25z m-6146 5 c11 -12 45 -87 77 -167 64 -165 66
-194 13 -238 -30 -25 -32 -26 -49 -8 -22 23 -118 280 -126 338 -5 38 -2 47 20
69 31 31 41 32 65 6z m5686 4 c9 -24 7 -137 -3 -153 -7 -11 -15 -5 -35 25 -14
22 -30 54 -37 72 -10 28 -9 36 6 52 22 24 61 26 69 4z m2736 -17 c0 -34 -63
-101 -122 -131 -66 -33 -91 -34 -86 -4 3 24 168 158 194 158 8 0 14 -10 14
-23z m-8641 -61 c32 -17 55 -68 133 -296 44 -129 49 -182 24 -256 -32 -96 -27
-95 -254 -36 -162 43 -202 57 -224 80 -20 20 -40 68 -77 182 -71 225 -70 211
-21 264 23 24 60 54 83 66 39 20 53 21 174 16 90 -3 142 -10 162 -20z m-1624
-43 c27 -37 28 -127 3 -180 -13 -26 -66 -48 -152 -63 -89 -15 -92 -14 -57 26
30 34 31 38 25 98 -7 73 2 98 49 127 38 24 112 19 132 -8z m3743 5 c26 -29
134 -252 162 -336 18 -54 19 -67 8 -90 -15 -31 -114 -88 -170 -97 -71 -12
-217 44 -242 94 -19 36 -37 145 -38 231 -2 77 26 144 80 191 30 26 39 29 106
29 62 0 75 -3 94 -22z m3030 3 c21 -13 11 -55 -15 -59 -28 -4 -50 32 -32 54
13 16 28 18 47 5z m3557 -18 c-45 -70 -45 -70 -45 -43 0 24 35 70 53 70 5 0 1
-12 -8 -27z m312 -129 c56 -76 110 -154 119 -173 16 -33 16 -34 -12 -61 -48
-47 -249 -186 -354 -246 -111 -63 -132 -64 -150 -8 -15 43 2 299 23 359 13 36
37 60 37 36 0 -6 20 -24 45 -39 33 -20 54 -27 79 -24 37 4 32 -14 54 203 7 65
25 103 46 96 6 -2 57 -66 113 -143z m-939 50 c42 -15 79 -36 87 -48 15 -24 45
-212 45 -285 0 -43 -4 -53 -32 -76 -37 -31 -162 -96 -232 -119 -50 -17 -86
-14 -86 7 0 7 -7 23 -16 36 l-17 24 -17 -24 c-17 -22 -19 -22 -44 -6 -33 22
-33 46 -1 190 46 203 71 271 112 307 33 29 41 32 82 27 25 -3 79 -18 119 -33z
m-2998 -18 c18 -35 9 -62 -20 -58 -32 3 -74 34 -79 57 -9 48 73 49 99 1z
m-6390 3 c36 -11 76 -29 90 -39 21 -16 22 -20 10 -36 -21 -24 -129 -74 -162
-74 -16 0 -42 13 -63 31 -31 27 -35 37 -35 78 0 79 19 83 160 40z m6500 -36
c-11 -17 -11 -17 -6 0 3 10 7 28 7 40 2 22 2 22 6 0 2 -12 -1 -30 -7 -40z
m3564 42 c-4 -8 -11 -15 -16 -15 -6 0 -5 6 2 15 7 8 14 15 16 15 2 0 1 -7 -2
-15z m-10959 -1 c23 -9 155 -182 155 -204 0 -10 -3 -26 -6 -34 -7 -18 -214
-180 -265 -208 -40 -21 -73 -10 -133 46 -43 39 -46 46 -46 92 0 50 25 115 47
122 7 2 13 -12 15 -39 3 -40 5 -42 56 -61 29 -11 69 -35 88 -54 32 -33 34 -33
33 -12 0 15 -15 33 -42 53 -22 17 -51 50 -63 75 -40 81 -40 84 13 141 70 76
109 98 148 83z m10679 -37 c72 -38 96 -74 96 -142 -1 -78 -36 -266 -54 -283
-14 -15 -20 -14 -60 5 -65 32 -114 79 -125 121 -18 69 -32 281 -20 303 24 46
70 44 163 -4z m74 28 c59 -18 71 -30 42 -45 -23 -12 -76 8 -106 41 -22 24 -8
25 64 4z m-1436 -17 c12 -12 28 -23 36 -24 20 -3 43 -25 36 -35 -3 -5 -27 -21
-54 -34 -51 -26 -94 -32 -105 -15 -3 6 3 10 14 10 28 0 36 18 17 39 -19 21
-21 52 -4 69 18 18 35 15 60 -10z m-7687 -11 c20 -32 65 -146 65 -168 0 -19
-28 -29 -86 -29 -89 0 -218 100 -212 165 3 28 7 31 58 42 30 6 79 12 107 12
45 1 55 -3 68 -22z m4661 -53 c40 -25 86 -60 103 -79 19 -22 39 -35 55 -35 14
0 27 -4 30 -8 9 -15 -12 -75 -42 -123 l-29 -45 28 -34 c39 -46 52 -87 32 -94
-37 -15 -93 57 -93 119 0 20 -5 25 -24 25 -30 0 -86 63 -149 169 -56 93 -64
122 -42 145 21 21 38 16 131 -40z m-2317 -53 c13 -49 31 -150 31 -173 0 -29
-45 -68 -79 -68 -38 0 -87 41 -94 80 -9 42 26 131 68 175 39 42 61 38 74 -14z
m8211 27 c0 -6 -6 -5 -15 2 -8 7 -15 14 -15 16 0 2 7 1 15 -2 8 -4 15 -11 15
-16z m-10943 -41 c-3 -7 3 -28 13 -47 17 -33 19 -34 73 -31 30 1 74 -3 97 -9
55 -15 134 -92 151 -149 15 -52 40 -54 58 -6 15 42 76 109 90 100 21 -12 33
-85 20 -117 -13 -32 -148 -140 -202 -162 -58 -24 -95 6 -179 149 -95 162 -152
281 -144 301 7 18 8 18 18 1 5 -10 8 -24 5 -30z m3910 -62 c-9 -61 7 -65 55
-16 31 31 44 38 57 31 19 -10 162 -209 182 -252 17 -39 -1 -57 -128 -121 -97
-48 -105 -51 -117 -34 -19 25 -27 21 -61 -24 -54 -74 -106 -72 -125 4 -6 23
-13 48 -15 55 -8 22 -24 4 -31 -34 -12 -67 -78 -79 -167 -31 -59 33 -156 193
-142 237 3 10 20 31 37 45 50 42 184 105 223 105 33 0 36 -2 47 -45 7 -25 17
-45 23 -45 5 0 17 28 25 62 12 52 21 66 49 85 19 13 47 23 64 23 29 0 30 0 24
-45z m945 8 c14 -16 48 -62 75 -103 117 -176 124 -203 70 -244 -58 -44 -248
-129 -301 -134 -63 -6 -59 10 12 58 43 28 52 39 52 63 0 23 -4 28 -22 25 -12
-2 -29 -18 -40 -38 -11 -19 -35 -49 -55 -66 -31 -27 -40 -30 -73 -24 -52 10
-103 43 -132 88 -36 54 -42 79 -25 106 19 28 219 198 301 255 70 49 102 52
138 14z m1060 7 c126 -24 191 -45 212 -69 24 -26 136 -287 136 -317 0 -21 -4
-24 -20 -19 -22 7 -29 -18 -9 -30 19 -12 -23 -46 -105 -86 -44 -22 -87 -39
-96 -39 -9 0 -36 13 -61 28 -24 16 -61 31 -82 35 l-37 6 0 -68 0 -67 39 -18
c22 -9 43 -26 46 -37 9 -27 -17 -106 -68 -209 -54 -109 -62 -111 -168 -31 -44
34 -84 61 -89 61 -17 0 -71 54 -105 105 -39 59 -41 67 -20 85 8 7 15 21 15 31
0 14 -11 19 -47 24 -120 16 -171 55 -159 122 6 30 23 53 83 110 41 40 93 84
114 99 47 32 64 27 132 -35 26 -24 57 -42 80 -46 37 -7 37 -7 37 28 0 26 -11
49 -50 96 -61 77 -65 91 -45 135 24 49 108 126 139 126 14 0 71 -9 128 -20z
m-6039 -30 c32 -38 173 -268 181 -297 12 -37 -20 -46 -132 -33 -200 22 -272
33 -287 44 -42 31 -40 167 4 219 27 32 151 96 188 97 12 0 32 -13 46 -30z
m10600 24 c43 -8 47 -16 12 -32 -36 -17 -68 -15 -111 5 -35 17 -35 18 -13 24
32 9 67 10 112 3z m277 2 c0 -16 -14 -36 -25 -36 -20 0 -30 21 -14 31 15 9 39
12 39 5z m-5399 -25 c132 -46 138 -62 53 -140 -98 -89 -103 -89 -112 18 -2 36
-11 78 -18 93 -28 54 -12 60 77 29z m1075 -30 c156 -83 234 -137 234 -164 0
-28 -69 -111 -111 -132 -33 -18 -102 -20 -131 -4 -34 18 -163 305 -151 336 10
26 69 12 159 -36z m-4758 25 c51 -8 100 -20 108 -27 21 -17 31 -43 60 -159 29
-112 26 -175 -8 -166 -14 3 -27 -3 -39 -17 -24 -28 -23 -39 1 -70 29 -37 25
-53 -21 -87 -59 -42 -139 -66 -181 -54 -37 11 -49 42 -24 66 21 22 6 36 -53
49 -37 8 -66 22 -93 47 -38 34 -88 122 -88 155 0 25 -14 20 -32 -11 -9 -15
-26 -36 -37 -46 -21 -19 -21 -19 -21 7 0 34 40 142 73 199 14 24 44 63 66 86
l41 42 77 0 c43 0 120 -6 171 -14z m9272 -3 c0 -10 -42 -53 -52 -53 -15 0 -8
39 10 49 20 12 42 14 42 4z m95 -13 c3 -5 -1 -10 -9 -10 -9 0 -16 5 -16 10 0
6 4 10 9 10 6 0 13 -4 16 -10z m-11656 -45 c53 -45 72 -88 78 -174 8 -118 -19
-199 -89 -267 -73 -71 -164 -142 -212 -166 -35 -18 -53 -20 -137 -16 -89 4
-103 8 -154 39 -63 38 -135 103 -135 122 0 18 79 67 108 67 13 0 36 -12 50
-28 15 -15 50 -36 77 -46 28 -10 56 -23 63 -29 15 -12 12 -14 44 44 23 42 24
51 14 93 l-11 46 -67 0 c-57 0 -71 4 -97 26 -18 15 -31 35 -31 48 0 13 -5 38
-12 57 -11 32 -10 34 41 80 28 25 73 58 100 73 53 28 178 53 278 55 52 1 66
-3 92 -24z m8617 -43 c55 -40 199 -174 240 -223 38 -45 38 -70 3 -101 -40 -34
-277 -65 -372 -47 -66 11 -117 33 -117 49 0 29 48 106 91 144 41 37 46 46 34
56 -11 9 -21 7 -47 -12 -41 -30 -88 -51 -88 -39 0 5 18 35 40 67 95 140 139
161 216 106z m2290 -38 c50 -20 74 -42 74 -66 0 -10 -22 -65 -50 -123 -35 -73
-59 -111 -82 -127 -103 -75 -328 -138 -328 -92 0 11 7 32 15 48 9 16 14 31 12
32 -2 2 -26 -3 -53 -12 -27 -9 -55 -18 -62 -20 -11 -3 -9 -12 7 -39 11 -19 17
-36 13 -39 -4 -2 -34 -11 -66 -20 -71 -18 -91 -10 -100 39 -13 65 7 96 102
167 153 114 180 130 382 234 74 39 83 40 136 18z m601 -56 c31 -35 43 -63 43
-103 0 -62 -18 -59 -143 23 l-68 44 58 28 c72 35 84 36 110 8z m-8363 -19 c28
-33 34 -85 15 -121 -21 -38 -100 -137 -127 -158 -100 -78 -176 -130 -186 -127
-15 5 -23 54 -16 104 6 36 4 42 -13 47 -25 6 -37 0 -37 -20 0 -8 -4 -22 -9
-32 -5 -9 -14 -30 -20 -45 l-11 -28 -73 38 c-68 36 -72 40 -75 76 -4 46 22
118 52 145 31 28 229 113 310 133 39 10 92 18 118 18 40 1 50 -3 72 -30z
m4542 -3 c28 -13 66 -36 85 -53 19 -16 54 -42 79 -57 107 -69 160 -116 160
-144 0 -48 -38 -81 -115 -103 -103 -28 -122 -26 -140 16 -8 19 -22 51 -30 70
-21 49 -19 78 6 101 21 19 54 73 47 78 -2 2 -24 9 -50 16 -72 19 -157 100
-105 100 7 0 35 -11 63 -24z m-102 -13 c-4 -16 -13 -43 -20 -62 -8 -18 -14
-41 -14 -51 0 -23 -43 -59 -99 -84 -32 -15 -48 -31 -65 -65 l-23 -45 -32 44
c-43 59 -40 87 14 152 76 89 150 137 213 138 30 0 32 -2 26 -27z m-4026 -28
c33 -15 55 -33 61 -48 10 -26 -1 -93 -21 -130 -10 -19 -11 -19 -20 -3 -6 10
-11 42 -11 72 -1 29 -3 54 -4 54 -1 0 -11 -19 -21 -42 -11 -24 -29 -52 -42
-63 -12 -11 -26 -30 -31 -42 -10 -28 -25 -29 -61 -5 -84 55 -133 176 -89 216
44 40 138 37 239 -9z m380 -8 c31 -33 102 -174 102 -202 0 -13 -5 -27 -11 -31
-6 -4 -8 -20 -4 -40 3 -21 0 -44 -9 -62 -17 -34 -86 -98 -139 -131 -49 -30
-65 -22 -128 62 -70 93 -82 122 -75 177 18 134 56 197 139 229 69 26 99 26
125 -2z m-2476 -64 c175 -57 208 -75 167 -92 -53 -22 -523 -42 -586 -25 -34 9
-28 25 25 75 72 69 88 80 129 94 48 17 63 14 265 -52z m8486 21 c153 -100 181
-142 185 -275 2 -102 -12 -133 -70 -148 -72 -19 -359 -42 -387 -31 -30 11 -47
46 -96 192 -34 102 -40 149 -20 173 18 22 87 61 178 102 95 42 131 40 210 -13z
m1373 -44 c79 -50 152 -100 162 -111 22 -27 22 -77 0 -109 -9 -14 -41 -51 -70
-83 -29 -32 -64 -80 -77 -105 -29 -56 -68 -95 -116 -115 -19 -8 -57 -33 -85
-56 -48 -40 -78 -51 -90 -32 -3 6 -17 60 -30 122 -18 81 -25 142 -25 220 l0
107 50 99 c60 120 84 153 114 153 12 0 87 -41 167 -90z m-11961 30 c0 -6 -7
-25 -16 -42 -12 -23 -18 -27 -24 -18 -5 8 -3 25 6 42 14 28 34 38 34 18z
m9963 -66 c74 -37 93 -58 121 -133 37 -97 76 -241 76 -277 0 -51 -125 -204
-168 -204 -22 0 -269 192 -279 216 -8 21 4 56 32 98 30 45 30 46 3 46 -27 0
-104 45 -112 65 -9 25 14 114 37 141 27 31 138 73 195 73 27 1 62 -9 95 -25z
m-3569 -16 c21 -30 20 -53 -5 -105 -27 -55 -100 -113 -143 -113 -45 0 -170 71
-174 98 -3 19 13 30 119 82 134 66 178 74 203 38z m-5152 -13 c187 -24 223
-62 188 -198 -34 -132 -41 -137 -202 -137 -62 0 -151 7 -197 15 -104 18 -128
38 -171 143 -36 86 -34 139 7 179 23 24 26 25 146 18 67 -4 170 -13 229 -20z
m4300 13 c5 -15 -72 -85 -102 -93 -27 -6 -115 16 -115 29 0 12 156 75 187 76
14 0 28 -5 30 -12z m-1626 -62 c27 -27 34 -42 34 -72 0 -58 7 -64 63 -52 77
16 97 -22 61 -112 -18 -45 -18 -45 11 -53 16 -5 27 5 55 49 34 53 59 72 81 58
18 -11 126 -181 138 -217 17 -52 -20 -234 -53 -263 -32 -28 -130 -41 -183 -24
-71 23 -333 161 -344 181 -9 17 -3 32 30 89 42 70 54 130 27 130 -8 0 -36 -16
-61 -36 -45 -34 -50 -35 -93 -27 -37 6 -51 15 -69 42 -37 55 -31 79 44 167 91
106 170 173 207 174 10 0 33 -15 52 -34z m3883 -36 c18 -9 148 -176 170 -218
17 -32 15 -129 -5 -292 -16 -129 -31 -180 -56 -180 -17 0 -227 154 -228 166 0
6 7 17 15 24 20 16 19 29 -2 37 -10 3 -33 17 -52 31 l-34 25 7 -28 c4 -16 17
-42 28 -58 l21 -29 -22 11 c-12 7 -33 30 -48 52 -20 31 -29 37 -39 28 -12 -10
-14 2 -14 67 0 60 3 75 12 66 19 -19 47 39 53 115 10 113 14 127 46 161 26 28
37 32 80 32 28 0 58 -4 68 -10z m-2944 -30 c0 -32 -34 -39 -59 -11 -24 26 -12
43 27 39 27 -2 32 -7 32 -28z m4635 1 c26 -49 2 -161 -42 -194 -36 -27 -60
-19 -153 57 -94 75 -114 102 -93 122 17 17 106 31 205 33 62 1 74 -2 83 -18z
m-7272 -7 c32 -9 28 -37 -17 -151 -102 -257 -137 -320 -191 -348 -60 -31 -89
-22 -193 66 -54 44 -97 86 -97 92 0 16 80 65 118 73 16 3 33 14 35 23 3 9 12
34 20 55 14 38 13 42 -9 78 -15 23 -24 53 -24 78 l0 40 168 0 c92 0 177 -3
190 -6z m6591 -48 c-24 -41 -29 -44 -29 -17 0 22 42 79 47 64 2 -6 -6 -27 -18
-47z m-7109 29 c-13 -16 -70 -21 -70 -6 0 12 19 19 54 20 24 1 27 -1 16 -14z
m841 -30 c35 -20 74 -47 86 -60 12 -14 27 -25 33 -25 6 0 24 -7 40 -15 43 -22
73 -87 73 -157 0 -51 -8 -73 -71 -202 -44 -89 -80 -150 -93 -157 -29 -15 -72
-2 -207 62 -74 34 -105 55 -109 69 -5 17 -11 20 -30 15 -31 -7 -53 10 -53 42
0 46 176 437 208 461 22 17 45 10 123 -33z m3097 22 c4 -19 -23 -23 -48 -7
-13 9 -13 11 0 20 21 14 44 8 48 -13z m2639 9 c21 -7 58 -20 82 -27 l44 -13
-33 -14 c-44 -18 -171 -42 -218 -42 -60 0 -70 14 -36 45 26 24 99 64 116 65 4
0 25 -6 45 -14z m3220 -29 c25 -16 45 -114 53 -261 5 -83 6 -154 3 -159 -8
-13 -52 32 -74 76 -22 43 -32 48 -23 12 7 -30 -22 -115 -39 -115 -42 0 -351
72 -386 90 -44 22 -63 52 -76 122 -10 54 2 78 48 98 70 30 97 33 104 13 3 -10
15 -28 26 -40 20 -23 20 -23 34 -3 9 12 12 32 8 52 -5 31 -3 35 55 71 33 21
78 41 101 45 55 9 151 9 166 -1z m-6211 -21 c36 -13 71 -29 76 -34 15 -15
-119 -122 -151 -122 -34 0 -42 6 -79 59 -37 50 -44 107 -14 114 43 12 106 5
168 -17z m631 -4 c33 -10 104 -44 160 -75 123 -70 133 -85 115 -190 -14 -78
-86 -229 -131 -271 -59 -56 -175 -126 -207 -126 -37 0 -177 88 -196 123 -16
30 -12 81 17 210 39 172 63 241 88 252 14 7 23 21 25 40 7 60 32 67 129 37z
m1604 -22 c11 -39 10 -118 -1 -125 -5 -3 -10 -18 -10 -33 0 -15 -9 -46 -20
-70 -10 -23 -22 -58 -26 -77 -8 -43 -24 -49 -125 -40 -105 9 -109 15 -75 118
46 141 74 187 136 225 67 40 111 40 121 2z m1583 -2 c68 -44 219 -185 233
-217 13 -29 14 -27 -23 -231 -31 -173 -39 -194 -101 -266 -61 -71 -105 -98
-143 -90 -56 11 -245 87 -264 105 -16 17 -20 51 -34 308 -10 180 -12 307 -7
338 6 34 10 42 13 27 2 -13 14 -38 26 -57 13 -18 29 -47 36 -64 7 -19 20 -31
31 -31 10 0 44 -7 76 -15 31 -8 63 -15 70 -15 15 0 18 46 3 55 -5 3 -10 17
-10 31 0 21 5 24 34 24 35 0 66 23 46 35 -10 6 -50 78 -50 90 0 11 19 4 64
-27z m-8356 -1 c11 -12 33 -48 48 -81 32 -70 30 -90 -21 -261 -39 -128 -83
-217 -119 -240 -20 -14 -29 -13 -80 5 -86 29 -136 60 -143 89 -9 35 30 269 52
315 17 36 123 131 195 175 43 26 42 26 68 -2z m5834 -72 c35 -24 92 -64 128
-89 36 -25 86 -69 110 -98 25 -29 73 -83 107 -120 58 -61 63 -71 62 -110 0
-52 -19 -108 -39 -121 -11 -7 -42 5 -113 43 -108 58 -111 68 -32 90 50 14 53
19 26 44 -10 9 -26 34 -35 54 -15 34 -23 39 -69 48 -29 6 -60 14 -70 19 -15 6
-16 4 -7 -20 5 -14 10 -51 10 -81 0 -47 4 -58 28 -79 l27 -24 -29 -1 c-27 0
-28 -2 -22 -32 3 -17 7 -32 9 -34 2 -1 122 -81 194 -128 63 -40 44 -55 -109
-86 -130 -26 -178 -27 -226 -7 -20 8 -56 20 -78 26 -23 6 -53 20 -68 32 -25
20 -62 77 -54 84 2 2 26 -14 53 -35 48 -38 75 -49 75 -32 0 21 78 83 136 109
35 15 64 31 64 35 0 4 -9 12 -21 19 -18 9 -25 7 -48 -15 -56 -54 -171 -73
-247 -41 -20 8 -40 13 -44 10 -13 -8 -70 52 -70 74 0 31 46 118 69 131 14 7
35 4 83 -13 62 -23 108 -25 108 -6 0 25 -32 67 -74 97 -67 48 -80 72 -73 132
8 66 30 105 79 140 56 41 85 38 160 -15z m3073 -5 c7 -22 6 -23 -9 -11 -9 7
-16 23 -16 34 0 26 15 12 25 -23z m-7918 -7 c8 -19 -22 -82 -43 -90 -11 -4
-22 1 -30 12 -34 46 3 128 47 105 11 -6 23 -18 26 -27z m3873 -63 c-24 -111
-69 -268 -86 -302 -16 -31 -47 -49 -116 -68 -95 -25 -111 -7 -146 163 -15 71
-18 107 -11 130 8 29 123 157 141 157 5 0 8 -19 7 -42 -1 -24 2 -64 6 -90 l8
-48 37 33 c20 17 46 39 58 47 13 8 22 25 22 40 0 15 6 34 13 43 13 19 68 38
79 28 4 -3 -1 -44 -12 -91z m2984 77 c16 -11 19 -36 26 -169 5 -86 9 -222 9
-302 1 -174 12 -161 -163 -206 l-119 -30 -41 20 c-68 32 -209 160 -216 195 -6
29 2 197 15 324 9 88 33 111 140 135 64 14 222 36 316 45 8 0 23 -5 33 -12z
m3609 -14 c30 -34 147 -355 147 -404 0 -12 -10 -23 -26 -29 -78 -30 -492 -84
-531 -69 -27 10 -43 38 -43 77 0 22 17 48 71 108 39 44 80 98 91 122 21 43 69
92 92 92 6 0 39 22 72 48 59 48 93 71 105 72 3 0 13 -8 22 -17z m-7206 -12
c31 -19 75 -76 107 -138 9 -18 25 -83 36 -145 25 -152 26 -151 -120 -209 -165
-66 -165 -66 -184 -25 -33 70 -16 179 39 252 22 29 24 39 19 93 -6 56 -2 81
31 179 6 18 35 15 72 -7z m-185 -26 c5 -16 16 -52 25 -79 21 -64 6 -137 -41
-192 -26 -31 -34 -51 -39 -97 -3 -36 -17 -78 -36 -113 -17 -31 -28 -61 -25
-65 3 -5 17 -9 32 -10 26 -1 26 -1 -7 -15 -19 -9 -44 -13 -57 -10 -35 9 -150
112 -169 151 -15 33 -15 42 4 146 13 73 27 122 42 142 29 42 127 126 181 155
54 29 79 26 90 -13z m-1580 -27 c83 -24 146 -108 133 -176 -12 -66 -46 -132
-76 -147 -36 -19 -130 -19 -174 -1 -19 8 -46 32 -62 57 -24 36 -27 51 -27 113
1 153 59 197 206 154z m233 -26 c-6 -7 -35 18 -35 31 0 5 9 2 20 -8 11 -10 18
-20 15 -23z m-3108 6 c7 -6 13 -21 13 -34 0 -38 -20 -121 -35 -140 -11 -16
-15 -16 -30 -4 -20 16 -85 143 -85 165 0 9 10 20 23 25 26 11 95 4 114 -12z
m945 -38 c67 -20 69 -60 7 -135 l-39 -48 41 -35 c61 -53 71 -85 63 -200 -4
-54 -11 -102 -15 -108 -10 -13 -85 -2 -121 17 -19 10 -24 9 -36 -10 -8 -11
-24 -21 -36 -21 -32 0 -326 86 -339 99 -25 25 4 46 146 110 71 33 87 44 87 62
0 21 -3 21 -57 16 -32 -3 -75 -9 -95 -13 -31 -5 -39 -3 -44 11 -14 36 36 225
68 257 20 20 28 20 177 15 86 -3 173 -10 193 -17z m8226 -12 c5 -7 16 -32 23
-56 14 -50 35 -64 96 -66 41 -2 43 0 43 26 0 15 4 28 10 28 12 0 161 -130 189
-166 12 -15 21 -31 21 -36 0 -17 -122 -137 -173 -170 -59 -38 -105 -41 -215
-14 -108 27 -109 29 -82 218 26 188 43 248 70 248 4 0 12 -6 18 -12z m1207
-37 c16 -6 19 -16 17 -52 -2 -24 -6 -53 -9 -63 -4 -15 -2 -18 12 -13 20 8 9
-11 -102 -180 -93 -139 -114 -163 -150 -163 -54 0 -366 200 -371 238 -6 37
104 172 127 157 28 -17 61 -105 61 -163 l0 -60 63 -4 c48 -4 68 -1 87 12 32
22 96 32 135 22 28 -8 31 -6 47 31 22 49 23 48 -5 38 -45 -17 -162 6 -192 39
-12 13 -15 28 -11 45 3 14 9 36 12 49 6 24 -13 36 -63 36 -40 0 -25 19 20 24
100 14 294 18 322 7z m-9185 -18 c45 -31 218 -182 239 -209 12 -15 21 -35 21
-45 0 -20 -94 -148 -167 -226 -61 -66 -82 -72 -123 -36 -25 22 -38 49 -61 128
-53 178 -47 311 15 378 29 31 43 33 76 10z m2034 -58 c16 -33 16 -37 -1 -65
-22 -38 -28 -38 -42 1 -14 41 -14 82 1 97 15 15 22 9 42 -33z m7193 13 c-3 -8
-6 -5 -6 6 -1 11 2 17 5 13 3 -3 4 -12 1 -19z m-7872 -133 c13 -27 37 -95 54
-150 18 -55 43 -128 57 -162 32 -82 32 -120 -2 -133 -67 -26 -190 -1 -237 48
-31 33 -67 130 -67 182 0 40 86 228 122 267 27 29 43 18 73 -52z m584 29 c12
-15 21 -32 21 -38 0 -20 -77 -89 -90 -81 -26 16 9 145 40 145 4 0 18 -12 29
-26z m3921 -3 c0 -5 -17 -23 -37 -40 -20 -17 -35 -32 -32 -34 2 -1 20 -14 39
-29 33 -24 39 -25 88 -15 52 11 119 1 186 -28 16 -7 17 -6 7 14 -7 12 -11 29
-9 38 2 12 27 -4 91 -62 108 -96 118 -112 87 -137 -20 -16 -42 -18 -189 -17
-210 0 -497 21 -513 37 -9 9 -9 28 0 85 15 84 37 134 72 159 38 27 210 51 210
29z m3536 -38 c23 -23 104 -192 104 -216 0 -11 -7 -28 -15 -37 -12 -14 -11
-22 12 -68 26 -53 48 -66 56 -34 3 9 5 -3 6 -28 1 -44 -1 -47 -81 -123 -100
-96 -118 -105 -164 -77 -39 24 -192 185 -206 217 -6 12 -8 32 -4 46 9 37 187
294 224 325 22 17 47 15 68 -5z m299 -18 c137 -24 177 -40 145 -60 -18 -11
-10 -20 39 -43 60 -27 58 -27 65 3 9 35 33 31 53 -9 24 -51 5 -86 -81 -151
-112 -83 -160 -102 -214 -84 -37 12 -55 42 -121 207 -40 100 -48 132 -34 145
10 11 50 8 148 -8z m-7380 -79 c143 -73 165 -89 165 -123 0 -33 -86 -235 -121
-283 -59 -81 -121 -94 -319 -70 -41 5 -133 14 -205 20 -176 14 -210 40 -147
111 23 26 32 30 48 22 10 -6 37 -16 59 -23 22 -7 55 -23 73 -37 30 -22 33 -23
38 -6 3 10 10 27 14 38 5 11 11 38 14 59 3 24 16 51 33 68 27 29 30 30 95 23
l67 -6 17 32 c13 26 14 39 5 68 -6 20 -8 53 -4 74 l6 37 -37 0 c-20 0 -36 5
-36 10 0 15 61 50 86 50 12 0 79 -29 149 -64z m-1611 8 c50 -20 139 -61 198
-91 119 -60 147 -90 156 -168 4 -37 1 -45 -20 -59 -39 -25 -294 -106 -336
-106 -57 0 -143 47 -164 90 -20 42 -53 269 -44 305 7 29 60 65 95 65 13 0 65
-16 115 -36z m1015 -23 c19 -9 40 -25 48 -37 12 -19 8 -24 -52 -75 -87 -71
-101 -78 -124 -53 -15 16 -71 142 -71 160 0 3 15 11 33 19 39 16 117 10 166
-14z m8340 -10 c6 -10 7 -21 4 -25 -13 -12 -31 -6 -36 13 -9 34 16 43 32 12z
m-9669 -36 c7 -8 21 -69 32 -135 19 -112 19 -121 4 -145 -21 -32 -76 -34 -167
-4 -74 25 -89 35 -89 59 0 21 126 188 166 219 32 25 38 26 54 6z m3697 -27
c28 -17 72 -49 97 -70 40 -34 46 -45 46 -79 0 -68 -66 -216 -116 -261 -18 -16
-22 -15 -72 1 -29 10 -65 30 -81 45 -28 27 -51 34 -51 16 0 -5 4 -10 8 -10 14
0 95 -61 89 -66 -6 -7 -83 14 -124 33 -17 8 -36 26 -42 41 -13 31 -31 268 -23
307 6 32 31 50 102 69 68 19 101 14 167 -26z m4536 -29 c148 -84 216 -130 222
-150 8 -25 -4 -45 -69 -108 -54 -53 -55 -54 -80 -38 -24 16 -26 16 -55 -14
-19 -18 -26 -31 -18 -34 39 -12 41 -13 22 -14 -34 -1 -95 46 -170 131 -92 105
-125 148 -125 167 0 8 25 39 56 69 51 49 59 54 90 49 19 -3 76 -29 127 -58z
m-4948 17 c23 -17 33 -86 34 -234 1 -108 0 -114 -24 -136 -58 -54 -92 -45
-312 80 -165 94 -182 107 -165 127 7 8 27 21 45 28 18 7 75 30 127 52 102 43
249 96 266 97 5 0 19 -6 29 -14z m973 -6 c17 -11 32 -24 32 -29 0 -21 -56 -74
-96 -92 -28 -12 -49 -29 -60 -51 -32 -62 -65 -97 -117 -123 l-52 -26 -3 31
c-2 17 2 55 8 86 14 65 46 106 134 168 89 63 103 67 154 36z m-5759 -21 l34
-21 -29 -24 c-47 -40 -94 -57 -161 -57 -35 -1 -65 2 -69 5 -11 11 11 38 65 78
62 47 106 52 160 19z m3927 11 c15 -6 62 -45 105 -87 92 -89 97 -109 48 -189
-47 -76 -74 -94 -141 -94 -63 0 -189 15 -261 31 -60 14 -72 34 -53 87 28 79
107 219 131 232 48 26 130 35 171 20z m3755 -79 c40 -33 76 -67 81 -76 24 -43
-25 -80 -101 -76 -34 1 -98 72 -111 122 -9 33 -8 45 5 65 8 13 24 24 34 24 11
0 52 -27 92 -59z m-1831 34 c9 -11 10 -19 2 -27 -14 -14 -32 -1 -32 23 0 23
13 25 30 4z m90 -34 c13 -10 31 -29 40 -43 8 -14 30 -44 48 -68 37 -49 38 -57
17 -107 l-16 -37 -29 44 c-35 52 -52 104 -44 135 4 17 -5 32 -43 64 -38 34
-43 41 -23 36 14 -4 36 -15 50 -24z m3129 -12 c28 -6 60 -18 71 -27 19 -16 19
-19 3 -50 -20 -41 -59 -62 -117 -62 -45 0 -45 0 -35 27 5 14 7 33 4 41 -4 12
-11 10 -33 -10 -48 -44 -101 -71 -127 -64 -39 10 -30 34 33 98 55 54 62 58
105 58 25 0 69 -5 96 -11z m-8535 -45 c77 -14 150 -31 161 -37 11 -6 58 -11
105 -12 70 -1 94 -5 135 -25 74 -38 77 -48 31 -135 -45 -85 -87 -132 -125
-142 -14 -3 -41 -19 -58 -34 -47 -41 -95 -51 -188 -39 -96 12 -121 27 -149 93
-44 100 -118 326 -113 342 9 21 37 19 201 -11z m10753 -23 c21 -42 21 -44 4
-63 -16 -16 -17 -24 -8 -48 17 -44 -3 -61 -67 -58 l-51 3 -5 -51 c-3 -27 -13
-63 -23 -78 -18 -27 -18 -28 6 -64 14 -21 31 -53 37 -73 11 -31 16 -35 39 -31
14 3 36 12 48 19 21 14 63 10 63 -6 0 -4 -17 -16 -37 -26 -47 -23 -264 -35
-287 -16 -21 17 -26 60 -27 220 0 174 -3 169 130 259 116 78 144 80 178 13z
m-1800 -23 c43 -34 111 -95 151 -136 81 -82 93 -118 48 -147 -29 -19 -52 -12
-263 77 -148 63 -183 86 -183 118 0 43 107 150 151 150 10 0 53 -28 96 -62z
m-9300 -5 c42 -77 126 -318 130 -373 4 -48 0 -62 -29 -110 -41 -68 -84 -91
-284 -151 -169 -52 -237 -57 -265 -19 -24 32 -68 220 -76 327 -8 106 -1 116
130 193 107 63 129 69 161 45 26 -20 29 -19 60 12 25 25 40 30 102 32 27 1 50
47 33 67 -9 11 -8 14 3 14 8 0 24 -17 35 -37z m7029 22 c184 -15 217 -23 233
-54 26 -48 -1 -84 -133 -172 -74 -49 -103 -50 -235 -4 -131 46 -397 163 -412
182 -9 10 -10 19 -2 31 19 31 286 40 549 17z m-7491 -55 c7 -33 11 -35 52 -20
l28 10 -25 -19 c-44 -35 -119 -66 -131 -54 -11 11 9 62 39 96 21 24 29 21 37
-13z m8589 9 c11 -10 -17 -44 -49 -62 -11 -6 -47 -16 -80 -22 l-60 -11 0 -52
c-1 -45 -5 -57 -33 -84 -30 -30 -33 -31 -65 -20 -43 16 -77 15 -77 -1 0 -6 11
-33 25 -59 32 -60 31 -72 -5 -100 -17 -13 -43 -33 -57 -44 l-27 -21 51 -49
c47 -45 74 -96 60 -111 -6 -5 -130 39 -153 55 -26 17 -33 57 -40 223 l-7 175
31 35 c17 19 52 47 79 61 43 23 258 90 323 101 30 5 71 -2 84 -14z m-1836 -27
c2 -12 -12 -56 -32 -97 -40 -85 -43 -86 -207 -145 -101 -36 -189 -51 -189 -32
0 4 16 54 34 112 42 127 67 155 148 165 29 3 80 10 113 14 96 14 129 10 133
-17z m-634 -13 c35 -41 42 -74 24 -113 -8 -17 -13 -38 -11 -47 5 -21 52 -31
93 -19 31 9 32 8 25 -18 -10 -43 -39 -86 -66 -99 -31 -15 -226 -34 -260 -26
-34 8 -54 28 -121 116 -76 102 -76 121 -3 142 30 9 72 16 93 14 46 -2 69 7 77
32 8 25 52 48 92 49 23 0 38 -8 57 -31z m4374 -96 c172 -178 193 -220 135
-275 -38 -37 -77 -49 -143 -47 -31 1 -62 -1 -68 -5 -20 -12 -13 -47 13 -68 32
-25 32 -58 0 -96 -18 -21 -31 -28 -45 -25 -31 8 -104 96 -120 142 -7 23 -16
41 -19 41 -3 0 -17 -19 -31 -42 -14 -22 -42 -52 -62 -66 -42 -27 -42 -36 -1
-47 48 -12 135 -87 149 -128 5 -16 11 -13 41 20 32 35 31 32 -10 -27 -60 -88
-75 -89 -184 -14 -115 77 -116 80 -111 215 l3 111 40 34 c40 33 48 64 24 89
-18 19 -9 65 20 97 25 27 33 31 48 22 27 -16 63 -74 76 -121 l11 -41 22 48
c12 26 27 51 33 54 20 13 11 25 -26 35 -42 12 -103 46 -103 59 0 9 66 73 118
115 58 46 74 39 190 -80z m648 41 c14 -20 18 -59 22 -194 5 -168 5 -170 -22
-224 -29 -59 -76 -116 -96 -116 -19 0 -179 159 -211 209 -16 25 -29 57 -29 72
0 48 66 131 179 225 53 44 72 54 103 54 29 0 41 -6 54 -26z m-6431 -92 c181
-105 189 -112 180 -160 -9 -48 -29 -78 -68 -102 -38 -24 -78 -25 -117 -5 l-29
15 20 -34 c20 -35 20 -35 1 -79 -11 -24 -35 -55 -53 -68 -30 -22 -44 -24 -134
-24 -186 0 -245 24 -245 101 0 43 62 205 97 252 26 34 57 41 95 21 21 -12 21
-11 0 16 -27 34 -28 55 -2 105 24 47 46 62 80 54 14 -3 92 -44 175 -92z
m-3108 58 c39 -12 81 -32 92 -44 36 -39 65 -336 42 -441 -8 -39 -40 -53 -134
-61 -109 -10 -120 -5 -174 78 -85 134 -135 239 -129 276 6 38 88 179 119 205
28 23 85 19 184 -13z m983 -5 c16 -8 34 -24 40 -35 5 -10 15 -85 20 -167 14
-210 19 -201 -144 -278 -264 -126 -383 -158 -426 -115 -22 22 -23 24 -14 69 5
21 16 37 35 46 23 13 29 23 34 69 6 46 14 63 51 103 24 26 43 53 44 59 0 6
-13 17 -29 24 -70 29 -92 87 -48 128 27 25 311 111 370 112 21 0 51 -7 67 -15z
m6165 -29 c30 -13 35 -20 35 -49 0 -37 15 -47 73 -47 19 0 27 -5 27 -18 0 -39
-62 -213 -86 -241 -37 -44 -222 -147 -237 -131 -8 7 -11 45 -10 106 l1 94 -32
0 c-37 0 -71 30 -81 73 -15 57 70 178 149 213 41 18 118 17 161 0z m-6806 -15
c51 -27 63 -43 59 -88 l-3 -38 -97 0 -98 0 0 53 c0 74 12 92 61 92 22 0 57 -9
78 -19z m956 -6 c29 -28 31 -54 9 -98 -34 -66 -109 -157 -130 -157 -18 0 -22
18 -30 134 -6 94 -5 109 11 126 28 31 108 28 140 -5z m4191 -10 c47 -19 93
-35 102 -35 28 0 217 -81 241 -103 21 -20 23 -28 17 -84 -9 -106 -34 -136
-162 -199 -69 -35 -73 -35 -97 -19 -14 9 -33 27 -42 41 -16 24 -49 32 -60 14
-19 -31 -114 5 -145 55 -39 63 -36 178 7 220 20 21 76 19 104 -4 29 -22 43
-15 76 39 l22 36 -80 28 c-43 15 -79 32 -79 37 0 13 0 13 96 -26z m819 2 c11
-17 18 -74 26 -205 10 -173 9 -183 -10 -227 -33 -75 -59 -105 -90 -105 -29 0
-180 86 -242 139 -47 39 -53 65 -34 153 16 77 50 125 110 154 28 14 27 12 -10
-23 l-40 -38 5 -68 5 -68 53 -18 c30 -10 67 -28 83 -40 l29 -21 40 40 c46 46
45 47 -13 103 -23 22 -28 33 -23 55 4 15 8 40 9 57 2 27 -1 30 -36 36 -52 8
-57 17 -22 45 72 58 134 70 160 31z m1491 -10 c12 -14 41 -74 64 -134 23 -59
55 -131 71 -160 44 -81 85 -243 61 -243 -16 0 -39 35 -45 68 -4 18 -13 40 -21
48 -13 12 -17 10 -35 -15 -12 -16 -21 -38 -21 -49 0 -12 -11 -34 -24 -49 -21
-24 -31 -28 -79 -27 -32 0 -64 7 -78 16 -16 10 -59 89 -127 229 -80 168 -102
224 -102 257 0 29 5 44 16 49 22 8 93 -26 141 -70 35 -32 47 -38 82 -36 46 3
49 8 21 34 -33 30 -63 84 -56 102 10 26 104 12 132 -20z m-5310 -7 c52 -11
104 -24 114 -30 25 -14 26 -50 1 -121 -33 -98 -58 -137 -105 -164 -57 -33
-210 -95 -236 -95 -28 0 -44 37 -75 175 -36 161 -29 197 50 247 35 23 96 20
251 -12z m7598 -6 c14 -36 3 -94 -17 -94 -16 0 -57 42 -57 58 0 39 61 69 74
36z m-5992 -36 c36 -30 99 -128 96 -150 -4 -31 -52 -54 -87 -42 -31 11 -101
108 -101 141 0 47 57 78 92 51z m3994 -24 c255 -73 266 -84 246 -252 -15 -133
-33 -153 -139 -168 -40 -5 -53 -2 -76 16 -38 30 -69 96 -106 220 -44 153 -50
187 -38 199 14 14 12 15 113 -15z m-6083 -33 c14 -6 33 -21 42 -35 21 -32 65
-243 67 -321 2 -104 -22 -126 -142 -128 -74 -2 -80 0 -110 28 -75 70 -320 412
-320 446 0 10 8 20 18 23 29 9 417 -3 445 -13z m1704 -15 c123 -35 152 -54
211 -135 43 -61 52 -80 52 -115 0 -55 -83 -285 -111 -308 -24 -20 -81 -22
-247 -9 -123 11 -135 18 -190 126 -36 68 -37 73 -36 175 1 115 20 200 54 243
41 51 141 60 267 23z m6699 -81 c97 -37 121 -52 165 -107 39 -50 41 -55 36
-108 -2 -30 -9 -67 -15 -83 l-12 -28 -39 20 c-66 34 -117 107 -127 185 -6 41
-9 44 -41 49 -20 4 -50 16 -67 28 -35 24 -78 78 -70 90 5 9 75 -11 170 -46z
m-5302 27 c23 -27 76 -139 76 -163 0 -27 -34 -91 -71 -133 -20 -24 -49 -41
-85 -53 -30 -9 -54 -21 -54 -27 0 -6 3 -28 6 -48 l6 -36 52 0 c68 2 116 -10
116 -28 0 -8 -11 -26 -25 -39 -19 -20 -34 -25 -77 -25 -110 0 -255 56 -283
109 -17 34 -45 207 -45 279 0 61 10 71 120 110 224 79 238 82 264 54z m-3658
-34 c117 -125 314 -397 314 -434 0 -42 -92 -114 -147 -114 -42 0 -264 111
-306 153 -35 36 -77 142 -77 194 0 45 140 233 173 233 7 0 27 -15 43 -32z
m-1107 -9 l44 -19 -7 -43 c-4 -23 -16 -75 -28 -114 -20 -71 -22 -73 -54 -73
-57 0 -66 17 -84 153 -17 132 -18 129 38 122 26 -4 67 -16 91 -26z m-697 -34
c21 -27 61 -96 90 -151 63 -122 62 -137 -22 -195 -62 -43 -80 -47 -103 -21
-18 20 -64 134 -101 249 -30 96 -25 121 26 153 46 29 67 22 110 -35z m7865
-105 c40 -63 73 -123 73 -133 0 -23 -56 -47 -127 -54 l-53 -6 -16 39 c-33 79
-39 136 -20 195 21 63 33 81 54 77 9 -2 49 -55 89 -118z m2773 60 c21 -11 53
-37 71 -58 19 -21 48 -48 65 -60 43 -30 64 -78 64 -150 l0 -61 -42 -6 c-24 -3
-100 -7 -170 -8 -107 -2 -130 1 -144 14 -12 12 -21 55 -31 149 -17 150 -12
190 27 202 37 11 118 0 160 -22z m-10912 -3 c12 -11 26 -33 31 -49 10 -29 8
-34 -37 -78 -55 -56 -108 -74 -191 -68 -63 6 -81 23 -81 77 0 39 29 95 63 124
31 25 185 21 215 -6z m7442 -12 c23 -37 25 -105 3 -112 -32 -11 -85 90 -69
132 10 27 43 17 66 -20z m-8570 -44 c22 -79 3 -114 -58 -109 -63 5 -68 50 -12
127 36 49 52 45 70 -18z m6367 29 c18 -38 56 -277 49 -306 -8 -32 -44 -66 -99
-93 -23 -12 -50 -27 -59 -34 -14 -9 -22 -9 -35 -1 -21 13 -24 88 -6 126 15 32
33 78 33 83 0 3 -8 5 -17 5 -33 0 -118 47 -152 84 -39 41 -73 46 -94 16 -14
-20 -15 -20 -27 11 -18 42 -7 57 61 91 60 31 155 47 264 44 64 -1 71 -3 82
-26z m5383 10 c18 -18 20 -33 20 -162 0 -159 -7 -178 -65 -178 -31 0 -333 83
-367 102 -26 13 -22 45 13 99 53 83 85 104 196 129 54 12 103 23 108 25 30 10
77 3 95 -15z m-6729 -37 c12 -31 4 -77 -17 -93 -15 -13 -81 -16 -114 -5 -39
12 -15 70 44 106 45 27 74 25 87 -8z m5890 7 c47 -26 10 -104 -57 -121 l-44
-11 30 -34 c42 -48 60 -87 67 -143 11 -98 -55 -214 -149 -262 -96 -49 -123
-38 -207 80 -48 68 -44 107 25 217 58 92 135 193 176 231 52 48 116 66 159 43z
m-6572 -74 c21 -25 0 -65 -73 -139 -100 -103 -138 -129 -183 -129 -49 0 -98
50 -88 89 12 50 39 74 153 132 118 61 169 73 191 47z m2651 -39 c0 -42 -12
-67 -31 -67 -24 0 -26 41 -3 75 18 28 34 24 34 -8z m693 -8 c12 -6 72 -47 134
-91 130 -93 139 -107 129 -209 -8 -86 -18 -107 -60 -124 -50 -21 -227 -65
-261 -65 -36 0 -162 58 -187 86 -23 26 -38 98 -41 200 -2 83 -1 87 26 110 15
13 36 24 46 24 11 0 21 6 24 14 8 19 106 66 140 66 15 0 38 -5 50 -11z m3376
-31 c66 -70 70 -88 30 -154 -43 -72 -100 -137 -143 -163 -49 -31 -55 -28 -45
20 12 53 31 88 63 118 24 23 26 29 20 86 -6 61 8 135 26 135 5 0 27 -19 49
-42z m-2055 10 c25 -35 20 -56 -14 -63 -38 -8 -130 13 -130 30 0 13 83 54 112
55 9 0 24 -10 32 -22z m-8324 -9 c0 -6 7 -8 16 -5 34 13 132 -107 252 -310 52
-87 53 -118 8 -221 -46 -105 -68 -128 -141 -144 -92 -21 -224 -18 -260 5 -27
18 -28 19 -9 33 19 14 30 17 96 28 34 5 38 9 52 59 14 48 14 58 1 90 -8 19
-15 53 -15 75 0 31 -4 41 -20 46 -11 3 -34 23 -51 43 -23 28 -29 31 -24 15 7
-24 -19 -142 -41 -185 -8 -15 -35 -39 -61 -54 l-46 -28 -18 23 c-10 13 -24 42
-31 64 -6 23 -26 58 -44 77 -47 52 -76 117 -81 185 -8 88 1 95 192 160 155 53
225 67 225 44z m2206 -53 c37 -79 32 -124 -24 -241 -27 -55 -56 -106 -64 -113
-13 -11 -18 -7 -32 28 -9 22 -16 63 -16 91 0 38 -6 58 -22 79 -13 15 -28 36
-34 46 -7 11 -15 16 -19 12 -4 -4 4 -31 19 -59 33 -67 35 -153 6 -218 -16 -34
-19 -55 -14 -97 6 -48 4 -59 -20 -95 -52 -78 -142 -85 -211 -16 -35 35 -41 61
-67 294 -14 135 -8 159 47 190 106 60 377 163 407 155 12 -3 30 -26 44 -56z
m2992 28 c2 -16 -4 -23 -24 -28 -34 -9 -40 -2 -26 30 14 30 46 29 50 -2z
m-4634 -68 c14 -46 26 -95 26 -109 0 -27 -35 -59 -97 -91 -68 -34 -91 -20
-183 114 -50 73 -50 75 -28 81 30 8 83 1 130 -16 32 -13 38 -12 50 2 7 9 28
22 45 30 29 12 32 16 26 43 -11 58 5 29 31 -54z m7136 43 c129 -37 168 -52
191 -75 22 -23 39 -108 39 -200 0 -95 -12 -101 -276 -129 -141 -15 -154 -15
-184 0 -51 26 -63 69 -50 181 11 101 22 136 64 203 43 68 50 69 216 20z
m-3786 11 c78 -12 106 -30 106 -71 0 -32 9 -59 20 -59 4 0 21 22 38 49 25 41
37 51 67 57 55 10 170 -2 199 -21 39 -26 90 -136 83 -180 -10 -59 -87 -223
-118 -249 -56 -48 -186 -19 -267 60 -32 31 -54 39 -89 35 -7 -1 -19 3 -25 9
-7 6 -28 20 -45 30 -18 11 -49 42 -69 70 -45 63 -77 68 -112 15 -12 -19 -26
-35 -31 -35 -4 0 -27 14 -49 30 -65 47 -58 74 47 184 84 87 110 95 245 76z
m1526 -26 c39 -26 50 -45 50 -84 0 -71 -30 -120 -73 -120 -8 0 -29 39 -52 97
-36 92 -37 97 -20 110 25 18 65 16 95 -3z m1158 -11 c33 -21 42 -54 45 -164 3
-128 -3 -135 -138 -157 -113 -18 -134 -12 -167 48 -24 44 -20 101 13 167 20
39 30 49 56 53 19 3 40 16 54 33 37 48 82 54 137 20z m-7163 -26 c15 -22 20
-92 9 -121 -8 -20 -72 -22 -98 -3 -22 16 -32 87 -16 116 22 43 78 47 105 8z
m9228 -22 c63 -30 109 -79 105 -112 -5 -44 -51 -43 -149 3 -82 39 -119 74
-119 114 0 21 3 22 63 18 34 -2 79 -12 100 -23z m807 4 c71 -43 201 -151 215
-179 22 -43 18 -97 -16 -233 -32 -128 -54 -167 -95 -167 -45 0 -444 384 -444
426 0 14 32 24 78 24 38 0 42 20 12 65 -11 17 -20 33 -20 36 0 9 29 20 60 25
14 2 37 8 50 13 45 18 122 13 160 -10z m-8129 -10 c31 -14 55 -32 64 -49 16
-31 42 -342 31 -383 -5 -22 -12 -27 -36 -27 -16 0 -41 5 -57 11 -43 16 -173
39 -223 39 -36 0 -73 14 -177 66 -122 61 -134 70 -153 108 -33 69 -29 78 77
158 79 61 98 70 173 84 112 21 243 17 301 -7z m3819 -68 c0 -18 -12 -38 -34
-60 l-34 -33 -12 22 c-12 23 -7 54 22 129 l10 26 24 -28 c13 -15 24 -40 24
-56z m3091 33 c23 -22 32 -24 65 -18 22 3 45 11 51 16 17 14 27 -14 19 -48
-10 -37 -122 -140 -190 -174 -102 -52 -158 -37 -176 47 -15 66 -21 168 -12
181 10 15 138 33 187 26 16 -2 41 -16 56 -30z m-6652 -53 c12 -22 41 -253 41
-327 0 -82 -50 -100 -69 -25 -13 48 -35 337 -27 356 8 21 43 19 55 -4z m9172
-31 c186 -49 220 -65 231 -105 12 -40 0 -643 -13 -666 -13 -26 -28 -24 -113
11 -68 28 -137 80 -107 80 9 0 11 8 6 27 -9 36 -12 38 -29 24 -13 -11 -24 0
-69 71 -91 142 -207 375 -207 418 0 40 62 149 97 169 27 16 38 14 204 -29z
m-7587 0 c14 -5 32 -20 41 -34 16 -25 15 -30 -23 -143 -23 -65 -43 -135 -46
-156 -5 -38 -5 -38 17 -24 11 7 45 56 74 107 61 109 74 124 100 116 20 -6 104
-142 148 -239 34 -74 28 -105 -34 -165 -53 -53 -158 -132 -174 -132 -6 0 -18
7 -28 16 -17 15 -20 14 -42 -12 -23 -26 -25 -27 -47 -11 -32 22 -60 67 -60 97
0 14 7 47 15 74 8 27 15 60 15 74 l0 25 -23 -24 c-13 -13 -37 -43 -52 -67 -49
-75 -103 -69 -187 19 -87 90 -112 139 -110 211 3 90 28 137 103 190 86 61 100
67 167 77 81 12 117 12 146 1z m-682 -57 c61 -32 117 -68 125 -80 21 -32 13
-125 -14 -161 -25 -34 -140 -105 -213 -133 -47 -18 -68 -20 -149 -15 -103 7
-131 17 -131 46 0 40 148 326 198 383 26 29 69 20 184 -40z m3409 15 c22 -12
42 -32 45 -44 7 -26 -18 -78 -53 -110 -40 -37 -53 -31 -53 25 l0 49 -59 4
c-68 5 -119 31 -101 53 6 7 30 23 53 35 51 25 109 21 168 -12z m-1092 -28 c61
-7 101 -16 112 -26 27 -24 50 -100 56 -186 6 -73 5 -77 -21 -103 -25 -25 -33
-27 -74 -22 -78 10 -384 96 -404 114 -10 9 -18 21 -18 27 0 19 68 168 86 187
20 22 107 25 263 9z m3758 -26 c68 -30 103 -60 103 -88 0 -59 -156 -316 -192
-316 -19 0 -83 69 -133 145 -71 106 -72 134 -12 192 60 58 115 93 148 93 16 0
54 -11 86 -26z m-4996 -9 c19 -14 54 -35 79 -46 76 -37 131 -80 146 -114 8
-20 26 -39 48 -49 39 -19 54 -49 35 -73 -11 -13 -28 -14 -98 -9 -100 9 -138
22 -172 64 -35 40 -119 205 -119 231 0 29 38 28 81 -4z m2599 -3 c74 -37 108
-168 55 -211 -26 -19 -26 -19 -94 -1 -118 33 -181 60 -198 86 -15 23 -14 28 2
65 29 63 56 79 134 79 43 0 78 -6 101 -18z m2865 -1 c87 -56 385 -385 385
-426 0 -34 -66 -87 -155 -125 -95 -39 -148 -48 -171 -29 -32 26 -198 284 -236
366 -59 129 -50 177 42 217 48 21 99 20 135 -3z m-8390 -17 c22 -9 45 -57 45
-95 0 -33 -50 -134 -96 -195 -47 -62 -162 -95 -209 -61 -26 20 -16 75 32 178
41 87 61 107 158 158 44 23 46 24 70 15z m4682 -10 c3 -8 -1 -23 -10 -31 -19
-19 -55 -12 -88 18 -13 11 -18 18 -12 14 7 -3 21 -1 30 4 28 16 73 13 80 -5z
m303 -21 c42 -27 80 -66 74 -75 -3 -4 -40 -8 -83 -8 l-79 0 -13 31 c-12 29
-11 33 10 50 29 23 59 24 91 2z m-443 -44 c38 -24 42 -51 11 -73 -26 -18 -84
-21 -94 -5 -14 24 -22 83 -13 101 11 20 37 13 96 -23z m4647 -40 c38 -44 38
-81 0 -146 -36 -62 -83 -82 -103 -44 -7 13 -5 42 9 100 32 131 47 146 94 90z
m-3096 -20 c60 -29 102 -69 102 -94 0 -31 -84 -177 -119 -206 -48 -41 -164
-88 -218 -88 -37 -1 -49 5 -82 38 -85 85 -96 267 -19 324 29 21 168 55 234 56
27 1 62 -10 102 -30z m3624 4 c54 -58 220 -337 242 -410 6 -18 2 -22 -26 -28
l-33 -8 23 -15 c12 -8 22 -18 22 -23 0 -13 -65 -28 -248 -54 -188 -28 -223
-26 -278 17 -43 33 -52 46 -90 126 -42 91 -43 127 -2 204 33 62 64 91 135 127
67 33 75 30 58 -25 -16 -54 -62 -105 -116 -132 l-38 -19 34 -33 c19 -18 42
-53 52 -77 10 -23 22 -43 26 -43 5 0 27 18 49 41 25 25 59 47 90 56 38 13 47
20 41 32 -4 9 -8 60 -8 113 -1 88 -3 100 -25 123 -23 25 -23 25 -4 40 30 23
67 18 96 -12z m-6242 -44 c51 -26 59 -34 46 -41 -23 -13 -118 -22 -148 -15
-24 6 -48 43 -48 72 0 27 80 18 150 -16z m4140 0 c70 -70 170 -244 170 -295 0
-50 -11 -56 -55 -34 -21 11 -42 17 -47 14 -14 -9 2 -24 25 -24 28 -1 61 -25
52 -39 -23 -38 -95 34 -212 211 -95 144 -95 198 -2 198 29 0 45 -7 69 -31z
m-292 5 c33 -23 27 -50 -25 -105 -50 -53 -52 -69 -6 -46 16 9 44 18 64 22 29
5 39 2 62 -20 36 -37 93 -124 140 -214 47 -91 45 -94 -79 -168 -106 -63 -188
-96 -218 -87 -27 8 -84 54 -169 137 -88 85 -88 97 3 178 101 91 94 105 -20 39
-71 -42 -110 -50 -129 -26 -16 19 -48 117 -56 171 -9 57 8 66 66 35 50 -25 75
-14 44 20 -26 29 -14 35 105 55 52 9 100 18 105 20 28 9 93 3 113 -11z m-623
-38 c24 -33 65 -172 65 -219 0 -53 -24 -92 -90 -148 -52 -44 -76 -76 -66 -86
3 -3 42 -9 87 -13 112 -10 114 -13 113 -155 -2 -169 -25 -206 -114 -186 -56
13 -140 14 -140 2 0 -17 25 -56 53 -84 23 -22 28 -34 22 -55 -18 -77 -106
-205 -144 -210 -29 -4 -153 39 -243 84 -79 40 -86 54 -70 152 29 174 52 204
137 183 26 -6 62 -9 81 -5 l34 6 -25 45 c-31 57 -31 70 0 124 14 24 25 46 25
49 0 3 -14 11 -30 19 -46 20 -128 84 -155 122 -34 46 -32 78 11 127 19 23 32
47 29 52 -20 32 40 117 107 151 40 20 187 74 223 81 30 6 73 -11 90 -36z
m-6367 15 c58 -6 92 -14 111 -29 15 -11 55 -34 89 -51 34 -17 62 -35 62 -40 0
-5 -15 -21 -32 -35 -23 -18 -33 -34 -34 -55 -1 -36 -58 -105 -109 -131 l-36
-19 78 6 c43 3 110 14 148 24 101 26 103 23 77 -132 -28 -167 -56 -255 -88
-275 -20 -14 -40 -15 -112 -10 -108 9 -132 23 -132 75 0 75 -56 76 -86 1 -26
-65 -85 -86 -163 -59 -39 14 -50 33 -57 107 -8 71 6 120 52 183 19 26 34 49
34 52 0 3 -19 1 -42 -5 -47 -10 -54 -18 -83 -98 -12 -33 -26 -55 -35 -55 -9 0
-26 32 -47 90 -45 126 -48 143 -28 165 28 31 75 34 157 11 87 -25 89 -25 112
-8 27 20 3 60 -54 91 -74 40 -77 48 -49 108 13 28 36 65 52 81 26 28 31 29 80
23 29 -4 89 -11 135 -15z m4987 -22 c82 -25 215 -87 215 -100 0 -17 -85 -9
-125 12 -22 11 -69 32 -105 45 -35 13 -73 33 -84 44 l-20 20 26 0 c14 0 56 -9
93 -21z m2790 15 c9 -4 34 -34 57 -67 50 -74 188 -350 188 -376 0 -26 -52 -68
-103 -83 -23 -6 -76 -12 -117 -12 l-76 -1 -72 54 c-40 29 -77 61 -82 71 -25
46 4 144 80 277 42 72 94 143 106 143 1 0 10 -3 19 -6z m-3329 -49 c27 -17
184 -223 184 -242 0 -26 -28 -69 -74 -111 -44 -40 -48 -42 -108 -42 -67 0
-135 24 -175 62 -17 15 -23 17 -23 7 1 -8 15 -23 32 -34 35 -22 95 -101 85
-111 -11 -11 -54 5 -78 30 -26 27 -79 183 -79 232 0 41 26 120 51 156 24 34
116 80 144 72 11 -3 29 -12 41 -19z m-791 -91 c161 -46 205 -65 205 -86 0 -20
-121 -200 -171 -253 -25 -28 -51 -60 -58 -72 -10 -20 -8 -23 25 -29 23 -4 51
-21 75 -45 36 -36 39 -37 49 -19 5 10 10 34 10 52 0 18 7 46 15 62 24 46 158
217 183 234 35 23 64 -4 100 -90 52 -124 57 -158 37 -235 -32 -129 -123 -273
-173 -273 -39 0 -85 32 -118 81 -36 52 -50 58 -57 22 -10 -50 -50 -97 -95
-113 -23 -8 -42 -20 -42 -27 0 -7 10 -31 21 -53 20 -37 21 -51 15 -138 -4 -53
-13 -103 -19 -110 -13 -16 -77 -11 -121 9 -34 16 -33 24 4 41 17 7 30 16 30
20 0 13 -57 19 -86 8 -65 -26 -184 -5 -259 44 -35 23 -49 84 -35 151 10 46 19
61 63 101 50 45 53 46 102 41 27 -3 60 -8 73 -12 31 -10 30 24 -3 63 -32 39
-32 45 9 79 18 15 38 38 45 50 10 20 8 22 -43 33 -30 6 -59 17 -65 24 -28 34
-43 106 -47 230 l-5 129 24 -16 24 -16 7 57 c4 31 7 64 7 73 0 23 38 39 79 33
19 -3 107 -25 195 -50z m-1918 -26 c70 -73 93 -115 93 -169 0 -54 -53 -317
-70 -349 -18 -33 -46 -23 -93 33 -25 28 -56 64 -69 79 -12 15 -35 30 -50 34
-22 5 -29 1 -41 -23 -15 -28 -14 -31 31 -96 44 -64 45 -67 28 -86 -28 -30
-198 -68 -180 -39 5 8 2 9 -12 4 -10 -4 -45 -12 -78 -17 -54 -9 -62 -8 -95 14
-64 43 -143 120 -157 154 -19 44 -18 98 2 118 12 12 28 15 63 10 49 -6 49 -5
-36 30 -36 16 -49 45 -34 74 6 11 11 29 11 41 0 17 -3 19 -19 11 -15 -8 -20
-7 -25 5 -25 66 13 87 170 92 136 5 165 1 194 -28 11 -11 30 -22 42 -25 24 -6
23 -7 58 81 9 22 107 77 121 68 4 -2 0 -24 -9 -49 -9 -24 -12 -48 -8 -52 5 -4
11 -1 14 7 3 8 23 32 46 54 25 24 36 40 29 43 -21 8 -14 23 10 23 14 0 39 -17
64 -42z m-1382 23 c4 -8 -20 -41 -30 -41 -2 0 -28 -9 -56 -21 -46 -17 -51 -18
-38 -3 21 25 90 74 105 74 7 0 15 -4 19 -9z m4413 -13 c16 -16 15 -59 -3 -82
-14 -19 -15 -19 -35 -1 -29 26 -34 54 -14 76 20 22 35 24 52 7z m375 -21 c45
-19 57 -54 33 -103 -22 -48 -68 -74 -112 -64 -43 10 -74 30 -125 81 -40 40
-49 74 -26 98 16 17 179 9 230 -12z m-2302 -12 c14 -9 11 -58 -7 -83 -24 -34
-52 -29 -59 12 -5 24 -13 35 -28 39 -12 2 -30 8 -39 12 -13 5 -18 3 -18 -8 0
-22 -18 -31 -35 -17 -19 16 -19 47 0 57 15 9 168 -2 186 -12z m352 -4 c15 -15
68 -266 74 -351 7 -100 -3 -126 -66 -183 -57 -51 -85 -49 -158 11 -124 103
-138 132 -132 270 3 65 10 89 39 147 19 38 47 78 61 88 43 31 157 42 182 18z
m-4623 -26 c0 -42 -56 -109 -101 -120 -19 -5 -34 0 -56 19 -44 37 -58 33 -73
-19 -24 -87 -120 -168 -213 -181 -39 -6 -44 -4 -55 20 -17 38 -15 70 6 88 9 8
52 33 95 56 42 23 95 55 116 73 31 24 54 33 107 39 38 5 89 16 114 24 59 19
60 19 60 1z m2156 -9 c97 -35 111 -53 135 -172 11 -54 21 -130 22 -168 l2 -68
-47 -43 c-44 -39 -51 -42 -120 -48 -124 -11 -183 17 -207 97 -7 25 -16 46 -20
46 -14 0 -29 -17 -47 -50 -40 -77 -24 33 37 254 40 149 61 176 129 176 27 0
79 -11 116 -24z m-1959 -22 c4 -41 -125 -332 -157 -356 -29 -21 -189 -38 -358
-38 -96 0 -105 2 -127 25 -36 35 -31 53 18 75 97 42 195 33 271 -25 l44 -34
11 29 c18 53 88 118 147 137 48 15 54 20 54 44 0 63 58 185 84 176 6 -2 12
-17 13 -33z m10035 -43 c28 -22 76 -123 85 -176 5 -30 1 -39 -30 -70 -62 -62
-98 -51 -254 77 -86 70 -92 92 -38 135 47 37 89 51 156 52 41 1 63 -4 81 -18z
m-9711 -28 c54 -32 69 -69 90 -235 10 -84 19 -181 19 -215 0 -83 -10 -89 -165
-98 -158 -9 -188 2 -246 89 -58 87 -54 116 44 318 71 146 79 158 109 166 40
10 109 -1 149 -25z m317 4 c21 -22 110 -229 126 -290 5 -23 3 -29 -21 -38
l-27 -10 29 -24 c17 -13 33 -24 38 -25 18 -1 4 -39 -25 -67 -74 -70 -147 -100
-184 -75 -24 16 -38 61 -40 135 -2 43 -6 82 -9 86 -3 5 -9 55 -14 111 -9 110
-1 173 26 202 23 26 75 23 101 -5z m3219 8 c1 -5 -12 -20 -30 -32 l-32 -23 91
0 c120 0 128 -8 133 -132 l3 -89 -39 -37 c-47 -44 -280 -185 -342 -207 -83
-29 -128 -16 -145 42 -11 35 13 224 33 263 10 19 42 54 72 77 30 23 68 56 84
72 52 51 107 82 139 79 16 -2 31 -7 33 -13z m-609 -39 c25 -13 75 -68 114
-125 21 -30 23 -87 7 -180 -22 -128 -59 -159 -168 -140 -83 15 -105 34 -103
89 4 85 43 325 58 348 17 25 52 29 92 8z m4476 -18 c12 -20 -8 -48 -36 -48
-27 0 -34 27 -12 51 19 22 32 21 48 -3z m-1140 -24 c14 -15 26 -34 26 -44 0
-24 -76 -134 -117 -170 -62 -55 -173 -35 -173 31 0 43 25 96 52 109 12 7 37
25 53 40 37 34 83 59 111 60 12 0 33 -12 48 -26z m414 14 c16 -16 15 -110 -2
-133 -13 -19 -15 -19 -54 -1 -52 23 -97 70 -88 91 7 18 81 54 112 55 11 0 25
-5 32 -12z m-866 -47 c81 -31 108 -55 108 -97 0 -52 -23 -96 -70 -137 -73 -62
-140 -60 -180 5 -25 41 -28 170 -5 225 14 34 17 35 53 30 20 -3 63 -15 94 -26z
m-232 -133 c-6 -22 -19 -39 -30 -43 -20 -6 -80 2 -80 11 0 7 89 154 104 173
16 20 21 -92 6 -141z m1243 111 c40 -21 77 -62 77 -86 0 -28 -41 -72 -67 -74
-59 -4 -83 20 -83 83 0 80 22 103 73 77z m2540 -28 c13 -5 70 -46 125 -90 89
-71 102 -85 102 -111 0 -38 -74 -204 -93 -208 -8 -2 -35 -23 -60 -47 -26 -24
-64 -49 -87 -56 -47 -14 -50 -23 -12 -43 15 -8 35 -23 44 -33 17 -18 16 -21
-8 -69 -15 -27 -35 -58 -46 -69 -19 -20 -19 -20 -41 7 -12 15 -42 67 -67 115
-25 49 -50 95 -57 103 -21 27 -143 312 -143 335 0 25 40 70 83 92 47 24 201
82 219 83 9 0 28 -4 41 -9z m-1729 -97 c93 -81 117 -115 100 -142 -21 -32 -63
-55 -99 -54 -19 1 -45 -2 -58 -7 -12 -4 -36 -4 -54 1 -40 10 -47 40 -38 151 7
83 24 127 49 127 7 0 53 -34 100 -76z m-1171 35 c65 -34 153 -96 176 -125 27
-35 27 -96 1 -216 -28 -122 -44 -154 -96 -184 -75 -44 -169 -30 -225 34 -47
54 -78 128 -85 209 -6 65 -4 77 20 126 27 56 132 177 154 177 7 0 32 -10 55
-21z m1901 -5 c19 -7 20 -24 5 -58 -15 -31 -44 -39 -80 -20 -42 21 -69 18 -69
-8 0 -13 -9 -43 -20 -67 -11 -24 -20 -44 -20 -46 0 -2 41 -5 91 -7 101 -3 97
-1 154 -97 31 -53 40 -60 48 -38 3 7 6 8 6 1 1 -6 -8 -23 -20 -37 -39 -50
-349 -126 -413 -101 -8 3 -26 21 -41 39 l-25 34 24 55 25 55 -46 -6 c-54 -7
-73 10 -73 63 0 39 37 74 107 100 26 10 62 28 78 40 47 35 197 104 227 104 14
0 33 -3 42 -6z m2327 -13 c99 -34 187 -79 199 -101 16 -30 -21 -155 -52 -171
-28 -15 -566 -6 -621 11 -44 13 -75 64 -84 140 -7 60 -7 61 162 94 249 49 318
54 396 27z m-745 -46 c26 -11 40 -27 59 -67 25 -52 33 -118 16 -118 -13 0
-121 119 -133 146 -8 17 -8 27 2 39 15 18 13 18 56 0z m-4666 -50 c20 -24 -7
-82 -65 -140 l-54 -53 -12 29 c-15 37 -7 120 15 153 13 21 24 26 60 26 26 0
48 -6 56 -15z m113 -22 c13 -7 -4 -77 -24 -97 -35 -37 -62 20 -43 91 5 19 11
22 33 17 14 -4 30 -9 34 -11z m177 -72 c48 -34 55 -60 36 -122 -29 -90 -79
-183 -106 -196 -30 -14 -158 0 -200 22 -35 18 -77 64 -90 99 -10 27 -9 28 12
22 13 -3 33 -6 44 -6 12 0 44 -15 72 -33 l49 -34 11 31 c13 36 65 95 105 121
l28 18 -20 21 c-23 25 -53 91 -44 99 7 8 70 -18 103 -42z m3322 32 c9 -10 36
-59 62 -110 l46 -92 -25 -29 -25 -29 42 -6 c26 -3 48 -14 57 -26 9 -12 49 -95
89 -185 71 -161 72 -166 58 -198 -7 -18 -34 -55 -60 -82 -40 -43 -49 -48 -76
-43 -45 10 -292 125 -319 150 -30 28 -104 176 -126 252 -11 38 -15 74 -11 102
7 51 69 236 90 268 28 43 168 62 198 28z m-5104 -7 c15 -8 60 -48 100 -89 65
-67 72 -79 72 -115 0 -51 -18 -66 -69 -57 -29 5 -55 20 -92 55 -71 67 -126 72
-170 17 -15 -18 -20 -19 -67 -7 -53 12 -79 31 -67 50 9 15 110 88 174 127 61
37 79 40 119 19z m2299 4 c61 -22 76 -140 18 -140 -56 0 -189 78 -178 106 14
37 98 55 160 34z m3799 -63 c85 -87 114 -131 114 -173 0 -85 -56 -302 -88
-337 -23 -27 -115 -88 -182 -122 -72 -38 -134 -38 -215 -1 -71 32 -95 52 -95
79 0 11 20 60 44 111 24 50 51 112 60 137 9 25 22 54 29 64 12 15 16 16 36 4
12 -8 27 -31 33 -52 11 -37 13 -38 44 -32 59 11 124 -14 176 -67 62 -63 97
-66 39 -3 -22 24 -41 49 -41 55 0 6 -17 18 -37 26 -57 24 -100 60 -129 109
-17 29 -33 45 -46 45 -26 0 -18 24 44 124 56 91 71 105 113 106 24 0 43 -14
101 -73z m-1359 41 c-3 -8 -6 -5 -6 6 -1 11 2 17 5 13 3 -3 4 -12 1 -19z
m2693 -11 c59 -16 68 -36 81 -189 24 -289 24 -295 1 -307 -16 -9 -37 -6 -99
14 -109 34 -136 54 -168 119 -49 100 -44 270 10 353 13 20 23 23 73 22 31 0
77 -6 102 -12z m-9625 -16 l30 -7 -50 -37 c-79 -58 -144 -88 -166 -76 -24 12
-24 50 -1 78 9 12 40 28 67 35 56 15 77 16 120 7z m-2070 -8 c10 -3 35 -33 56
-66 32 -50 39 -69 39 -111 0 -49 -41 -220 -63 -261 -9 -18 -12 -16 -47 22
l-37 42 0 -47 c1 -99 -4 -110 -52 -127 -66 -22 -125 -18 -230 18 -65 22 -100
40 -113 57 -21 29 -68 264 -68 342 0 68 21 105 64 114 107 20 414 32 451 17z
m5589 -79 c23 -22 20 -40 -10 -63 -26 -20 -94 -44 -102 -36 -7 7 47 94 66 104
23 14 28 13 46 -5z m-4570 -59 c-1 -41 -8 -74 -24 -105 -33 -65 -39 -71 -61
-60 -25 14 -69 80 -69 104 0 29 107 128 134 124 19 -3 21 -9 20 -63z m124 49
c29 -20 29 -67 1 -211 -28 -145 -43 -169 -81 -125 -38 43 -26 143 26 221 23
34 30 53 25 67 -10 26 -11 64 -1 64 4 0 18 -7 30 -16z m503 -9 c48 -17 98 -61
132 -115 19 -30 22 -48 21 -121 -3 -160 -33 -242 -104 -283 -28 -17 -52 -21
-125 -21 -86 0 -94 2 -190 47 -55 25 -115 60 -133 76 -28 26 -32 35 -28 64 3
18 13 89 22 158 13 98 35 189 48 190 0 0 19 7 41 15 51 20 250 13 316 -10z
m606 5 c37 -22 56 -52 47 -75 -7 -16 -158 -128 -200 -147 -29 -13 -30 -20 -6
-41 16 -14 23 -15 62 -2 91 28 157 45 178 45 14 0 32 -14 50 -40 15 -22 35
-39 46 -40 18 0 17 -3 -9 -30 -21 -22 -25 -31 -14 -34 48 -16 87 -22 104 -15
11 4 39 8 63 8 36 1 49 -5 87 -40 46 -42 55 -71 32 -99 -33 -42 -197 -187
-250 -221 -64 -41 -101 -48 -133 -24 -10 8 -37 15 -59 15 -56 0 -196 51 -243
88 -21 17 -51 49 -67 71 -26 39 -27 42 -12 65 19 28 19 28 143 55 111 25 143
37 160 59 19 24 18 27 -22 41 -27 10 -65 11 -142 6 -121 -8 -122 -8 -122 72 0
95 19 123 148 218 63 47 118 85 121 85 3 0 20 -9 38 -20z m4157 -16 c145 -59
237 -130 251 -196 8 -35 -11 -64 -28 -45 -40 44 -51 62 -62 104 -14 52 -13 52
-30 -30 -8 -39 -63 -113 -100 -133 -20 -10 -35 -26 -35 -36 0 -23 6 -23 37 2
42 32 163 63 163 41 0 -36 -237 -231 -281 -231 -24 0 -89 63 -163 159 -56 74
-55 112 8 245 78 167 98 177 240 120z m-3313 0 c11 -13 6 -29 -30 -102 -57
-115 -127 -228 -154 -247 -26 -18 -76 -19 -97 -2 -25 20 -60 69 -60 83 0 8 6
14 14 14 17 0 -22 79 -60 120 -32 35 -33 48 -4 65 55 32 92 45 181 64 120 24
192 26 210 5z m2103 -20 c9 -8 16 -26 16 -40 0 -13 6 -24 13 -24 7 0 21 -6 32
-13 16 -12 17 -18 6 -48 -6 -18 -21 -44 -34 -57 -25 -27 -84 -55 -98 -46 -15
9 -10 98 7 123 16 22 16 24 0 33 -19 10 -21 59 -4 76 17 17 44 15 62 -4z m493
-103 c13 -52 -46 -84 -137 -75 -68 7 -100 26 -100 59 0 20 11 30 53 52 28 16
68 33 87 40 33 11 36 10 63 -20 15 -18 31 -43 34 -56z m5433 63 c185 -16 200
-23 200 -93 0 -60 -16 -100 -97 -235 -96 -159 -128 -196 -173 -196 -40 0 -210
85 -331 167 -53 35 -62 62 -67 211 -5 140 -1 156 41 166 32 7 237 -3 427 -20z
m-7735 -19 c75 -36 99 -72 92 -138 -4 -51 -7 -54 -102 -145 -112 -107 -144
-126 -191 -119 -45 8 -161 64 -168 82 -3 8 6 39 19 68 32 74 152 274 167 281
29 13 131 -3 183 -29z m4803 20 c40 -17 82 -52 82 -69 1 -22 37 -54 71 -61 75
-16 97 -62 100 -211 l2 -108 -57 -53 c-31 -29 -65 -53 -75 -53 -18 0 -56 37
-85 83 -9 15 -28 33 -42 39 -34 16 -46 -3 -39 -58 9 -63 -5 -70 -126 -57 -116
11 -152 30 -157 81 -3 30 -22 47 -22 20 0 -6 -9 -2 -20 10 -12 12 -31 22 -43
22 -32 0 -96 46 -103 75 -3 14 -4 35 0 48 7 31 63 117 76 117 5 0 10 -23 10
-50 0 -30 8 -66 19 -88 10 -20 21 -49 25 -64 3 -16 11 -28 16 -28 18 0 19 18
2 51 -11 23 -17 58 -17 109 0 73 6 94 57 197 6 12 26 29 45 38 31 15 37 15 57
1 14 -9 28 -32 35 -60 6 -25 21 -52 33 -60 20 -14 23 -14 40 4 11 12 18 34 18
61 0 44 21 79 47 79 7 0 30 -7 51 -15z m-7609 -59 c17 -20 6 -37 -91 -154
-108 -130 -176 -199 -209 -213 -24 -9 -35 -8 -65 8 -21 10 -38 27 -40 38 -1
10 -8 22 -16 26 -18 11 2 83 53 187 54 110 76 121 240 122 89 0 119 -3 128
-14z m3313 -8 c52 -11 52 -11 23 -20 -16 -5 -51 -6 -76 -2 l-46 5 5 -30 c2
-17 5 -31 6 -31 0 0 25 9 54 20 87 33 160 24 246 -31 l49 -30 30 22 c26 19 38
21 95 16 81 -8 134 -33 147 -70 8 -23 4 -45 -19 -110 -44 -124 -131 -308 -150
-319 -28 -16 -163 8 -213 38 -23 13 -121 103 -217 199 -185 185 -198 204 -176
269 19 59 41 70 177 85 7 0 36 -4 65 -11z m5040 -63 c16 -35 -15 -86 -91 -154
-104 -92 -179 -141 -217 -141 -37 0 -43 7 -54 57 -7 30 -5 35 16 43 28 11 24
33 -14 68 -28 27 -24 67 11 94 33 26 121 50 206 57 102 8 130 3 143 -24z
m-6474 13 c15 -15 15 -61 0 -76 -17 -17 -48 14 -48 48 0 40 23 53 48 28z
m-1682 -57 c21 -15 67 -57 100 -93 72 -75 74 -91 17 -158 -39 -45 -80 -70
-116 -70 -34 0 -47 -19 -47 -70 0 -61 -26 -99 -93 -136 -26 -14 -34 -13 -105
6 -84 23 -121 50 -153 112 -32 62 -26 85 45 173 35 44 107 122 159 173 108
105 127 112 193 63z m1964 -23 c0 -4 -6 -8 -14 -8 -8 0 -17 4 -20 8 -2 4 4 8
15 8 10 0 19 -4 19 -8z m7814 -10 c10 -40 6 -76 -10 -92 -8 -9 -20 -14 -25
-11 -20 13 -3 125 20 125 5 0 11 -10 15 -22z m-4657 -32 c31 -10 57 -25 64
-37 14 -27 -4 -145 -29 -179 -29 -40 -109 -75 -164 -73 -44 2 -49 0 -64 -28
-21 -42 -61 -56 -185 -64 -140 -9 -155 -2 -209 106 -38 75 -40 82 -29 119 7
22 21 48 31 57 11 10 36 35 56 55 21 20 49 40 63 43 38 9 104 -12 143 -45 18
-17 36 -30 40 -30 3 0 6 15 6 34 0 56 27 68 135 63 50 -3 114 -12 142 -21z
m1355 -16 c51 -16 127 -47 168 -67 63 -32 75 -42 78 -66 4 -37 -67 -165 -132
-237 -28 -31 -77 -89 -109 -128 -31 -40 -62 -72 -67 -72 -24 0 -114 175 -135
262 -8 35 -18 109 -22 166 -7 114 0 131 62 158 42 19 54 18 157 -16z m1775
-80 c22 -43 32 -77 30 -100 -2 -32 -7 -38 -72 -72 -79 -41 -134 -56 -145 -38
-6 9 -9 9 -12 0 -10 -31 -108 25 -108 61 0 24 64 95 150 166 90 75 113 72 157
-17z m-2162 37 c22 -19 29 -39 45 -132 11 -61 20 -118 20 -128 0 -10 -16 -34
-35 -54 -19 -20 -35 -41 -35 -48 0 -6 21 -18 48 -26 47 -14 47 -15 105 -127
31 -63 57 -127 57 -143 0 -26 -6 -33 -47 -51 -94 -42 -122 -38 -278 40 -131
64 -205 112 -205 132 0 5 15 13 33 19 26 9 33 16 31 34 -1 12 -3 25 -3 30 -2
13 -36 7 -60 -12 -17 -13 -22 -24 -18 -37 6 -15 3 -14 -13 5 -32 38 -26 59 25
81 33 14 43 23 38 35 -7 21 -44 35 -90 35 -38 0 -73 23 -73 48 0 21 171 193
255 257 88 68 155 82 200 42z m4562 -17 c19 -37 16 -139 -5 -179 -20 -41 -73
-71 -124 -71 -80 0 -84 15 -31 104 107 178 132 201 160 146z m-6684 -46 c129
-42 218 -80 229 -97 12 -19 9 -65 -6 -102 -13 -29 -29 -41 -121 -85 -58 -28
-145 -64 -193 -80 -49 -16 -104 -36 -125 -45 -44 -18 -89 -19 -105 -3 -18 18
-15 87 3 94 9 4 34 2 57 -4 23 -6 44 -9 46 -7 2 2 -4 17 -13 34 -8 17 -18 66
-20 107 -4 70 -2 82 30 150 33 72 35 74 70 74 19 0 86 -16 148 -36z m6898 -15
c50 -17 62 -29 47 -46 -14 -17 -61 -42 -100 -54 -48 -13 -71 26 -48 85 11 29
43 34 101 15z m-7884 -132 c136 -121 173 -162 173 -191 0 -35 -225 -206 -271
-206 -16 0 -55 14 -86 31 -68 36 -81 46 -94 70 -8 16 -6 17 20 8 16 -6 46 -27
67 -47 24 -23 39 -32 42 -24 2 7 15 26 29 42 l25 30 -64 0 c-40 0 -78 7 -105
19 -66 31 -67 60 -3 218 28 70 58 138 66 151 28 42 54 29 201 -101z m2385 61
c87 -104 100 -138 51 -138 -31 1 -67 23 -55 35 4 4 -3 4 -16 0 -18 -5 -30 1
-58 29 -31 31 -36 41 -30 68 15 74 49 76 108 6z m-2702 12 c0 -33 -59 -176
-81 -195 -17 -17 -21 -17 -35 -4 -18 19 -29 79 -20 113 7 27 98 106 122 106 8
0 14 -9 14 -20z m7153 -37 c6 -14 35 -50 64 -79 49 -48 53 -51 68 -34 14 15
13 18 -9 28 -31 14 -96 71 -96 84 0 19 50 -2 143 -59 106 -64 137 -90 137
-112 0 -31 -374 -435 -418 -452 -30 -11 -104 27 -169 86 l-44 40 -9 95 c-5 52
-10 127 -10 167 0 63 3 75 26 103 54 63 220 160 277 160 20 0 31 -7 40 -27z
m-7533 -31 c109 -54 132 -80 137 -154 4 -51 2 -58 -57 -151 -66 -105 -91 -127
-117 -105 -36 29 -173 355 -173 412 0 64 80 63 210 -2z m2102 13 c-4 -29 -36
-69 -57 -74 -15 -3 -17 2 -12 34 8 46 24 67 51 63 15 -2 20 -9 18 -23z m-3875
-47 c68 -33 89 -48 91 -66 5 -32 -136 -229 -215 -301 -79 -73 -146 -110 -170
-95 -9 5 -25 35 -35 65 -31 87 -22 127 58 269 38 67 81 136 97 152 34 38 53
35 174 -24z m6382 28 c39 -21 109 -100 132 -149 39 -88 24 -134 -98 -297 -121
-160 -140 -180 -178 -180 -38 0 -179 67 -217 103 -16 15 -28 37 -28 50 0 14
22 58 48 98 27 41 74 117 106 170 66 111 158 219 187 219 11 0 32 -6 48 -14z
m-6759 -93 c-18 -32 -36 -62 -41 -67 -13 -14 -11 21 2 47 11 22 59 77 67 77 2
0 -11 -26 -28 -57z m9015 19 c94 -46 99 -60 70 -222 -27 -154 -41 -166 -152
-130 -117 39 -154 60 -169 96 -35 85 -6 178 78 246 67 55 82 55 173 10z
m-1298 13 c92 -38 126 -91 84 -129 -25 -23 -208 -103 -255 -111 -49 -10 -76
14 -76 64 0 43 22 79 78 126 77 67 108 75 169 50z m-5796 -94 c62 -125 133
-333 125 -366 -4 -16 -20 -32 -41 -42 -38 -18 -55 -12 -35 12 21 26 4 42 -52
48 -29 4 -60 8 -69 9 -10 2 -30 -16 -50 -47 -29 -43 -39 -50 -70 -53 -27 -2
-43 3 -62 20 -32 28 -108 198 -115 253 -4 40 -2 44 54 98 85 82 213 169 244
165 21 -2 33 -19 71 -97z m6355 84 c80 -28 303 -145 314 -165 18 -34 16 -97
-4 -118 -9 -11 -41 -30 -69 -42 -29 -12 -93 -41 -142 -65 -145 -70 -160 -70
-131 -1 17 42 45 52 85 32 46 -24 59 -20 79 27 18 38 18 45 4 80 -10 27 -13
57 -9 102 l6 63 -32 12 c-17 6 -49 22 -69 37 l-38 26 -36 -29 c-19 -16 -46
-37 -59 -48 -41 -33 -145 -19 -145 20 0 8 10 19 23 24 12 5 49 20 82 34 70 30
85 31 141 11z m-7308 -49 c48 -43 51 -86 6 -86 -43 0 -107 88 -84 116 14 16
39 6 78 -30z m4151 15 c47 -24 61 -42 66 -79 6 -49 -93 -186 -153 -211 -27
-11 -28 -14 -25 -74 2 -46 0 -55 -6 -35 -15 45 -17 46 -78 32 -32 -8 -74 -12
-93 -9 -32 6 -38 3 -65 -34 -33 -45 -33 -45 -55 -31 -12 8 -9 15 19 44 l35 36
-20 22 c-12 13 -33 49 -48 80 -15 32 -36 60 -47 63 -24 8 -49 -16 -49 -46 0
-53 -62 -74 -141 -48 -50 17 -53 23 -31 70 30 68 58 87 166 114 108 28 179 31
216 11 23 -13 26 -12 55 32 22 34 42 51 75 64 61 23 132 23 179 -1z m2046 -28
c49 -14 102 -32 118 -40 31 -15 36 -48 10 -61 -34 -18 -259 -55 -287 -48 -54
13 -78 139 -33 171 26 19 62 15 192 -22z m-2817 15 c19 -19 15 -93 -7 -119
l-19 -24 -12 30 c-16 41 -16 90 -1 109 16 19 23 20 39 4z m-3598 -28 c11 -6
31 -31 46 -55 29 -51 33 -103 14 -219 -7 -45 -7 -79 -1 -104 17 -62 -4 -125
-58 -176 -48 -46 -120 -47 -235 -4 -102 38 -121 57 -137 140 -18 89 -8 116 92
248 120 158 145 180 210 180 28 0 59 -5 69 -10z m8510 -9 c15 -28 13 -274 -2
-289 -25 -25 -85 -12 -98 22 -11 29 17 235 36 263 18 28 50 30 64 4z m1413
-161 c114 -190 167 -293 167 -328 0 -31 -43 -104 -84 -142 -22 -20 -40 -25
-97 -28 -63 -4 -73 -2 -96 19 -72 67 -95 207 -49 305 13 28 29 55 35 58 20 13
11 33 -20 46 -52 22 -59 35 -59 110 0 63 2 70 27 90 17 13 38 20 57 18 28 -3
39 -17 119 -148z m-6549 89 c49 -43 116 -146 116 -178 0 -37 -26 -58 -150
-124 -103 -54 -293 -127 -331 -127 -17 0 -19 5 -13 35 3 19 3 42 0 51 -5 14
-13 9 -42 -25 -43 -50 -91 -78 -107 -62 -13 13 -25 96 -26 177 -1 47 3 65 17
77 48 44 429 206 484 207 10 0 33 -14 52 -31z m3712 3 c5 -4 10 -16 11 -27 0
-11 7 -45 15 -75 18 -65 17 -66 -77 -86 -117 -25 -199 -12 -225 36 -8 15 -6
23 11 39 27 25 127 78 192 102 60 21 59 21 73 11z m-2414 -41 c48 -52 93 -148
123 -261 40 -150 34 -173 -52 -228 -84 -52 -84 -52 -168 29 -41 40 -75 70 -75
66 0 -3 16 -33 35 -66 38 -64 44 -96 20 -105 -18 -6 -163 17 -221 36 -35 12
-39 17 -42 49 -2 24 6 53 26 90 28 53 28 56 11 68 -23 13 -26 69 -5 77 8 3 17
22 21 42 4 20 11 43 17 50 16 18 45 15 61 -8 17 -25 22 -20 61 63 36 75 94
137 128 137 17 0 37 -13 60 -39z m-4158 -16 c111 -27 138 -42 167 -88 26 -44
99 -231 99 -256 0 -25 -50 -83 -95 -111 -43 -27 -158 -37 -195 -18 -14 7 -38
38 -55 69 -16 30 -38 66 -47 79 -10 14 -18 40 -18 60 0 19 -9 72 -20 118 -24
101 -25 130 -3 154 21 24 48 23 167 -7z m1989 -1 c89 -20 111 -33 137 -84 22
-42 46 -235 35 -277 -10 -41 -31 -42 -220 -18 -271 35 -327 50 -359 97 -39 55
-12 98 121 201 132 102 159 109 286 81z m-829 -19 c46 -46 29 -78 -94 -177
-130 -105 -155 -88 -70 48 82 134 125 168 164 129z m-2878 -10 c-22 -17 -36
-19 -36 -7 0 14 12 22 34 22 21 -1 21 -1 2 -15z m8516 -17 c51 -15 78 -50 78
-99 0 -22 -3 -39 -6 -39 -13 0 -97 78 -115 106 -30 49 -25 53 43 32z m-736
-12 c24 -18 25 -90 1 -161 -16 -47 -146 -236 -205 -297 -37 -39 -66 -36 -201
23 -116 50 -151 72 -151 93 1 23 176 301 202 320 35 25 86 33 224 35 81 1 115
-3 130 -13z m-6303 -126 c58 -113 85 -207 86 -292 1 -52 -29 -71 -118 -72 -73
0 -125 21 -115 48 3 8 -3 20 -14 27 -23 17 -46 81 -44 126 1 34 16 68 38 90 7
7 22 43 34 80 26 80 47 116 63 111 7 -2 38 -55 70 -118z m4690 19 c50 -26 153
-94 184 -122 28 -25 16 -53 -32 -73 -42 -17 -145 -18 -168 -1 -20 14 -67 146
-67 188 0 36 23 38 83 8z m4643 -72 l7 -77 -25 0 c-34 0 -92 41 -96 66 -5 38
78 116 100 95 5 -4 11 -42 14 -84z m-2806 53 c25 -25 25 -46 1 -60 -50 -26
-99 7 -82 54 13 32 52 35 81 6z m414 -10 c60 -29 146 -112 146 -140 0 -34 -45
-87 -85 -101 -38 -14 -44 -24 -19 -33 30 -12 43 -6 69 31 14 21 25 33 25 27 0
-17 -54 -88 -85 -112 -15 -12 -40 -22 -55 -22 -54 0 -306 217 -312 269 -5 37
40 63 144 82 122 22 125 22 172 -1z m-7630 -80 c24 -61 21 -116 -7 -135 -30
-19 -185 -58 -205 -50 -20 8 -11 89 14 117 42 47 130 108 155 108 22 0 30 -7
43 -40z m4647 -47 c-14 -48 -38 -100 -50 -107 -17 -11 -14 60 4 94 13 25 27
37 47 39 4 1 3 -11 -1 -26z m-579 -5 c-7 -7 -12 -8 -12 -2 0 14 12 26 19 19 2
-3 -1 -11 -7 -17z m354 -6 c23 -18 59 -81 51 -89 -7 -6 -47 15 -74 40 -25 22
-31 67 -10 67 6 0 22 -8 33 -18z"/>
<path d="M9941 5247 c2 -2 30 -27 61 -56 l56 -52 31 16 c48 25 41 51 -16 60
-26 4 -60 13 -75 21 -22 12 -71 21 -57 11z"/>
<path d="M6393 5710 c-11 -29 -10 -30 18 -30 33 0 35 6 11 38 l-17 22 -12 -30z"/>
<path d="M9003 4915 c-25 -40 -12 -52 36 -32 l30 13 -22 26 -22 27 -22 -34z"/>
<path d="M7347 4673 c-15 -14 -6 -31 18 -35 14 -3 25 -2 25 2 0 12 -36 40 -43
33z"/>
<path d="M6875 4260 c3 -5 8 -10 11 -10 2 0 4 5 4 10 0 6 -5 10 -11 10 -5 0
-7 -4 -4 -10z"/>
<path d="M3306 3761 c-4 -7 -5 -15 -2 -18 9 -9 19 4 14 18 -4 11 -6 11 -12 0z"/>
<path d="M771 3202 c-8 -15 -5 -24 17 -44 28 -25 102 -53 102 -38 0 5 -12 15
-27 22 -15 7 -34 26 -43 42 -20 37 -36 43 -49 18z"/>
<path d="M11770 2425 c0 -3 16 -27 35 -52 19 -25 40 -63 47 -85 6 -21 13 -38
15 -38 2 0 15 7 29 17 14 9 49 24 77 33 l52 17 -45 21 c-25 11 -67 25 -95 31
-27 7 -64 23 -82 37 -18 14 -33 22 -33 19z"/>
<path d="M8207 2263 c-12 -11 15 -33 41 -33 l25 0 -26 20 c-28 22 -31 23 -40
13z"/>
<path d="M8345 2200 c4 -6 11 -8 16 -5 14 9 11 15 -7 15 -8 0 -12 -5 -9 -10z"/>
<path d="M5670 1691 c0 -9 33 -21 59 -21 11 0 11 3 1 15 -13 16 -60 21 -60 6z"/>
<path d="M5820 1632 c1 -4 16 -25 35 -46 l35 -39 0 35 c0 31 -4 36 -35 45 -19
6 -35 8 -35 5z"/>
<path d="M3573 1861 c-9 -15 -9 -23 1 -37 13 -17 14 -17 25 3 10 21 6 53 -8
53 -3 0 -12 -9 -18 -19z"/>
<path d="M2292 1105 c0 -16 2 -22 5 -12 2 9 2 23 0 30 -3 6 -5 -1 -5 -18z"/>
<path d="M2268 1002 c-10 -25 -16 -47 -14 -49 1 -1 12 4 24 13 14 10 22 26 22
44 0 46 -14 42 -32 -8z"/>
<path d="M2205 330 c-4 -6 -18 -15 -31 -20 -24 -9 -24 -11 -8 -35 9 -14 34
-30 55 -36 21 -7 48 -21 59 -31 29 -27 25 -13 -9 30 -17 20 -33 49 -36 65 -8
31 -21 42 -30 27z"/>
<path d="M7649 6022 c-9 -4 -29 -23 -45 -42 -16 -19 -34 -39 -41 -43 -13 -8
-18 -37 -7 -37 4 0 22 13 40 30 19 16 52 35 74 41 43 13 51 32 21 49 -22 11
-20 11 -42 2z"/>
<path d="M11706 5995 c4 -8 10 -12 15 -9 11 6 2 24 -11 24 -5 0 -7 -7 -4 -15z"/>
<path d="M2582 5987 c-9 -11 -10 -17 -2 -22 15 -9 23 -1 18 21 -3 15 -4 16
-16 1z"/>
<path d="M1707 5888 c-20 -16 -47 -79 -47 -113 0 -19 5 -25 23 -25 12 0 32 -3
45 -6 18 -5 22 -2 22 17 0 13 9 44 20 68 11 24 20 45 20 46 0 2 -59 25 -65 25
0 0 -9 -6 -18 -12z"/>
<path d="M420 5865 c0 -8 4 -15 10 -15 5 0 7 7 4 15 -4 8 -8 15 -10 15 -2 0
-4 -7 -4 -15z"/>
<path d="M1816 5514 c-5 -14 -4 -15 9 -4 17 14 19 20 6 20 -5 0 -12 -7 -15
-16z"/>
<path d="M233 4115 l-22 -35 32 -14 c35 -15 57 -37 79 -80 l15 -29 7 59 7 58
-43 38 c-24 20 -45 37 -48 37 -3 0 -15 -15 -27 -34z"/>
<path d="M12757 3635 c-33 -31 -34 -41 -4 -49 42 -11 47 -7 47 34 0 47 -6 49
-43 15z"/>
<path d="M40 3299 c0 -11 4 -17 10 -14 13 8 13 35 0 35 -5 0 -10 -9 -10 -21z"/>
<path d="M12747 2390 c-18 -38 -18 -39 5 -74 35 -54 48 -47 48 27 0 55 -11 88
-29 87 -4 0 -14 -18 -24 -40z"/>
</g>
</svg>
